<mxfile host="app.diagrams.net" agent="Mozilla/5.0 (Macintosh; Intel Mac OS X 10_15_7) AppleWebKit/537.36 (KHTML, like Gecko) Chrome/128.0.0.0 Safari/537.36" version="24.7.10">
  <diagram name="第 1 页" id="QA7sdn6FKhU49qpHEAJC">
    <mxGraphModel dx="1242" dy="709" grid="1" gridSize="10" guides="1" tooltips="1" connect="1" arrows="1" fold="1" page="1" pageScale="1" pageWidth="827" pageHeight="1169" math="0" shadow="0">
      <root>
        <mxCell id="0" />
        <mxCell id="1" parent="0" />
        <mxCell id="_jiDTeAEU6iun5wavJAG-9" value="" style="group" vertex="1" connectable="0" parent="1">
          <mxGeometry x="98" y="220" width="100" height="40" as="geometry" />
        </mxCell>
        <mxCell id="_jiDTeAEU6iun5wavJAG-10" value="" style="rounded=0;whiteSpace=wrap;html=1;dashed=1;" vertex="1" parent="_jiDTeAEU6iun5wavJAG-9">
          <mxGeometry width="100" height="40" as="geometry" />
        </mxCell>
        <mxCell id="_jiDTeAEU6iun5wavJAG-11" value="" style="group" vertex="1" connectable="0" parent="_jiDTeAEU6iun5wavJAG-9">
          <mxGeometry x="10" y="10" width="80" height="25" as="geometry" />
        </mxCell>
        <mxCell id="_jiDTeAEU6iun5wavJAG-12" value="" style="shape=datastore;whiteSpace=wrap;html=1;strokeColor=#7EA6E0;" vertex="1" parent="_jiDTeAEU6iun5wavJAG-11">
          <mxGeometry width="20" height="25" as="geometry" />
        </mxCell>
        <mxCell id="_jiDTeAEU6iun5wavJAG-13" value="" style="shape=datastore;whiteSpace=wrap;html=1;strokeColor=#7EA6E0;" vertex="1" parent="_jiDTeAEU6iun5wavJAG-11">
          <mxGeometry x="30" width="20" height="25" as="geometry" />
        </mxCell>
        <mxCell id="_jiDTeAEU6iun5wavJAG-14" value="" style="shape=datastore;whiteSpace=wrap;html=1;strokeColor=#7EA6E0;" vertex="1" parent="_jiDTeAEU6iun5wavJAG-11">
          <mxGeometry x="60" width="20" height="25" as="geometry" />
        </mxCell>
        <mxCell id="_jiDTeAEU6iun5wavJAG-15" value="&lt;span style=&quot;color: rgb(0, 0, 0); font-family: Helvetica; font-size: 12px; font-style: normal; font-variant-ligatures: normal; font-variant-caps: normal; font-weight: 400; letter-spacing: normal; orphans: 2; text-align: center; text-indent: 0px; text-transform: none; widows: 2; word-spacing: 0px; -webkit-text-stroke-width: 0px; white-space: normal; background-color: rgb(251, 251, 251); text-decoration-thickness: initial; text-decoration-style: initial; text-decoration-color: initial; display: inline !important; float: none;&quot;&gt;Raw Online Datasets&lt;/span&gt;" style="text;whiteSpace=wrap;html=1;" vertex="1" parent="1">
          <mxGeometry x="90" y="254.37" width="120" height="25.63" as="geometry" />
        </mxCell>
        <mxCell id="_jiDTeAEU6iun5wavJAG-18" value="" style="shape=image;verticalLabelPosition=bottom;labelBackgroundColor=default;verticalAlign=top;aspect=fixed;imageAspect=0;image=data:image/png,iVBORw0KGgoAAAANSUhEUgAAAP4AAAELCAIAAAB23KwYAAAMPWlDQ1BJQ0MgUHJvZmlsZQAASImVVwdYU8kWnluSkEBoAQSkhN4EESkBpITQQu9NVEISIJQYA0HFji4quHaxgA1dFVGw0iwoYmdR7H2xoKCsiwW78iYFdN1Xvne+b+7988+Z/5w5d27mDgBqJzgiUS6qDkCesEAcE+RHT0pOoZN6AAJQQAFqwIDDzRcxo6LCALSh+9/t3Q3oDe2qvVTrn/3/1TR4/HwuAEgUxOm8fG4exIcAwCu5InEBAEQpbza1QCTFsAEtMUwQ4kVSnCnHlVKcLsf7ZD5xMSyI2wBQUuFwxJkAqF6GPL2Qmwk1VPshdhTyBEIA1OgQe+flTeZBnAaxNfQRQSzVZ6T/oJP5N830YU0OJ3MYy+ciMyV/Qb4olzP9/yzH/7a8XMlQDEvYVLLEwTHSOcO63cqZHCrFKhD3CdMjIiHWhPiDgCfzhxilZEmC4+X+qAE3nwVrBnQgduRx/EMhNoA4UJgbEabg0zMEgWyI4QpBpwkK2HEQ60K8iJ8fEKvw2SKeHKOIhdZniFlMBX+OI5bFlcZ6IMmJZyr0X2fx2Qp9TLUoKy4RYgrE5oWChAiIVSF2yM+JDVX4jCvKYkUM+YglMdL8zSGO4QuD/OT6WGGGODBG4V+alz80X2xLloAdocAHCrLiguX1wdq4HFn+cC7YZb6QGT+kw89PChuaC4/vHyCfO9bDF8bHKnQ+iAr8YuRjcYooN0rhj5vyc4OkvCnEzvmFsYqxeEIBXJByfTxDVBAVJ88TL8rmhETJ88GXgzDAAv6ADiSwpYPJIBsIOvoa+uAveU8g4AAxyAR8YK9ghkYkynqE8BoLisCfEPFB/vA4P1kvHxRC/uswK7/agwxZb6FsRA54CnEeCAW58LdENko4HC0BPIGM4B/RObBxYb65sEn7/z0/xH5nmJAJUzCSoYh0tSFPYgDRnxhMDCTa4Pq4N+6Jh8GrL2xOOAN3H5rHd3/CU0In4RHhOqGLcHuSoFj8U5bhoAvqBypqkf5jLXBLqOmC++FeUB0q4zq4PrDHnWEcJu4DI7tAlqXIW1oV+k/af5vBD09D4Ud2JKPkEWRfsvXPI1VtVV2GVaS1/rE+8lzTh+vNGu75OT7rh+rz4D30Z09sEXYQO4udxM5jR7EGQMdasEasHTsmxcOr64lsdQ1Fi5HlkwN1BP+IN/RkpZXMd6xx7HX8Iu8r4E+T/kcD1mTRdLEgM6uAzoQ7Ap/OFnIdRtGdHJ2cAZDuL/K/rzfRsn0D0Wn/zs3/AwCvlsHBwSPfuZAWAPa7wde/6TtnzYBbhzIA55q4EnGhnMOlF4Js19ICesAImAFrOB8n4Ao8gS8IACEgEsSBZDARZp8F17kYTAUzwTxQAsrAcrAGbACbwTawC+wFB0ADOApOgjPgIrgMroO7cPV0gxegH7wDnxEEISFUhIboIcaIBWKHOCEMxBsJQMKQGCQZSUMyESEiQWYi85EyZCWyAdmKVCP7kSbkJHIe6URuIw+RXuQ18gnFUBVUCzVELdHRKANloqFoHDoBzUSnoEXoAnQpug6tQveg9ehJ9CJ6He1CX6ADGMCUMR3MBLPHGBgLi8RSsAxMjM3GSrFyrAqrxZrhc76KdWF92EeciNNwOm4PV3AwHo9z8Sn4bHwJvgHfhdfjbfhV/CHej38jUAkGBDuCB4FNSCJkEqYSSgjlhB2Ew4TT8F3qJrwjEok6RCuiG3wXk4nZxBnEJcSNxDriCWIn8TFxgEQi6ZHsSF6kSBKHVEAqIa0n7SG1kK6QukkflJSVjJWclAKVUpSESsVK5Uq7lY4rXVF6pvSZrE62IHuQI8k88nTyMvJ2cjP5Ermb/JmiQbGieFHiKNmUeZR1lFrKaco9yhtlZWVTZXflaGWB8lzldcr7lM8pP1T+qKKpYqvCUklVkagsVdmpckLltsobKpVqSfWlplALqEup1dRT1AfUD6o0VQdVtipPdY5qhWq96hXVl2pkNQs1ptpEtSK1crWDapfU+tTJ6pbqLHWO+mz1CvUm9ZvqAxo0jTEakRp5Gks0dmuc1+jRJGlaagZo8jQXaG7TPKX5mIbRzGgsGpc2n7addprWrUXUstJia2VrlWnt1erQ6tfW1HbWTtCepl2hfUy7SwfTsdRh6+TqLNM5oHND59MIwxHMEfwRi0fUjrgy4r3uSF1fXb5uqW6d7nXdT3p0vQC9HL0Veg169/VxfVv9aP2p+pv0T+v3jdQa6TmSO7J05IGRdwxQA1uDGIMZBtsM2g0GDI0MgwxFhusNTxn2GekY+RplG602Om7Ua0wz9jYWGK82bjF+TtemM+m59HX0Nnq/iYFJsInEZKtJh8lnUyvTeNNi0zrT+2YUM4ZZhtlqs1azfnNj83DzmeY15ncsyBYMiyyLtRZnLd5bWlkmWi60bLDssdK1YlsVWdVY3bOmWvtYT7Gusr5mQ7Rh2OTYbLS5bIvauthm2VbYXrJD7VztBHYb7TpHEUa5jxKOqhp1017FnmlfaF9j/9BBxyHModihweHlaPPRKaNXjD47+puji2Ou43bHu2M0x4SMKR7TPOa1k60T16nC6dpY6tjAsXPGNo595WznzHfe5HzLheYS7rLQpdXlq6ubq9i11rXXzdwtza3S7SZDixHFWMI4505w93Of437U/aOHq0eBxwGPvzztPXM8d3v2jLMaxx+3fdxjL1MvjtdWry5vunea9xbvLh8TH45Plc8jXzNfnu8O32dMG2Y2cw/zpZ+jn9jvsN97lgdrFuuEP+Yf5F/q3xGgGRAfsCHgQaBpYGZgTWB/kEvQjKATwYTg0OAVwTfZhmwuu5rdH+IWMiukLVQlNDZ0Q+ijMNswcVhzOBoeEr4q/F6ERYQwoiESRLIjV0Xej7KKmhJ1JJoYHRVdEf00ZkzMzJizsbTYSbG7Y9/F+cUti7sbbx0viW9NUEtITahOeJ/on7gysStpdNKspIvJ+smC5MYUUkpCyo6UgfEB49eM7051SS1JvTHBasK0Cecn6k/MnXhsktokzqSDaYS0xLTdaV84kZwqzkA6O70yvZ/L4q7lvuD58lbzevle/JX8ZxleGSszejK9Mldl9mb5ZJVn9QlYgg2CV9nB2Zuz3+dE5uzMGcxNzK3LU8pLy2sSagpzhG2TjSZPm9wpshOViLqmeExZM6VfHCrekY/kT8hvLNCCH/LtEmvJL5KHhd6FFYUfpiZMPThNY5pwWvt02+mLpz8rCiz6bQY+gzujdabJzHkzH85izto6G5mdPrt1jtmcBXO65wbN3TWPMi9n3u/FjsUri9/OT5zfvMBwwdwFj38J+qWmRLVEXHJzoefCzYvwRYJFHYvHLl6/+Fspr/RCmWNZedmXJdwlF34d8+u6XweXZiztWOa6bNNy4nLh8hsrfFbsWqmxsmjl41Xhq+pX01eXrn67ZtKa8+XO5ZvXUtZK1natC1vXuN58/fL1XzZkbbhe4VdRV2lQubjy/UbexiubfDfVbjbcXLb50xbBlltbg7bWV1lWlW8jbivc9nR7wvazvzF+q96hv6Nsx9edwp1du2J2tVW7VVfvNti9rAatkdT07kndc3mv/97GWvvarXU6dWX7wD7Jvuf70/bfOBB6oPUg42DtIYtDlYdph0vrkfrp9f0NWQ1djcmNnU0hTa3Nns2Hjzgc2XnU5GjFMe1jy45Tji84PthS1DJwQnSi72Tmycetk1rvnko6da0tuq3jdOjpc2cCz5w6yzzbcs7r3NHzHuebLjAuNFx0vVjf7tJ++HeX3w93uHbUX3K71HjZ/XJz57jO41d8rpy86n/1zDX2tYvXI6533oi/cetm6s2uW7xbPbdzb7+6U3jn89259wj3Su+r3y9/YPCg6g+bP+q6XLuOPfR/2P4o9tHdx9zHL57kP/nSveAp9Wn5M+Nn1T1OPUd7A3svPx//vPuF6MXnvpI/Nf6sfGn98tBfvn+19yf1d78Svxp8veSN3pudb53ftg5EDTx4l/fu8/vSD3ofdn1kfDz7KfHTs89Tv5C+rPtq87X5W+i3e4N5g4Mijpgj+xTAYEMzMgB4vRMAajIANHg+o4yXn/9khsjPrDIE/hOWnxFl5gpALfx+j+6DXzc3Adi3HR6/oL5aKgBRVADi3AE6duxwGzqryc6VUiPCc8CWqK/peeng35j8zPlD3j/fgVTVGfx8/xf3g3xEE3j1RwAAADhlWElmTU0AKgAAAAgAAYdpAAQAAAABAAAAGgAAAAAAAqACAAQAAAABAAAA/qADAAQAAAABAAABCwAAAABDvEKOAABAAElEQVR4Aey9+ZMkx3XnGZkReVVV393oBhpA42wCIAgeAHiABG9KpKSRSFFjnL1mbMdsx3bX5of9E/QXjMlsx3ZlGtvRmEzXzEiUyXRS4n2IBEESgACCABpANxoNoO+rrsyMzIj9fN+LiIqsu7qrurOq0js7KsLDw4/n3/f8+fOrkqZpsNlcmvYrlUpgOSf/3OdlqFKUSsor/gT6ay/sfcIrD7yguFVCurMvubV4zMtj9vdL3ffThDyQCV2UJGkRg6VYKe7lU0kVM2EsRX3FI/8rQSVJk4C3VfcJe2lSTatVFUb/Rm7dKaCa2HTOEUO2DWd2NYwDPEM5GARbQDANqvqBKQd38WG5yCXcFxADrwLuKq9Vw2aBewO2YJ0G/XIkClYxJjHEwx6Wf7Ko/FWDMEmSIFHG+TDMwhhnWCyjy/pSIFrf6G5UbMaxwJ2fxKpQJPwI7DhDsAtUPQM5fOSZo5OgYpLsMelXqy4C7GvFgMugb3GtcK+I+ZRU4DKcMmZyP0WGWwTyNccby4x403Jg4XhFAZKqYlAesq/EGgT0lsC/H13XjQLeQK9bdDcmIhOWSPZAYhLoAyJAg8og1JkQB3PmPCTA4slwlGVQ96HfA1ZwT8NADA5YNRKrLYgFNDybriTQm5fwLT3KMmboN3/XjIi8aGoGEkr7nmHlvSqppCIp9wOhRg/rQoFNCX10awovoErUggs9AibEu6DDf5Rqg1o1DCpI9KQCj+ATolYI5TBNP8igLw1dopk4dC1hzW4zqb38vQt75YRIlBlp7XwZVpUW97qSP7GC2DVTdTzz9qaKfz8MFUOa9BRNNSLDlZxBFefIrSsFNiv0DfEZJQQoEJP2O524WW/0+1KUJV9RIipBEsdVEN9P9OvFtBTCd78XpD3wJQbiYyIQOo0NFKvrPxb/nGeW3II/pVYCcBNeztgAkPMY1YKoHoRSsIKoWqk1EhT6sObMSdBer1er1TK9zDKnCKzhGsiJfEdu3SiwKaEPisGE4UosYAhHYAvsoAon3T3pCfudthSRLojvBdPT7fMXz586deX0me7sDPqEAA4b0A82oIJZPoxpEMyp+8B7e+X3eZdgvn9fqr3JcrjQvgq5pmQmqdQjomvs2X370ft33nVnMN6K47i2Y1cQhHFPXV4YtWHMYNYc5Dzx8CNvapXIHFfLghIduXWkwKaEPvoKIrovfVk9Q+FS2EvjuFOv16XhIN17vSDuB1MzQWf27WMvXT53+uKpU9PnL8xeuDhz8VLS6UgVknoDPFE5kNzqVGY8YFhzELtSXlKuMuKX/I3b7BM80XKQ9IQnV1EUdfroMdXazh1jh27Zd+SO+973yOFH3hO0JgJUsXoT9EdRHakfVmqUoRKSD/KTEMUI+uuI8kWj2pTQF8xxUtzlwJkeUeXRlZHZ6Bjgfmqmf/rMhVdeP/Hz51//+TOXzpyevnSpHqTNqlQNlB+ZzOEbIY6LLO7EgA/X1fcrlbR0HBoaXRSR4iAWFBxJdPqtoDyNajNpf7YS3PfIex79zGfueuzx6uHbg3q9X42qYR0G7sfoXClPsujYqAUxWDRwEGxgjEXsI7d+FNjE0JdSIC09LwKISfvJzIxAeO7CmVdeeuZb33nxez8I2zPNoF8PkhoCOQ24St03lEvF58mw5eByxQbu8WhXc/U8SAcTRMWT7sO1WonQkVBfugmsFnbSdDZIZ8LaBz7/+U//D/+qcujWYOfOtBLxLqpGcdyL6qExkgbsgL7FE3r29DBy60qBHDfrGulGR4ZcJAnJafVwBVpJSjw7s8HkVHDm3I/+5m+/9dU/35EmLZqCfjdKknpVthKQSbvAJ0AcqIJTYcyuaE54ZjYiWoTSq/K9F819imLaoy7wEVgHtWj5BuIKqRCMDrV601EYp8FMks42xu7/6Ed+5d//n8HevcHOXUG1PjvTaTRaZFFxmK7v476ehJexSG50sy4U2JRDWqCMwgMSiUb+ACv0nE4nuHSx89Zbf/wffufSa6/dkqYtsN2ZaURRLQyTfgzuMW7CKak6xNKWpOXLEqQOJVo2noZQhRBxLZVFrnqXv/VbPcI2yk21L7ZkQoKewmrfTJkwHr3nNO6TmWYYovz84nvfb+3b+6l/86+DeiNoVJvNJlo+7Il6Y1FmF3KkvrKxd9l/dH/9FBhS6ANunFe5Xx0RkolBgAota6DkatCP1SkMen3k/ds/fvqbf/onU6+9tjdNGv2kxXu6mMC5HwvdBnv+FkiSDi1UKW5vPMRIa3fljxLrgbjiJNQqNk3PwUpPGtjsYb96mkxUqj/5+689/vEnJ+jy1lu0OFhgKZeYz9qcLCd0IsTfI7f+FMh6iusf8XXHWMb9vMjAPVaRLmIeyGKh73SD6ak3n/rh3/zn37/86rFdaTKW9Bugv2J2k14f/PlvXjyFvwF03sv1fCR++E66Ft3fNKlX0mYSt+LO9//qr4OrV4NuF+5w3BOKMLp4m7OeuRjFNUCBIYW+cFISz7q3HzdgAmkKULBjJr24iqrTnr76wgtf/+M/nj51ciJJoqQHjhCWUrgxA4WS+DfYIe1d4JfTpVDkiivqGQzA2NtLP/np6ddel6qWqI9szRJtmTikoIA0qZHbAAoML1m97hcW2f0bjQZ9SeW+05058cbX/ugPkfd7o3ACvaHXj4JKDcO58Yn1PhdGc9N8NM4cBPVqtQV7z0yffOmlYLYdtLsaL3MTKdwBn4N+03SWosNNK8BWSXh4ob8MhdF2eNtjjHZ6pn/q1A//8quv/fifdgdxrTMb9nsNJgkgKTVcFYR0cNXRHC4X0RQFFexO1V7vwltvBjOzGoNzoOdTixz3I7Vn42pu80EfNEgxiBHtQdBuv/zDH7zwnW/tr1XrcTzGlVkDMlNKI8IhMsuzDzaOjmuKWSbUHrmLKcKrL/28156WPod61gP+vNQ0CNwI/Wui6loDbyboA3ocgIjCekLXdmam/dapZ779jWjq6kSajmFQ7GtcF4HPSBLDpOC+F3eGy0JC7ph9ZANgcHBYq7791ilm2Lk+L90GrQfDFMyLtVVjuxkDrLVeR+FXpMCmgT6gnytMP6nEMSL/r//wD06/8vJOWoFujJLDYC5zGbAepph9gBijS1Kbh85REjQx8tbuzCjDzL9gNACYu00U622psAMFH7qibOIMDaldv0xR11sASgYCBGHSx6Z58ukfXX79tT1RWJ1pR8wHqIZ9FB3G/bH5aGa8ZiuA/jVBJ9M0yslvwL2yxNguttcwglHjbpder/IsvYeX5jLd30ceNiAT2z7KTSD1AT3Oa0p3SHRNzIyf+/a34/NnmLyAfbMeRoxtITRBjRsWi0/wGcJalnxHeUtScq7JP3lf3CYyaOpbkf8hzPzWyNJQSH1HZ7myy9LXYICxG1Ro+Famm057+viJkz9/vt7thkkcMk0MpaEPgrRUJPZpCAYmDPvU0+qVntWHvMbqZ1m65jeEmuDZQz0D9Jj5ySLeLvh5IRVfj+as2NeY2uizZSiwCaT+/NxrDKv7nb/5q8rs7BiTkFnJh6ocdzUrIXdDaNDMs6a/sDr9EfAOz2LX0dwH9W2dSx33We9WSttQtlrl4mzS+80AfcQ8+JAWb5O7tABl8vmnflSPuyGjtkwNoBCo/5gGhR8TmEwV1gpXTfzCDVvdINdlcqWJYqi5MaYV6DL0k0+Kagwgya9cD2Hmh42Y15yfYYf+gMwDHAAj7l0+9WZlZrqWpMhM5t+jMbMeChLAHugTsvrnoOHOIHTN9Fn/DwVtbDiwZhJ00mTvoUNRa1y4Nw1t4QQILSweuQ2gwFDo+mXZ5shYWNIsjCn6x557rskUfOZmVlnn0WU6JNPiTV7aVGHUZI1qgSaMQopJ+vViTkrHYm6p8IuFXdzPY14Yj0/I6TKgVal1GZFLKu+6975qq4XuY1LfY6N9U0OGGWiE+sXpux6+w05bpP4cY4BUVvJ1O5NnTodxhxlgsgdqD4+wHGwuvMFnPai0PnE4o6HJ0MftMZUnrMfV8NCRI8H4uNQba6xsGk/FZvnLg08G2r31ycgoFlFgKKS+Y4JxfBr3AQGtDmC2YKqfxKzi08qq9uyld96aYDV3ezJGZZbWbIOgYpK5Ss3mzZuPDQl4IowaObdz1dweV6oVR7Y2N7RNfrJNGeaiW/ZOWxuqbVHMRUsiDmTlPGzJHxAsHSdhHLov444kOqXt1ap33n9vUAsrdZals9KeizGBZVvt2BxP8Gq1bjXcYkYki14CwgknEmW3eVKFHPGtAGyNJxT08Hmgzfl3KKDvpCuoPI+S7m/o7GPOZ27CqTfeGJ+dGWfxFRK0h4y0xaxl4M+LovSozoBxAYuzWNYISnjqa08EkYJRAQFujTW7MOfuw9qr6dlZLQJjNkXKevhqKoNmFCfBbD+dqgSPffwTew/fFtSZaWphNAYtbhTDF3nW7SozBAeKpVH3iq+XvLEoPV5Pq5TkIh95cNMqF3m7Gb2GAvpeAdrGQ04StKhtkKm3BayrmELC2enpMcOsm+3hCtl/sJeXIFLWsw3evM8A4ehXBGpjstn8sSXEM6ywEMp8vIxjbSNv7VviFJBcjk7NThEXey6wrgbPkBmlFC9hwW610mzGUe0jv/z5iOW5tboKCNMNOM3aJ89ixqIpyUsyELB4sAFs9fpFvzW4bI83IzL5GPySyCw2k/UqJy774w+b9ToU0KdC56FNladeHrumZbWYBWA7qfYs9pyoH6VxlzUpdSaqmZa0PCpUX6ZpgHtizCbJsOSFmcPaNEEmUgUw1cWAOw8By1Wwj54ZgGBU4cLxUquz4jbt9GJNUmZlQT+p1RszcX86jC720yf/5Zd23X80aLaw3FZDjFWkSP88I4WX1/mQtkj5Xy4LA+/gmXl6y8DrJR4giyfhlOSqljZ3PHpNzKup/P3m+zsU0BfUoOscnbP2nmm9ENpbAzXizF+Y7Vw+f6Efy2ZPxQAooNbva7JvSD3NF5xFfSjqouXg3jY5w4e5Y5KoSp8/SosJn8hZPRQfr3ijFbUKzvdZGfxj5RO2ROOpRl3MUGmlE1SvVILJMHrfF77wxG/9VrB7R1KvV5H6anwsGs8lXGjwdUYy3UyNEfAjjaWvZBotTuWiPMuGLL0tFU8igJ/l3pPmJV66SjDYnaiUNZX2vFkvQwH9pYiXSR2JUJPHbJqZJDNT05q+Jklo9UetgHhDTKHHL4ywUBnAlKpQtVhVLCCO9kBbUqk6mexmiNHrQvcl/PL32u45A/1cW8E8nEAKDh0JtoXrV1uNdlC92utNHD78wSc+/omvfCXYty9t1Kq1Bnmg+VGmCtwLavo288lv/HHpqxbo55LCimARLh3e0hC4Hd5KsXDKgJEq8/HhkuL15r8ZEuiL9Cau8sowJAE5PQNW1YF2twED8AP6DpNgkh6bVhKCOpEnEzy54pO5zJIjLOa4Zz4/swZMPZFf2mMxI4yDelvVDaiX0Fad81fz/B1/+C1zb8mxhaGKQOTiI6VIG6TJCuStX6+w7Dxojk2Hld1H7nj/Z37p/Z//taDRYhxOW8+y6oZlNxH70MJ3c5YlZut7upa0Ii/Yj3t3nj33H7j3QuTBVv6LSDcjmYXMGi67n2tGPRWKQ114s7BytMMdYkigvziRJO6BkcYzrT54Ap+2eQF3AF1KPp0BqSsCx/IOSIIP6phuI0K6i+2xNTHLLDI0KZQcppRpJEkrpMrCbvk47S1wUJwOepuCw6LhEO2LXggZgxvGdu8+cOTOz370o/c8/v5g1x7tudnU0lx0CDob2lgFtpljtOyOMqtYlM87M3jbN5RCKRqTC4vuL87N7nlj7z3U3HWZskg6eIR5zBaYLAzuArRG0iyT4k1/NRTQz2pREEYIiyaAXTC1v/ZsO4Nzx24LgaQ7i1FkAdSoFmElaQWLJZyEsWAkcGAg6rPPLOjZsedjX/qtuz/2ZDA2hmVd6YEw71VjNJ0Xmz8uxWC0EBhujGmEYQK7MkwyctUAcJPNZpN9NtNaVGm25Kl9P/HOliNaSF18L1Gf02PMDlHwJFr+ShDoWcEsMBfzL672kie5hVfztlcmv51oNFm68Ril7yNWzMMSHCy0ovRoi6g26c1wQN9JbyT0ylDdLuGo+YL0QtsaHfEDSHqcXRQMBPAttwUT40GrIZ5D6KNxgEcagHlueegTKVnho4xxaQNgJFjSACxjI8DiUZGrY20FkPmeshSFsRSt+PKClxzgdMXhcIc7/r6Tob1ajtvnZd8fy22j39tVLapmPykz1uHRKAQ+UtoKZxkrnrbCzVBAH0BQlxKc8wmcQxuUqDuaPyJ45m6lwyzvAKAjBuhxMqEWvQYhSo66lrVqwEhqHcs68YeCPmAsx7581MVbpLLYxrAMcIRo0gFJNq0IsOOjyPWBkMVra4u8f+HRsC8zofhIvKIY4BeFpZVTPAtcGcoLXmaFyNlM77Oxcied5URinVQk5l1p5DmvAzLgYQggzlNQ98q99e3mdUMB/YygqmavloyeRW2bQFalzCO06nXgi3nvy49CpdcfvlJ4TPORHsKP/jHdXTxtArTp51marsFLZuMMrEvcS8lR9vkRoTLL1DoaAsxIiHo+9VLC4SVpSuNgznmNyUg8wZs4dWTEFmqMSr1fD55dc5AOeM57KHMxa5d560mWycYUEhkKxGCqgT5Ln2nFFM7C+h20y0owL4XN+jgU0Id48wjrlYqnqoIHVWC5suaT219LhcA5QOcH0TPwIz6qkGiJVJXNJ1a/PCgZOp7AQ37F0LCp7Y4XV+EX3tu5V8QvRbykvDFq4LnQFzLMaqg3+xpWUP/CsqOSKecZNGEaJD/5IKiYh6xauTyugetyNBkIaA9l0ZFlA3+dSyDQMxEQ/if7+Ik2WkYjVtEr/qMQQTfuLKfQSm82s7v50Pfag8aCgepa5Ib0RtyFcmbQ4LA60isqSwbkuZrBGBMqENZRZwXwajWrWu6nLH8ZgFoZzYsn6GUQvAVtMVfuIyDZk6CiVfP8Ue+W94axLD7u+cTkLi/YPVcnILF9onGn+aDtqxSD18VzY76LItNjUBYtHuXC7sm45a8KD3CDRKAWkh7wd6QTXqoYVyucwm5+d/OhDw1F0NwV4gQ6F+DI2CALYx2yuS/ku3xdSH9QKuBLARWzpagWHkcNh8xlkHxlSFjaDxakUtNhkQ+mZ98VF4ePoE3E7ox5XFMh8yqIWq4k1JIatQxzRcvZTOgnCBGwq5ygz1yfbgBzsgzfNi4vkpu7MTiqUA7l8nUuUOmuyF7JT7fEL1ow6kwmQs6686uOqeEMPKYeMctD3Kxsk1pRR/Oi2VyPNx/6BiwptRlFc6AV9BVOihbfsFuQWNUxz5UgO+8Nj4RX9BYbtSik0hAIsdwpLmMGwF9mxoXRLOlT5FlQByl5trlnNIJEmHqqMMqEHD5+mxWEiQ/sugz0Z2fSq1cvvn3qxLGX3z711riMoTA8iET4g9GV79W6LOEoHM4DZPdqaXX8EXtijU2MH7j10J133d3as7dSi4Jmgz3QOf0uCBmAY4Q60wNFML4ZrA41erkrV828YHmQm/z35kNfBNDpUVKLvVWHUlnF+QR2zS42rdjUzIJgQEABDb1UpH0kZWmh87chug6WQgWUE46wubgmj3qtpQv2uZhHsxDW5DIEF9/Y8xzGJVFtZrIF6Nn57DACm4cyiiuGJD021ULYs+vy+bM//ru/e+rv/y6ZusqehHzmipD1ZOiL5NDXgNgy90VWVr6BvLJ6SRAo36QH0FlbcOCOIw8+9vh9H3h094PvCqJGyqZBjSaH49Eixb0eO1334hjeZUiOsrDOwexRhn5maFMo9e8RW2UyrJyZGxZiOKAPuQV7KnLNbi3fmA2ViqB2HJp8TH27gBKQ6HhigNxwBxp82kWjVtcNPDfbrYL7OD751FP//Xf/n9bsdHDh/I5KOlav9XvdlKmfa8wU7EuPBZ73LX6Wv3cR7t1qyR9p+1FciWZefvnHJ0/+4B++Vtm585e+8pUHnnySJXIcA5zWmUkS9Tipqd6AezudDkyh2bQsvJTgt36amgU6ZhrEcLmwxhJsePBhgf6GF3TJBBZvKJYMvh4vtMJGJk4gAdt1kflV1PqLF5/52td++g9/Xz9zhuWXu0BYZxaTE7tOqAdiLYNaPwRpfvW8lH3yezg41bg11hsb02BaxRL3WJUysNp4Hu2gGCFlK1zmWFQr3clOdepq98L57/5//+nZr3/tc7/55X3vfqgSjlUa4zCIzgCuMTJC9BovQb6ziTTQp1z55AvyqFZ0Pci2znFsW+ivVYyuJ93pdtdq7H4uDmDjQek5M1Mnfvrj5/7h79onju8N6VqmabcD4tmcEEVCU3zUWKlnMHiVmWjQJwtD+0X3ya7gTl3pJa5Ezkv0ScDq3XQUPjim0utLnamzS3taZfjvyqkTp86c+mZ39uEnn3zwU5+UsbMxUavVJdzVR7LWRV2lOREPH9o4X8lrPal4vXFtW+hfL+Gu53vJVRyaBTjhttuefO3YD//yL6Zee/UWpjF3O2zBCV+gC6W9gJPnzFKEhwKv8mpGStm16AwtfyVO2gdF3TeRr54HiEVPDxohk2Q51b1X7SV7Q034e/OpH0ydfWf68oXHfv2LwR4tkKhEDRRF+skS8yqP+i3qOxAjRZPHkDrIMnI3mgLSXzAnggyUDaw6kzOv/fQnb734/O4aS1raTdSN2dlWLQJ5NeyMmspvuM+B5HCad7UmQQWZ57+oj6Eyh2XFlipocQxMopaIXME57OCrYzniLpucNqpp1O+F01MHa/XZN0489Zd/+dzf/HVw4SJHe8gwyn54hnhTdWg6MrwrS8bjytbwuZHUvwl1glxkjgP2Ju2034tPvvDcq889M47W0edcXdlA642oyxnAQdCqN+hE0joATJlLEKR2XfR+8TBmutVkbL7N74lZk7+FdWDKvCamwQq88CIMKR3MjF09Nm2v19Kw1mZfR05Aqjf0KqnOXL76jT/4o2rSfPenPl09HMUsOt7BIcVYiYghB7s4QCNl6gkMpRtB/yZUi1Di+nHcwYr//FNPv/PaqxOYPwEfp0tjgcUuqKYBU+csf30EG4ZRXnOlYtX3FtBFvEcw/15MoZl1msUkxwfOWhigOv0esxvovMKR8CunuU9EtQq7/Abh3/+X36/XG+/63Gdr+/dz1kFa00H0mfQvjYsQu2dcL4fJDbvCQ00Y7RbU+noTUfWPuyG1hMjXTDVSxBjI9irY7yenI3qXiFmWTaJxuDrE6K/triUKSHW2HK71HjzbFkMq3SL3kJe4YUW0HLCvvrcCoqroQaBH0rMnaL0SogKRMdYYN2s1juPelcT/8Id/cOWlVzixOG234RZ9KHuRHEZPvothHA29FG2BvxyK67BDfyiItN6Z8BmaAlwl6J450718pa51vCbr1b3EmQIiJFn7kMFpIB8ZJwz4rcMD0WLflHneMoKyzr5fGsXVsEsmGBjQYhRiPO01Zqf+6r/855nXXtcwIGf7AXz0KAydKW2A2aVMcq1DtjYgipHCswFEXSlKBs8Ah9CdJJPnznWvTjIcihc2eEyN4CzrbmKckcik5bNp+/OiXacGCjFPc2KiH82EnCHZYTUtViY/1hlA+5fxRwnSQeDGOt9seMp49KVjL/3ie9993/59YXS4MjGmwQpxK3JeOwhF1ZpiHko3kvo3ulpkNQc/QAQruE3aqXZjloWh2btY5QZZC/p8SgzI0Qem7Vzn1aJRCzIvHs+Sa/m89Wk6XDP7DIJcfQE5wuCP1GckjMNsol5nVyV45ltfP/7sT7UdKt105vrb+IAss9Ly80j8+2G6jqB/E2rD7fQCeNCfuTrZmZqhGoAUSxFtGp/UBltNRgjJTDCEbEbuXueVzxfGoPIrWVod0kJj13zxuiaz2gxOGNFlvYw/DO+qE1CLorF6gz0wWlHY4vzi82de+uEPpl8/xi3TLgiv3oHxidqIYRX72xb63ipTQTfaCc6FLKxUz589NzU1hSLh+TD5St7UO3Spr8Zgg50mSihP2bRMnjxB+EQNhdaGSvvnESf+YMCLaZ48xHHYT8arwWs/+cnPvvGNoM1gXBToiA+9FMdqvoa+GkI3rPm6caS6CRTQvBn6r2gIHPFbjyqciFQtVg9nghn48NN6ZFMbEL40C6u+StHWzIWVr4rTo8VeCfohPAYo665WGGXA1qqxBg1zZRsYYfOBKzm8jAPwCE37UEfzmZ28cvLE1OsntMCA7i6MQu5hEu3meOPqck0p3YSKX1P+Vgy8aulNSRWWananqrHqoZakWZs8y95t8B9SNsWGZPoHb7t1fMeE9iJ3J2HJ6nTlAI8iIw7Kjbt6Wq7zcOUR9JK6xr3gDrq71hNxixPoxw7b5cxTjn/kfIOkN1GtnDv++i9+8nQw22ZtjdiJjosWuMyZO4uyDMnNZrXwCAQ5MLwhnk9Q2duAj13U3dKNRJxGGPWQAcvjEcgIL0zKgqGwG+VIXRPiQRc9wkYdeR/Vm+zNSXp6wzXR+BEPMIaypWXCa3WKbfVOnQ6zQmrcCgJk5dcIFxnFVFlEhQ8zfcQOmPk1uQgdKa1zYnGSnjt75u1XsfFfZlUXpk3WOvaYc0rLgCu+H6abtdFomHK+2ryUGYNqLbt8o0yDXfnFBt+L6wCETswNwuZY1GjEfa3ekkqNXDWkWA9Xs5u9sdrQHMHrZMlExUA64gKceKHgPgtlq+8REzAG7QLmKdoszsyYOnvm6luntKKSNoPXmg46EOFQPWxWqX8dRKTybjLDIyyDFNwzZlvffei26sSONKol/S76P2BBlqrTKbs/WZXxRVMq5TzbDtHli+BhVkskVHkSVEMoW37mYE1ySQeDLBnJFATVR2q8CiDQW34zdAP0mYuXjr/00nuPPqy3ahn0amjBvzwFczJs8b9rA8r1E0MmFLqw4CeshXv2JvVmPwq7IAnRa9qFS1muIG+D9S+VRkqOHJv/2F8usnXi6Vd4DsmfUYmw5N5DZuA2iCP7k+mZN195FZaQnikGUbT2Mo92mP4WZR2mTN34vOT1eqNSRq1hqw+M+dVgrH7grjuaO3dX2GUfaY9ctWXKBjskJl4IYoIWNVW+Xyq/HmaVVw0wSDkxCS0uYGUjpsw0jdmZB8rYkJaUHxlr1CCRqnBtXKnPzGEe6kxNnj91ChOnzWQW7nEj6DsdRlcoIOHKhmegKIhC9qB9/xMf23v77VMsVgf5dqQXCANm4C+z9Www2RzMbtwv8RiozSS3Gh+Du2UkQz8FcbluXAD/JOxZ1ZmcZBYnrYIpSlKKNjjv1x59IUuuPYqt8KUU6xvo0OZtEElLOaLa3rvvvv3d70kmdnQqqD0oCxK6SFNXftzIaHo/Ksc6/zRAm4MTBFsnWxZ8EucHRQA91nvnAbogZIYXLHK3hV3q55pTrgjPxqWcD8MuElpyWXDLsKL/xlb5DUTXWpK60UTQIStmMzGdHp1n57s+9JE7HnnfTKXWCaO27YNLCNAkpWItJbnWsFJ23GafdTZQa6RpmTZjKrt0M3Mu6bklgH/CPfyjVV2MoKVJPDur0TrC5T1d/3DYrje61oet/MpP1hvL2nRqdEMzCR44PRd9mgkvAhzHglWqE/cdfeKLXw72H7jUT6bTYJYpkYwVMUGMGW52Upgm+NhP+6Jd6711UNVzICqp91k8yHXpMEyl5mrT8oVbRDtjyQPbW4tWAozJfrUJBM8NPtYVTnoMcbGixbu5+Tr3DSXntUc+gv4A7aRnbLwDMSQiiU7fkUVY7Ow3PrH7vnt/43/7d+GhW6fq9dlarRNVOmzLgMxvNOgRc57ewh8zxdb6I07i4SuunezzapxWWVMC9NX7Zto9E6exLSHmM6BLASocXGF6V+GhG9hRZh86J73ehXNnbSdDNVeU1MIPBB6Sh21o119AeQOiw3HBuw3xkCZgyoREKwjDrJPUqocO3fHhD/3rg/u//xdffeZb39gVRq1IK7YijJ50CXAAcZ4lqmigilcG1nKmXbZJROMMwWUfXyRQr9VQyEnLlvDCaFj0K/CAUrWUNapVoRPOzigaYSCahYDGk/z14+7F82cP02h5YnCJlqQNo4QdQV+QuMGOmWsIVXDPenCUDfZd6DFlnxkv+w/snBh7POm974mPvPrss8f++bnO1Oxk25bnalRLAKIvalyqe0Sq5XwAzEVZpNWgtwilsFoWXrdus0c9ZyCWoQPWpszO7mi0Kt0220AkcZ8liGRqnsDmQ2LmWDPvDHCvqHKpoTEs85FVikUI+DMFzhIv5oEWGRuSm+0BfdUBde9jojeZ8sAFNLDDDgM/SEQUD02OZ2PXnvavrIy1Drz/URSGnUePHnrssZOvHUeFQJquOtPOBksGdwTz2pEN/tndrYUR9cK5Y9/9bo1nTK7o60w2VlcAdd+5C5VGMYv/pMNoeg8hADeh+dFm8CkLGdkwK+KUGvuKNoQWawT9JStjCF5k6oDlhPsV0LMOGUZzYFI7E39twqbwAX6Q+tV6r9OOJnYEnXji3qNHjz50lJUfYE9bWUrn0HUFtyDzfGHYtKt97nG4pxSdLhs7Tz73sxe+971OHDcqFXYDkvajFGW6QdF37YyUmaxGx9eykCWU85KUMe7pLBAIke9khEOIaC2su0Lx1vH19pD6KxIs16GpqhXDXn8A9r9EIlZZ88RavorUHikPCGBMhHUOtIvsRMcgjTuVejNhP9paQ7hfg3M+kWynadFVUCzdKzZUe7bZtGMsgt5U0o+ZOGe9UsM8HwnLCqR5CbySjwFdcTnidUJq3v9gLqBG4SgWuFeK4jC1Y0prGN3wQH+BuFqOXFD/upysK4ogj4fqWVmgXleK5Y/pRyptNuoA8dp+h43EtRgEtKBOdLs9tjNg/WuFnW04SrpuwQx2YpUcoA7EFa+CIKC3q5LLQZl7kpEUIxJ6V9isBx1m2wNrWXQk96kTbyL4m9OHFoDeBo/yyWFtfQkRU6Yh+8MrAmhZSx5G/sPkhgL6kEg0plrsr0gmAaI/eEA888FLs2GTVDoxPUUoLf+s/RVRwQXXfCqyfNwqJ3mkhlfhfSzJX8lLSfIVPxdpBMHP6k8RbIhzMIRsUTznpEuTNkirNYQ4FkHxUuXnhajAf14akvx+lVezzlC4jLwWn5JVORWfYm13oSvaTsyYlIQA1nolK4foF4h1C084ZTz/+FhPgChworz4sKfZ/KbwgHvl3AlqYYbrMhTQL0gCOK0XJUqLjqogQz93Dkf54UToa3ZeV3xurJZF4/Fec5zr8mE5PwIlOSzF62/XepV0x/nVY/NIywW2ewitn9SbgXSLLJjSXzwtcpPntszSiwQbEq+hyKUTHVGO4HO6CO/mBtFALwuP7F2RdWT66twAw+gr1AAJtMzfWm0ZNlYX25YKtQwNebXM281LhQI/N7MIBZo9E0I3Il9CyFFuC6K90S2OGrdXBGOqy+qzjtGOZoOKzBqP7MuC41Yf09YM6fphIXe2ZiHzUg0H9FE98jYWIew/cmhtr8llHghCZk2b1xOB8iaCu1U6WKUIyV0mzNSh05M6FfBbEWJ0s6UpMBTQn0dh00IKBDJwIo0/4wBsZwWXzPts2UfFsMDlnDDHDwRzflsQduSx1SgwRN3cDJ1zOEQqI5f1b5W6prfXC6tIE9AXQT4BbWZw/gGaEyrWcI6/5Hkc/V03CgyL1DeIC56F0HVOGACi1CKNsOBygb02QoiX6E3n3FWOpFBwiwysLepR6M1GgWGBPqAugMhgoPVwtbM7u5ZCUkyeLCCStbgn+U1IGKMIvzLNGS3SSJAm5WYRMmzjxiLitPFODNvcMF6DdXvlCEchNj8FhkjhyYiJ+M2lsgt+8YT0lTBgm8derz01zTCLBxb6s9vlqkLBcqe4ND6vq0Zk2AaeKbXwhHaHlFnTN4bPg4/+blkKDIvUX5TAwFSHNyH16Xwinjtxf2r63Dtv2zEH+sJ5Y9FvF/XUgFnuuG9zNDlMUdWBJiCeNzQKS/QKFo1v5LmJKTB80Nd0chFU8hzpTg8VkyNim5yi+Cf93nSbv1J7Bs3zy7CBv/IrURE98p4dIaOorq3C8obDm5tl4tnE9TzK+gIKDJfCI71EuOe/btFC0Pd5QBHnYGX+pHG3Mz3FZBIbgp1TYwgs9shBzKM75yKCS6LDTGna0y7CIT2GqF6/7fbDTJX0kKj41Ui7beefjv5ucQoMUU0L4oPUFhBNTdcG1yg8/X48O3OJpZ+ahbZai2c5ykz8wwe2XmTHrj2KX4AXHUbyvkyrLX8/JFLfJyNkfGh2Rpu8idQXwn3XGmb2Vivd/tSFi2xXOWD0XKmWDOnYb7TGqEA5k+XZgqAYHma2LcFQsXAsIlkpytH7TU+B65L6Lqfnieq1ksQimRtDdft62dZJhJlmg1IyefXKuXMc0KqeQL6+ZDUpwltCtqJiMSpfa7GFZuiCchP5Yg8PYNfVxDkKsxgFrgtRi0W4UX4rS30Tg0qeG675VC8bG8pypVVomkJvDgAVw0PZ+6X/gGEfQmJ7xxpLoYEzS5jQZ5D2uk9S9mhnM0qt0OsHcefiO2820l4t7ZvgVz83SzVLYj7dffRKWTKHpO+TimaSVxutRmPHzoBFsXmXQV0LMygtnd+t/MY5f9ESFq+gohNzLlgmgIzy0kNNxJTER/Ht3CfDcTcfK4vmSkK25Ci/9TKxv9gpA1qkLE2CQvq1FHaF23zolKOJYS1Wy9k6PdM9HKzoId3Zjk6o6XS7Z06//Owz42GlpqkNg5hfNh3bzVJF0Hc420CPNVAS+VpVlBFhaCtp2cJt+EvZGa6pZ7XhObu+BFaW+orf14uIAbCA2/lhBhNQgwEy1I7wOL1j1JTgoY0NLcyYo7XMbcSoL+EtuAfYw00arpVBExksTzYsqEfI+6Aze/Hkmy89/fRerD1qV6TyrNKxMosRAuWRPf3YGY+jL6OoNTYRRBwDLgrojTFFzgYDrL7KVEbBNhcFVgV9RyESXZYVbcSSaTS2HxFwtbkGgq7Z2gViQgBhlKLsapBC+wD2oFvXbDcYApuT3mMrC9F1ZHnnVB3kMRbN6RlMjsHMdPDmyae/9vfNJKix3QUMkedhNeR2cQ6nSG3Cvom+32juOXirVn7BeLwYQX01dNxaYVYFfU34AmyGDx0cb+tcwZPUZkEQsObiEmDLId9dzc6uBi/FYhJWQh0uMdhbeDZ091OIq5G0GT5G5LMPd9ypwQCcrXnqra/9/h+cfuafxzm4RpuVeSqWlF38eRkAw69kk6EBdhZmx7P6jh233Xkk4EgfKfdqQCgIjqJx5cTYuahHd1uUAqurY2FNEJdKI/iCUMGMPQUwPQrHYB1gI/41CYxdNfAE5DofqrjKi03l8VIc3NvV5S39S/BGXxa5bMxSZedHOr7MJJucnDr++g//6q+PP/VP472YY3eYayCj5FqcMG28CO/BUuzhWhsb33vbYWk7yuiA254LFAdIsD0eVgN9HYXAbmHssSJYah6Mqes8A1wp9+Ae1NomCd771B7Cku+yGxKgALr7MBkTf4c+MWYrpitBN9ZmGDBTHCeT073JK+2LFy+9cfxH//gPF08c3xUkTVLjYErGd9XfGIDswMOCmhN/cqCfZq2RG9k2Ob5q56FbzbxjpilUs4wH1FlfEMHIYwtSYDXQF6gBhMQ1GNIUSqRzEoDvzozw2p7pd9pJu8MsA+0VggoE1mga1F3NSLb0vbiIyTT9OL50/tzVSxfDqMrJHKdfO37mxOtnXz8edWYnwnQfm9XEbGCd9rE+kgeiz2POEljxD60KuRfnBkmtFk6M1/ftN6O+IsO7iMBZsngc3WxVCqwMfUlB4Zn+ZwN5HNV1XDD78KrrefVS7/KF537wvZ8//eMzx4+zaymdV99Mz+hljQMfI6JBnNwi94KytRvOMAhmLPr1lDO4051pUq8kYT/FhGSGfAS+IG9DuW4uslhXvFSjTtzlsCqpS7Rgleqtd90t8w4jBjCqooStLcKRyF+RmFslwMrQB2k64EmaPJvT9WqIZc7MuHIluHLpG3/2X5/93re658/uqtX2xjF4hUN67Y6j35sJkIUnxkVxz8J7mhB6rgCOrjNb/JKGWI0jOjDrpNqIT30MgCmtSXpOqiOIy0J6NRXB8hTON2ZjPZqXaj2qj+84cPjOYHwcXcvY0uOAOdfCTqtJeBRmiCmwMvRBrKsKGDFbrVrQbQeTVzonXv/z3/vdqydPVM6dOdisN2gEurGOlAnr6hNohM+MhpTcVYnFr8CZOcPSoPQBol0MJmrxAkXE7S8eB8NngN424lFfWIFW7cB3VIvanW6nX5ntpbfcfuSuhx5SHyOzUEnsm/OmKX8a/d3SFFgZ+hSfTiyDVBFjn5wL2Z2N33nnv//H/3j+5Z83Ou2DUZjOtBlbnag3mVYMXmWdd/yuTDjYwzq5Wi2o0Ah314y4QRGSUNaGUFhMEfmu3gN69uKZ60WsnIiarYCJEjAZO0tOppWH7r63dehgqjFjvlaE1nWYU/dXE+cozGanwKqgL9UFYR70Kr1u+s473/5v//XCL17cXwlqlWorqHDoTcSRODGymA5uxFQcrPLeMzYdR6qOYljiCrcAa5+JaeFYSIufUIkQDvGyvX752nzEXGslOknHvV4ShXG1Pn7w0KGj7woa9UqDEQIZe1yfkkanPokxgPHEWlMZhd9cFFhtE4+2LZtmt/P6z3724ne/txPpPDPTYs1HN2atB+u9geRYs4lqjrUfI4rbCFe+GtIQv54P+rtI9IghJXq36iHAAorZZiII+oAYVxiOVkNrUuBkM7btnu33J5Pk9ocePvLQu20KgyKUI0bDvT+NrtuEAitLfQlsBCNKQXsmuHjhmW99O5qZYtf3iUaz1+8CnzCsCZ1R0O226Qc3Wk0k7LLk87eGdpv3x4pwhbeRVASucGhMgFUJlLsgFtxNRHvMylIpDRgGtxRL0AfhfVyt1nfuuP8Dj9aYwsAu3hh7OM3Bxh3KkVlpS1GPbrcoBVYl9Rm8FUJ6vWd/9NTlU6cmYIQ+5pguWI3oBDDjALBzBl+StMYaMVPNrtW5XqQerjlGXsGzzVeWsM891xY7Ep35QJOMPzRat9179M53PahdGDg6xCauEVcR89ri3TahTdNcUqwUZHDpUzwO/82S0C8Bgr5nX+dfz3bfPnZ8+sJFZhnU6N2m/bpJTaJgpg0Sl/ltvZih3xVbEr4YTBeIm/iHXvSSmbtMr8Emsykk/ODO3oqketRfoVZDDvpKk34wjzLArFkUNhDBG1qjOA1mer1+ozkb1h795Kdbtx7WMDSzdwqnTrk6GOahlIs32+rGCLl4iZd4JcEEpfllnzHpUDOsVB9qrFUBcotHerN9SwgYzEqOLvMVKtJ0enry3PmIKTR0BntJPdRcZXBGyZgOyeJBQUYFXllCDCa18El6zjKuoCaZLO4Jz3gCV61hZ1SgohFnhiI4C5NlKTNpettDDx164CiTF6rjdM7JrToYAJ33PC6T3OjVlqTAoPRdqojIYfasuXj5ytnTdoK3xC4aEPwN8lxIOgTx47dUNOvlT7rl5tWSxgzEJDs5t9bLTITjJPBa40qnP12tf/hXfq11771BA21H2WagjoaF0LQTsC/Yt6FitTPrlc9RPMNMgVVUs7Vc7PiXMGOnPQNsKI/N3c8aMkOYlBD8dX9TGzjPRs/1IAxQQTrTS3qN8Uc/+Zkj7/8Ah0YJ+poUAVd4ZsXG5JwnfsNcVaO8rS8FVgF9EkR1QDZyTFIcY+VkTxAp4wVOpOn4/AOZxr1XtL65XE1s6EgOYtMztcMUw2Uo+v1qtOP2I5/40r8MJnZJxedUZLUM2SowZR19jc4BY8RiAJf9q0lwFGZzU2B10DdYTU1emZ68irxnPgyzYlyxLkqPCAV50poLlije3cAb5D2pMQqGvGdJbhhFew4e/Nxvfrlx+A5NVtMpnBpxMyZRSJ9cRGCp+9u1g3sD62eIklqymzuQR3qNAWZ7XFumF1OM0XoMMRKyaAy2mgUzuWSv/G+UwwBUJIUZVBzIEDAKj4aU06Bebe7adfh97w3q9SCss0aL7rjvU672gPEEY1W+ohg8qGQqzlycReSjmy1GgZWlvkChZbKVZouV3OPIe7bDQWoiUxfoNj7y6rOPN5xQrt6Uk5GtxpAL6rV/cliFWS9fOP/2yz+XXoNWpkkWGqIggLdaYhEM/wb1BcUpxz2632oUWBn6IExTv2rR2I6JWrPRqNe1Xjbv6RY2XUfPQjhuHMGkn5srmhgADfrRuHzWtHSzanD1wpmv/v7vBefeCmLOQ+4z9KaOiabNqRRydo/g55b838giWPJb5+Kkk0xRbyqD1tDSc2XoUzPaHKEXY8+vRDUGbSkMqAL0iEl+qDfZT4byrL87DPUJy2K0qaHMXDz/7a/+t+DqZZaVMfwc+RkTTLQ2rEtLsxLxSJlww5D5zZgHRA+U1OEdaKF2iscwE3NV0FdJgmpzz27W9bHEKWYvG0SlaxcUztGfVnp9qUCM8t7gaisU88LeLyibqZ4Z/61K2uy0n//udy8ee0WLDXQkeD9CNLFKy2xTqD+mDlGevB24wQXYWslJ25StQ9VCRQxt4VYHfQQhg6C7djd272HTMhoz5qdJw0FVYDwIxNg8M/oDdDTVAtyQ8i6ViopktlfNaGAeaJLuQO+/dOk7X/2L4PTZoD0Ne1I3PTs4iJwSjN2FCKk6G7nroIAB3TpRRknECw3q0FJ11dCXRbx54M4j7ELP1ACg4q0bIDMdx8BuxsGlEHkdJF3DpyBYKxu1xkVZ4obdZRmR2FGpHP/pT9958QVt5EY+pa5ljgbNbFSE90nWa0huewcFPIP4AQxp2rAVz1L3kY1DLE0Gs75YTUqHUZ+wyjjo0fc8Ut+1q22bgZhuI7UHkAE4TQagqIvFcGP8pOFY8iCaFLn3R3FAnx1q051B8vwPvpdcusAehkE/rmHuVN2wF6E1YISXtnYTS3Bj6LSBqbi4ka6f93ELxXgDU73WqFeGPjELDthKmmN3v/vhBz7w/rgWdswQ7qCXbdAGszj3SjjLNl+41hyt4jugOq9tAffuyAm9cUBPwfhrSjzrUiI2Sqkl6bHnnnvzpV8Es9OYeiSQpLCpy+7hPYZtO3NzFYRfPAhC0B3EBPcXLlyQyLdW1zuEi392s31XBX0VAIWHP/v2P/yxJ6t7981Uqu2UBYtm5PFWD8QzM4Z78K+ba3Hzv7I4Vx+RN0RMI/VPXPCjymPQxCBb7XWr09OnXvx5cHVScxdUOzgpR3xhH81Pf/VJb6WQUGaBy3pBC4UOIT084ohaZ+XGuXNnNHRiYvAG6/p5xlfVZ1sV9CkeQz/asKke7X/owSd+44vtVqtTq/fQ+MMK8pOZnWwy2GOhYsoBt9KcfRsqsjL4E28M/hRAcpfRA8lbm/xdZcl4yBIVm8XPZBy0FW3WQG+aHzcLnVeJ5pJi2lHqNAv6WsNaQaXBBirM2K8k9X73pR8/de7VY1p+II3IJ3uahMq5dQvbebwuMuoBTUOnCo+9N6ohZzBIUhFeHRGUNEfl48mtKghdl0Capa/56vys9rSUifDigX5/ltV8NXAF/ekQxrxKE52DZt1Cj5Jwcqru0s/e+cKk+VeSLVkO3SLnV8Xj5SIqPmPNFDsFFj9N0LKEFEZOgdytCvpSDdCJoRFzYPbue/cnPvm+z33+fFC5koTTSaUX1djPjN0YtLsTRh4mjYkNUq66Kf2Y9aYfOwsWV9YNsvKRWaHaAJl5BiGREKDTi+mrMp5Ax6lLQXJH33r5jpPze1kdoj6ICQNVA70nSWbOn3kb6GPeyUfERAhq3ab3cyvybCvHOrtqVB9rIS/KzmkI6PHkaltjZO+te5eF1uyPRGzATY1TyZJ08tJFoVH2D5s3UqKzJ+FxKlqxXennLyzFck78vvhqXt+a+iIrQLocjMDu8MxfiVWkpqCdWBWvag5PwnZrWpClxU2UsnbnPR//yv84sXfft/7oD9txeyxNWPoBJFGyJcC1FznFWoSpXLAiDVReMlwqJLlBLeGbRr3GmsQ47dGcAHo270cjgSe6nGhbYVmh+qZV49wyvr3Yfi38lYv8heRVD7ZKk07n3FungjYG/q46MASRdMvD8Vz+bM57S9/VoomdO6UAhhxPr6kdGhcxyGQEZHlDqb5oe4Uop66Z9dTXw4tVcknwzsmTwcxs0BwP6g2dFqJq1hcF7vGSIJbTVwKuVQDNisgPOmmq9VlRe3P1qI/kFMCdB7O1FjLHKC1P0YQ9YbR/mf4Id0pIiWgAZ1XQR/2AWbSdR1RNag3oE95+x+O/+utHH3jgB3/7Vz//4T/V4u5YowGHmFTWuijyoDJYQ1lcJSHMQWW7zR/RZ2g6dGREvyH9Sec2N6MazVYrYrcHGgD8tA5YS2F6XfKT087jW+Rq9M38tXSYXfmjai3oN4Lg7MmTV995e+fuPZJM3uhbTah3XP5skVi3ohcI4wiDes1EBrUGriC3LV7Li+tUQXIRxpScjEwoGB5Edc1h81CwF7eY3XXhfLh7X9qJ2ewxj2ORvxm5PQ5rHARNIXcO9It8ttALVQz+Eeb8XYkxDGcWLe+USe61m+AqoQ8tYBhCszOgcFwNU7TnWw7s2jXxS3fc8egXvvDOa8fQIrozM2xLSIAY85a4TfnIeN3uFy2Sckzs/WT24tXpK1d6qDpxO5ltQ1ZWAE/1euyLqUi14LDXpLeK2gKBFiWOSSClSurZH3E8fK9T17XqIKlXqxfffvvlZ597/O77gnqtQiMjOSFym9XKKOjfbrnrIjSDrPyoXKoYkdZB4Bs4pBXkSnEmYjVSqXbbYmFyuFGMmnCcSbYyhBX1ejuT4OrJU3tuORTs3suud2bohDPEWXxt2M4om4kdzxYNA6CkhoRT+ID7RaQnLz1dsk0Yk/FZlgxvSkQR8JZboZaHAi2KkLQ9klVJfSZroidHGsayz1DpomZQaQZjY1GrdfDgLQcffuSRK5c4zBmRgLMV5bQwWS5lQrR72gTeUi6FId950RAX7GIST3Xj2XaY9rsz0xdPv3353NmLp98588YbVy9frrPnIZ3sbtzuxXXNOzZOWjU0yTvtER0gGhCal/70zNkTJ8y6P1aKw/KmxnFOZpTebt1bAEhPqN7YtWdfynbZUlEGBraRQS7v8Vf1mePGYeRVKbErxAZNLu3pZ7/77U899EBl376EXX6bQEXfrFhnHqci9JMZ+EwVLcGEw7+46sYjnONP8ETFiWskTIVv/RcDZE4bydP4W6slr1VBH3kQs7wb/R0TJ5ELt9V+r0/HvtpqaW+PRrM6rsXeZNCgYwJjmbKSL4UkGDmRKYB8NGIEMzOf4NJkPwvBOt308qWXfvazN158/vWf/SSenGwGaR3+M8bNy5P99aTmijn4GtjDLmElbLC1Va/Hlg+z5y4Ek9PB7j0QR2Z9yS59vUyWB6PcQk9UBFspNeq3HDx88QzHcTO5lZEbBsHVSBpJtEuA99OgkYFJeoPEuF4TJhNF9MpY/dYM+r/4yY8/cvHLzQP7qqyME3XFGjgLVxJcRm5/lWHU8G1pSfBbeDu7zWrHktMdoQRDZ4AsG2owsjRUoVmC9lLHqOmV0KZRH2ON1UFfoK+GaMzY97nDugUliIH4+ElnQPkeGxOjlYqY4cgSX+JeLCToE6++NT4UoRA0mEvjyq69D956+4Of/NSPvvpnL3/nW+3Tb7P1FdokOzN7rF4ervMeC3+/oW/AUEu/1601x+IkbtJnmJ6cOv3OxG2HROWMLB52m4l8px0dzLA6vmf3ORSWROTFW+gpkTUjOSLLKtkeRTiCyHhAJcqwiWyK4s4sM9tf+tEP33fbrdrlbpyw8cqpDwAAQABJREFUQDUjrKGZsJnLEE88jh2e8xD5XwsJHsiSMGt5y7gij0XZ0PeKzbQobgCWI94Kont8soAERb/77d/+7bkIFruzQkp1QsuG3RS/ecFaIg3aja4WrUQ4eSNZbhjbsp9eLXFPLulr60q+SZuIPOu0cXhGmAhEu9b47ffcO9Eae+UXLybsdsj8OWpF0noApoDYSiYCuSMYserHRmvGtWj7KDz0VZjHc+jee3fddU9Aq6V2ULGhDtmAHElnMWz9P5TUDCCVmZne+fPHn//ner/fQDKaaitrBe/VQqsWRQ0uVl1cpVnkDt+MhvKmNe+fOHniyO23j3N+h0BIxxKlllm/DPvQsOOB2VqdzjwCRW5x21U1YLBx8BRX6Qe0K0I5MeQVru+USSnWApP0ERN2UsrMlwCCGO2EAc1ASqQrOQGI1s3M6WJEoK5kss+MDiSg/jmYy34mw0ll3q9UOCuoimfxKOOQiKu4k0gw9iRRNcYXaLKH8+499330ycc/+8uzQXW21/O0UN+LvFsTWTzNv8mZRGcR0R1DAe1MXTmDDY4lOOr7yiTLlWrgSl62lxO+mZnb2H3LrRznxNAKSzIMlrmczsgyR5dCuAjm5sCD1SXg4tdroVpcvvLNP/mT9rFXg6tTwdR0cuFycnWaXcww2LGwlXEV2gpTUWj5lb6DKoMWlaKfacSM6lDR1LmxDPsG2411ipFVUpClMoB62nUW5ZGdWq0Wd9gS0+EhJiYh5dlQkmMuWFnqE5eJTBFAYBNKiUc4oeQqugDD1V4QRAtgebYCDV6dhgteKQajJlHA1wgD5LI6s0gILDoakEUycQpQe/b4889HKEKygxKZWNjxSuGzG8sO6XsW8TR/ZdNrh4CQdJYlLHv2Hv3oEwGn56pBgOXUzZW44VMrgAq1LRxkTIK4F3a6//SP32ilvWrcwaSmGjAlQfXqVLX6M2XU6xXeUC2IbiKcpBbilujQLTHDMa77/a9/J7509fCBQ2ELvScMdPo3I5oslNMiUaULgvChj+c/HR+IJ7tZGnQFIg3yF4+0BmqB8NchJNSThqDVAqgZ0IYJ3VhjzcCGn+CpbKmZUCHgEtW1KpUcr9zNJZAyYB8Ymyq38sy9YI0CIc4Lel14lW6ytyUfv/XQxEdC9ql4gOzWahUMPxhMZSOrxbfcc899jzzyyne/RXr0XCgDN7Cf2GDxBOdSKnIL56OPUuypK5eViMkGMobMqFJvxEPM281R6mrY3LUnGB/rXppp0OQuWn+SwhlxoBjKIXQCX3lYwZ+xHTpVzUadAL1OZ38UvvLtb776wgu13btvv/++W+88cs+DR7Emdfq9sVsPDpCaJJ3yXpXozHIuuZWOnvwVwfhlhh9Ow6Sf2TKGrNZa9OPoKgJx/jiWFKnepj1mayiS3A085J4Df+FBWBIvEkdjUKo2tEeJ3aoqzsgdXEUioLLkl7/jr2e97GHhZFDTCC0xwu9Q1+KQaoXsMcEAYCnVLfvvf/97n//et1psKMJbFUoK0rxoSbuoDU9KsZtwkgRBJnBAS1qdnZnSGXicWEqXPVK2xT/G1aUMboNbwRwA1YOJ1oG77pyevMiotwwN86koUmRUMgnlVkIaackfoxOE5KYR1Tqd7tjYWDzTbtA8d9jHY2r27fDkG8cu7Np9fM8utiNmctVUe5bDGKhgM0oWcQivRJnZj5z8iH0YjfMdMLQw1iPcqVOGkL/3/qMPf/DxsbvvjODbRrPbma3Vm9KWUZewyGupjBoJsuiVS/750rK5OgtPlgFDhuAmTherC/zcCk+GLvdZgG//fImr4rFZU8qgdBLlM+N1/FlH2KfA+liTKXbfdrir4xbppmKmNFYxWxnVZ4rc4olYhcFT6rZ5zhVd3GVSQxWdUkd06fQ78YyPPCwezdb1RXygCezY8dBjjz197KWEzeLRJwQQdBRHdVZ2AajMANZFLnwQfOioyLBG1JiZmaljMa1yBHjSZI5WPMNZDNMXzlwmilrEFLOoWdemSez/LjRJ9EjoUf3UrBLhyf6Im7J7F6xsCEL7TL+Zz2def/X0yy9MHL797sceu/uxx+tj4/RTwmaLKDkzDVXHWAr4zJXCBKaiXFnqO88QVFMaZc8xQatvBVJySrTyVCnkYTAt2ikFw3nKXiL3ya5GSkoiRrf4+KPOQkXWAPAM7hH9MLgERViPWuPVJkdHd8W++nauSEW0TrHikRsjrrVEilSfMGOCcnXbHYZgXGZRBPxpE7Rmdzs5kQsKo1LWmw89+vjzf/PXvelJjCTyV9+SdliizuURnGCqhau7TDARbfnvBEPXQXFstcbpmfZ69DgRiWxyrV5zq9lot6eb1ep4VEeJVTPfdmM/4ohtujUFxpMgKuIkQce8482v8jT4JV1NigYBycz022fe6dSfnXzzrer07JEnPhrt5NiTBrYj4QmbK0WT3M8AyX0W72qgX5QNHUO9BIvFIrAcGmKyi7WRyrZQtAanDAmO9ok6ujCBDUsgj3llpVUQ/reah++9++Kzl+EMtDlvc1dMidFnIqW3Y+koOEkwZmNTl8W4+KiYqiud5uI+CrcNnFGYzhMIrE3celuIus+EWW290bX5N477+YRwxsDXJbRXBPDAusLGxLTP3EjrD7RSgjYEiyNCmEMNaBZMCNOmoLKqbyVTjmgvK6KBB00d6QMOHGwOVr8ytBqjsvMdZihek06HSV3t9rnnnvnqK8d+M0mPPPGEjjkJG4HmulsUqP4mlIs8e2H4fAUHabSfjX4eGMGpmECTqIbDmwcpFMKMeZqXv7CroFx6zL6RjzsIyDQbSiSVxxhVMSPsqyFTvzUgpVXkCOTW2G1H7uHEdDQsOvbkBKJbJtBU+Kkm/If+Yz+XJeow8IiQ4i2J1MN6Z2pm6sqFgGkr7NEgdtX0DHWAPb48Z9vhb9zvSuHBnBDW3/uRJ9h8YLI7q2OGIVglZEYWRLQpg6Kt8CA5CjWtRyACVemn2S/t6jh7PgPWzItlppf0AWYdsmMZj4wUMzWUzemZOMUV6UOvIrIfdQxUYTauzC1f6sfsQ72ibUFvok7pUqfBDhbPdttjk5N/+ju/c/r554PLlyTUMkfNwlgm9eEssCLYCjIF+PKQN++vqArR1Myammc9GyQBjrxGVAyFqFQ7yA1IazlXoSiDXZfK+NxbG3FU/NZGU0EXz5xj1goiAdiTRBZN3nwvFeHW8zeGR+9DQAT3vue90e7d0fj4VGcWOkOWDPRWEbn4s3palhDCWP4Tq5R+hX8upiSsTH9BhTF7nVjM+GfBlVojjK4M/mOesH2W6kEf02mj2x3vtP/8P/3e7OnTBn2B3iJS/I4i6lj/zA0V9I2g5M5AKAZ1mFJ+MYX0SmxMjbFx59g5THtRBq8qrsXg3sSgSEoOBpjleHeaDbNKQRpeiiu2n3O6aKOx8bGdR+6O9h5gAWq12UARYV4DXVDWNXBv9Fxc/7nxNCPP/iNpWp9+N95Zr9e7/alTp479+MfJpctpexqhKGVEElPKhGWS5shagKGS+gvI55qfg1Z8S4BQs6wOlkMuzwDlkH4PuN3xCK00+whrD/0zA71fF361tX2yUqOT1iPmYj3ysSd3HLx1mi6r1HRW+DDahAQVdLgtBP8G0WSehFoxFTKP2EJbpTuxsxbtDIKnvv71s68fV3aFcgO6aRB5s55FOURSH3nrIteaWd3CrAK+zfSQ1KdutJ5oR8a2K1JliQBF5anK4ShURoZAjAecjkt8t3W9NWeHpRjWs2yMPfjoh+9693s6YcQ+daiC1ALoRw5Rfo2z54NJG0SOjA/XEjsYUf+CzQcYBu10L71x8uJbbwadNrhX7dJs6ZcZS4uIhwj6RZ78Zo77ITq1wiiG6TyumcwLvOIjXxU0LW70ldUoabmnGM14YMUIt1AAEI81Xh0qEXl8LNi1+973Pbbz8JHpXso6aXV/zd6GgJirlKEpP3nC+I0awzbIqPgTHJVWCc4cP55Ose+GlvvhEKGSm+aKIgwR9Mma5S5vpHi0fHuOzUQkdZ8hvczHg+cPy/8tCuzB/DET/9aUizewYYN7Y4blY9tibyl7jQmtnCnPemWAPj5+5yPvu+/RD1fHd3c5hABjIUs7VTsQR4dk+tjq8BCB1as1G40BzWy4xCDoay++WOn22NFAoHIUqVEr42mYLDwLSZkJeAn7nEXNADkgtldRBA9f/sqhb0osgJciy1vJBlNnF+Zka/s4NZAptUbLtMpGcPC293/qM3uO3NOttTr0g+hqWZeXZiGTFzeJIlQTrpw4mW8yC0NjYggvbQfOtObJCxe6U2w0xn4hMrOaSHWtPwfSUHVzKZCVCTHjWSV36pvzpCsOHmCYN+PduTKUCbHoPdTBeXvNDWGcfLq3H482pU1fu9K/aDxb1JMNRKTmMwglWQOwMOiMjY3fe/8Hv/Avkt1722HEVpOacM++Mv12L2XfmevsbV07IckDju/VGNmP+fKAm8ol86pjs9dduXxR85C0/4/SMhMJVZ1968mvAUD+wY2/lricMmPPteuNz8cWTRFsYLUUkWUI1BQxiSAmibVad77/fWy212OzhohFnczkFwn8OlTEgF8ZSqNHLslPDrM+CewsJjHI6y9YL2FpFdqCPrqhbk7XzyxTc+oa1WOFuaH52fqJIQyZCgYsJDPRC5zIzWblwIHHPvtplrPNdLtYyNH1NZZkcvSmE8XHbfyaKwLKFKUA/zTdFEpD1EyJUBsFchCZBp5ceR5qqa/cSySV4D6o5930CtgyGYDULhFRbAR95i6gLYCcKDx9+nRUa4AnukYEww1hqSObMkTGyB5z49B8NJqVo8UGtfJs557DBf1ikNnk/aBC6TnO8z2E1N+8WUK42A6bGO/ZugJI8DcOup3k7Om//e9/OnvpIlNr2BsPVNE4aKbxkDkGJZhRiiqseYqG/ja5xVDrbDyg51i/xvI/LNAvK2FlwjKno+BddVkIN0J/mUDXfY8wNDmvLmJGW3Uce8HkpRd+8N1jTz+9k/nMvX5dYlXGAFOnrzvV9Y6AFgklx5smJhjT79Usr8w8snhiwwL9Inc+L41HTc0sfO1ZFlq1twPe5SCj+2ujAEqx1kVoUropmKxc63TOv/LK8ad/XJ+6Wu/F9B/ZcK9e51CyWLM/hsypg6u5aoxahawzoEe+95aDFSz9MlgNoMVHdj37wwL9AtClDM1lWtLIEb8xuM9GPYasRm9YdiAvijzJqRYgNfPDr15+45+fef1nP93JFPx+r8F07jDsdTvNZrPNTr3D5KQKmFXTe7cse8IUdfvdRyI2hmJ+JyXKRWhJnVYBSki7eeWZ02GMR7UcTCMrGjukMtQzNx3OzLNLKZoUZNGyuH/xSoP2AwUlZltdqR3cpVHh5lhuIOQWfRDxma+cr74WNeLeqeeefeH7359gV22WmLAKNmAL2Q7GnV6f9aHSoPl5rWEY4gdt8PEeGtXGDx+B0l5pjwS7n6voQWK6P1d3qnOitxgGA85/EjzStGOox+rKkBarC5hrffiuu9izWwuONVBBGKz/tGXqvFsmFU+BifmR3qznxQVwGa+Lh1hTflUxuStzAvfbC/dOBNCCGiMlHsLABKz6e+kXV958o95P2GgSyYnuLDk02MEtGmoiKVs8wSI+spXaDfeaVmm8AXsQEv9yeAJ4VFwJgLNPy3VEkGVdRWvfs0jYoaxWO/Kuo0GTZS2o+0K4IrVRXoN7hvnttQ51Wfpt35coCeA7jpmQnHLywKkXXnj1mWdqMcumpF8CRFQG4TgXC4hPI5YwxIA7H4GrgnxoH9xriBXMJVpoBzuBvOxzlssSPo9Z/pmTDPJQHrsmTww6a1jy0Nl3SoUOLn107SYcVpmEdNcDD7bY9Y2dy+C4PH4KaItS+YzESb6U48FURk/biALgAIVGKOx2gqtXf/7DH1x8880dUQ2R72qMcG/O5XHxiICWIDfTkHkCerEPzvAtcVsExpN7+qMSxh7AcFkOoC/FAAU/uMfAlQEsfrRQUl+EYr3Fmtmv1bphbaoafvzXvrjvLhQelufadgcWIEsFvtNyS7mR1Hc6bN8rOGMbbeBBRzaY6XXefuvCsVdZ7Md+FX5sGaABzFJZCuXbJDiodpQbENGV0C74j7eW/NNLsz1orRNhChH+oFo6lWHf8C0UalVi5kcroRZGshqrk/l6H7VISOHVXTPdCz1KnQjtusNA9HQlulwJb3//oweOPhDs2Mkag7AW2eQMT9O4kYjFV4p6BH1RfZs7sF0La0GMTbP7+nPPds6dbdgicfUIc73AECP0GCDNZiiOEEPwyr0VRsoPnvZfa9Wl9KtzmfmL0gqvWPLPDcpEQSBAb756nZm5dcu9O8l4cZoC47Tkl9ZK57g1mlfS6qF3v+dX/s2/Dfbvpx8eovSLM5RDY15u1YbR4liUI+g7Sbf3VbNWgQNbh8Tdl372dP/KBfZrHecMDhbmCmbsZokMti2YJDFxDH6JZKwEMbjLEgduGRIW0iSJnR/wY6AVlErD8SvvxBmoIh6FvYBDCEECwiWNABpN/o0xkgWyi/U6iNYEv9gkZOd7dsnt1up77jv6oS9/eexd97MPIeYdswpmaRifaN6d8abyRmQjqT9H1m17l6m/WP+uXj3zxokWs94ZuQXOslsKq1w1rM6YF1g24Ajd+ErR5lbIZr6YBeZZn9gsT4lxH1iV2De9nHbETvOzTzOK63OTztnVrDJ4ZZpQFkopKST775ALZD/JcF5ttxruvfPO2++//0O/8uv7HnmE7Qex7Sgx64urPYLPDOsWjzLuyYygb6TYxhfwyrbEAdtzd7svPvvTsB8nDF21GlwFbFdB+At69B/oIHO1EZOb8+lomh2FN5KtTBoDlAYu2gZ6mZpOTOPA+jd2VeomOlK2MTHGjjIEaoyNYVHVAI454wBnKFoTPUmsl12FHX1STSKCKchMLWxM7GhNjD/62c89/MlPa9NsRpobjU63g62WpsOY1HjTeMaKMBfdCPpztNiedwYvhrG6QWfmjVdejmemG2AX5UdKjICIEpNh0whEj1Ms4cxgAeABcEprAI41v7OieT7secn2gtOMlTVb/bDJwAGDrLP9/r0PPBCOjc3GndvvvHP/LQdZAeaNBq2J4jQdHi97EvpBMCnCbOSEhoiV04C+gyE26Ld27Dh8190Ttx0OJsYD7bbJhmsNlCatrkY/Y3s2iiDGtM6BxY4/TuMHI4UHEoycHbHRD6anjj3/XBizsx/AkYIuwTlP7hqxDIt6IxzJwMh/tBD0EQ09CnNROIO5tBZNBTV6n0ceeu/nfuNLrT17xjC3tzhMN6kw3tSwwxX5yr5XxGapUafXTUv4iDHM31sGtTqmt2N3ZUxZAUg5rLTGGcRlj2WEOxt6atEBXCQtR+wkm5GkvjVKAn6mW42kvgg4ckj93pXL0+fO7mPTdWEDrKCtCHyZWVMoz/gAlYYQnCHhalDhD+a00zImnWq1W61eStL7PvLhD3zucwcfeE+wczer3QVckMrhawCX+DL4mhoF7sEqMAX6JK5t5MkInsoDHWrVkaBveRC4lR9EPCJcHROm7ojrpH4Bes6ZRVtC5s+xrjoOxGbNiTHSCPoj2AMZTVmbPnO21U/q4A70C4WGkhw+Aru1A7It8kqahNCU9SAJT6cz7tSjRrUedsP6dCX8+Je++OCnP1u/524dMRhFEvY1nVzGRtm2jaQAPofmbBCBeFy9oguggQLDOodaG3toYFg9b1lvlDFxApnxvaDZ0RkPduPmpEHCkD2YQ7qN8a7lP5P3XuUj6I+gL3GZdtqnT7w+hhC188VkzgSYNkzrBPLOK9gRGqWUF06BXJbWsYciV9PqZC+duP/uhz/16fC++wJ0/Rr7RTalzzB8xsmkYxyEqV3cTIK75d3UGIl1+rH4Sx9XeEn3vLdKkoZlxz0iX62LjSV3OlJy6KxXa+pvdOMu3VxxhgIpp9Z+6QPM+nq23I+gX1ThNr4By73eOyePh+yT3EsAKuYYgMXPVGQZbUz+Oua1I5vwL4UjI5rAqoGBNImiTli90I3/1//pfw7vPBLUMDWOMcWG7U1brZb2O6k3LTBLAAzoOdUlwk0dl6JinrL9G0otbnnlw2ueurhDrMj+zE1tE8SDWi/yX+MMSJ1165tr+EiZXvOBcp3x7WaBPtzvgkFGXStndsFXAmo9nAbmoTu0KQu19Yh5qOOgvOwrGPcmL12q9noMbjXZjiopNulW3oF6tq2HA8jEqKnlfMxmDXqmWrCSsnfDTFI5dPRd+4/eH+zYJehbB6DZajFdgrEz4R42MduLJuPMd6pMDQI4b3Fv/VqrlKzmTZZrBb1/CqC7PU3bZPyWjNQ08wj1rR9pk36rS7GIuwJFehxa6HvB1GdCq9RV9MpKS75Fvtx5a5s/5X+zcRExjAeW8me16MAWfTOK0v9R1dHaK/A83srj20p/C+qJAIhKwNHvTV2+ykJE9Hdwj9RngrsJGdEcYIn+Ge6hkTzRclxZ4SX2FIxB6NptrJmNxoc//gmOJ9KM+YhlU1o6SHgdB+hRFFgcsJrqpcuxuWrGw89+K9ArH+W37OhgZI/+ArVGQ7c4hRsIW0pxIBULPcSXQXm/yow6Y8wxyhKfORdY2+LNyxLhtoS3wFp2nHU1M3vmnXeY1thAm2EQqh87XgnllGH6y/yvyjHYPdKkw35n9cZtqPjAkSN4+wy2OgoXhF7E44ai8YYmtkhhR143nQIS5wyMRt32LC2A+o5gtcLs9wGdZzCbhXSYww9f0i4zTNsJaztvuQ3cS96qq7lQqxmM7CY9zWX9JmVglOzNpgCIxeyYygzD+T/IezJUtu14W7u4Vrkg75wJVRufqDKBjN0L7eBy285tQbgh8NjW0JfsGmz5h6BGbngWEPqd9vkzp7HK0xtCq2EpLZmYU3hK2hG9JRPmyqRBRyELPVQz3mr13fv3aqQWxYkeKmNNtkuzPhgyt62hP2R1cZOyg5kl6U1fndR0BEaCzJYg5QVMl66DmZOBBgd6wL0Ho6dLhxn0N3ZOcAKI5tIz3yZhYHdIMTak2Rok9OhpfSiQYXRhZElar0V19B0Bnn4pVkKUoEyhx6ifjWeVP8wMaOCenW+ykLzH5rNn/wEdTKRJCjY4lS8ILH89DPdDa9wcBuJsmzxkY6uZpDfQm7Q2qb8IFWgbsDAi4wff0Q6E9dqtd94e1M3amLchg6GG5Wl7Sf15Yo+qkonYKlj3W91RxnkUUIkpPvMH4uKsGkBvhBjEvZQhjbGISnb4+Jykt9DiBAZza0xOpv8EZ0Qai2VagaUwj0f8i5t83V7Q3w74vhZA5chEU8eSg/peZpKCaHkovbVUgLWQbYZ/dZB9qEtjhWKbrD9wLfm5Id9sL+jfEJJuwkSEVKZxZG2CtwzCt52XaB2ARQrlHLLghaZzFq7MQoXnkNxsX+iXKmhI6uLmZ0MCO3egtrSkNfMdtO5L6iPbeafFsqYO5Q3CHK5ynzzeofk7l8WhydIoIzecAoIvVvhMYyF5NQGCOUNdUmlwMmLyG+gAAJ4SftRmaPIfZ+tqXpCHJGYiMvbweIbnWsr68GRqw3IyWHMblsymi9g3tzGRD75xgFVurg1YvEhOTwL6a2HfXIZ7RZRxzuLf31Tf7QJ9r55yJd1Usg9f4jLeCMFAV1dNvMlQm5EOO9AgJ2DsN/1HwfyrvFSmN2Vz/Vm5S4BhZIDhgf7yOZHF7HocX3v1qEWmMm1nvOuJcNlvvaZXrG9hQkNCuVs2zvV/OQ/K0lKkwcwR2pUcPAeRrZwUPs4Y8sqdXnEoSz4iVoTM3w/L36EY0tL2Rpovr3UiGirBOf1NFCW+JhmZpJUNmhfixHNkWVdMnyCBZEXWmlF9bLZn39OCymT5UcI58onm4rIwjt0ghX7JNnXPWPMMBLntazq3cQkxODIyBcDSXOpeYS00WbW8sXCOfJm+yx+by8KT9RuZH8bwp5YekCjF6emMqjAK2eqPjQz0NfnRH4phiaowpVnmenUdrkCqR57FxK6x0EjEl/nePU2ia5EKPlxtA00m8CiLvMoCKbcitzNMwoEmvMKoT0k0Ox9xhoe9v448b9CnQwF9ILuKmR6CNVSQyDYwqQ5UBfLMnAXIHwb+2sQsiftEOxMBtZADJhm6Z7m0pqKwRIN7YqbuQGVe/URRhshS96pgZURLRU27JSLLmrEi8bPygze9rjYMqNU01qPZkra5MQc1gx4xQakcnnWhpoDYQGnW+0HllSSBPjY7TalCZB7RanymfjFrbfm0rSh5A67qII7lv7hpb4cC+iYejEIuIwxw0CxHA6Q0EQ8VJa0ZPRFFZX0QgoAdK6Gtocg/MHLaJxI8fKy9LEye8T3yWGmxdV3c6aqVV70jk0k14DhwCTo5/9xuV7x49aopyYN6HIhv1ncTE4mxCUGtRlo9jnqy/MMpCHhYQcVKE2bQOMt5AZUbA44gmMd6g/8axbI0vRFYcdVJ+ZMbnNu1JjcU0HeUC3tWyQ7NoiSOE4cCIQQF4woB31bTylNAEVjL33pt4YmOQ8NizbRNqEK/qrKaqLMD1eL8uaDV0ckzckjmvmYdrgn3fJdJTWNRB6qXRKyZBtp2pi4Bzk2DaWJ19RhpC6K6juJUeZgC0Geiu0+MsZwo+E2DvOdgq1+HBPqSvEs5QO1wV4A5uaon4YZPjWGQpTaQSEwm6c1TgXIH+GV0loqtTSCj9tQr3/nm5RMn2IYdHT/u9bSPF9pOPqiZf7fyX+WCrGkyo7agtHt9xdInkN9DiR8fO/Lg0cPvfjDYvStg2/rxXepbsHKP/fRkWGQLDzSxnm0d4yVUJJTMmp7BMuvFyK0DBYYC+l4OR7+hSHJ9fuHshaCPbBTOvGtV6DkL9RNDj8WCCgOq2JNRgy18LQ5Iw158+sWfnzl2DA2kEta6bIpaiySA0fuzCVzzs7DUM13E8iuSsN6hDvDgdIM+SVcrz39/V2Pfnrvf88jHf+ULlX29sDWWVmsp26Pa/t72OUWAM9l1THr1nCzgbgExysmN7q+NAsMBfTMQ5NBHYwbYOKBgdY4kNbxmIl/CdZ4T7unDAujyi0LhwdPaDSGaxRPExmZebFZUY9+B9ixbP3LWcI2DYxP21aiwoK7OfvNrcW6eVCo5RrkRU5LzuFKvRmyrHcSzU++c+udXjl099uoHfumXD3/g0cr+W1x9o9MOs5F3bz2Ihxy6yQjC0FSN3EZQYG11vBE5mBdnLu/npLhQKx0GoQ1gUdIdx6gIssf55znkypHRawREiieLUyq2tRXalQ5Vg32XMLNg6SEktju6whYNag+rK/gQHlvdFYRnbGbZIcP85cK2MzAS3ddeL+l1u+g/cXfqzZ88dfrUm1+q1fc/9riy1mqG6gtrfawyp6wpFj7Pts6zOMsFG92vCwWg+dA5QyoZU9805wRhQciMon0H9mMq8Ve8BS2ARYzBjnl8wyIKwwqQFwKtiWAeOfo0yo5+lVQi33iAbznfj3tOUatX2C0paqTVBqeDBClbJa3pynburM5oJGkzDdhXktOK2cSv1u83wG/SRx9qVING2puoJDt7cf/MqT/9v//DlV+8GFy5ErQ7duATGY9CsiM+pSeCbYiuifPt0FXQ1sjQMEK/oKzr3OqeSowa+uu11o6ds91YDYAwIqCjE7AvNsuoCYbD22MgTOEyi6W0af30lan9BNGN+UjxsOEbe1sEkEDPAy9+z67BOlZWOwTTmCT8GCNgk3k8YSHz0a5mmDbrlbTF9mbtmfTi2T/73f+3f+6sNrbHQKvmRwcCkmH6uyqa8zP8WypFUZzRzfVTYCgUHm/SsyqWySarb6rfBoUwvCAIZcEB7yF7etVr/Q7Kir7jBcE0xhUSaHGYCOsEJV57b8qJBKp973xFLBpDVSeawNK11yIUTK1y5Yp4jc3UXsFIGjdmaFftj1KUgaka7Kgpr2dee+mNZ392z5592p1PO4FE9EOUB3NoQNpj0kmD78itNwXWUsHrnfbC+JDZ7gn+3PHXgAhkbLdohq+qwe79+1LshgYUhD2ytocd0B4XxukgzuMzUZ8HktXdU1RnEjukJjXYeGQeYi1/1eJYbLCW3/jXGuTFqTugnxoBzrXs9nallR/93d9effsthtaw6SR0MNx4Za0WXE65+K7Iucc2uq4XBYYL+vNKhajEKAMSpPMAAx5AeqO+59ZDHczhSNXsA6QjhxoIWQY/8wZxOQPZHMNsDNi/4Et9jGhHZaK3TJPBXqnMZGGyucS+dXNXfaXhkJ3eoiqKQE6EdFoTSXzaLyVEGaSkcdxOUG30e5fePDV1+m2dY8U7nU9l78mXYqMpU4Nm7FDEOrpZNwoMKfRdMylKKSjQkUW+oynUarfcfgenkaVRlbFQHaUn3KBTILrRWqT1gN6CLfhWHxsQ7VavxFAmXEkCxImtBLJM0Bbpru3GWSX/RnzIf5uoZvlWep4rZbXfb9Kx7XbOv3E8vXwxmJkWl2RZQlGSMz7O26U82tHf9aLAcEEf2A6AHoiYTg6yBQthOGWM9O4HH+jVIh0ZowkJprXwEmQJwPrj7UGGM71C5Gu+JtqMo4rohH4p9FjU9XOC5vekuoafSXKAy7SK7Cv4UZLe2hB1cCXwi0wxYBwxYRT1no0Qzr95MsbOY00NebNZb+TMZlJmnCAS3HQneQH5t5AbLujPI6xBHRHpsJZYlOBvNu+4/2g/qnUZfgIxIeNQnFwms7hcDuIiKteY9caNQjCHQQqc6c46tfz1qrWZDI7RIoLV3iyFjCyVEm5Iutlsdrqz6Ftn3zp1/p1TlA07DynZCIaJewIBNnOrzcF6hIOM0OQ63FAjqlyuobDwOGiVLeHUxLbnUWQsXjK/BhN5XG20Qjb4uvu+zgsvoJR3OaAmqnTdOKgxUVlzTOJKwGPIpy5RsalNB7wDtOedB9oYAvv8eEsx6yuT1LVUv7BLoiazneMUi3jX5bdYWcBiKIGzHPiDHXPq6tW43dGAlpiWwloYwlu5xZsFASyHG3eBUN7mkISmUsjG5PmXjLA1BPjJxy+6mecWyJ1574fqcdPwaEY15pMz66vZ/Njnf7mxZ+9Ut8cxHjFjP0kyxmlN1JkDXIC2SsrV63n4KeMpay4sAfzLr66hqsD9wq/ITJEfZVLnj2TcJU2OnErE0wZkeS5iuM7MFPGseFMmQhH4mvi/+HrYbzYZ9MGJlv/s3Hn0Qx+p7tzdxcSpxRVacsIp34yGKoA5hm97KWfqmd1lQS1IwpW4wR+v+0rHI6enWUulfWmky/oNdFtk/teIMjnWRDkbiSPD9GSUwVzPyP+ahiaDUx7nglKMPK6HApuMrEI2i99qjWBix8NPfJTTWGc4KhJAASTrEWdnrjqsgQ0dx6Xs/TnZJHPz+3X8WzDhwjh5xTJFnerNxq4M9wr6uTnVQhfoX/jtyGe9KLDJoK9iC/2S/R/47GfH7zgyBegjZL/s5tg66fJK417auWj39w562KTUACz95dJv3K7PLKK5HyyH9lIeGbDPs4ZFByKL3cA9Z97TR1eJeLRmIfsKZsB/5DaMApsR+gbVRq16YP8HPvuZaO/+i92YM+nbCdOOBThkKkqq+pqmKiwjfTeMqop4mXTNJCVLbNxPWbTF7Dpp+W53RUPLW6FlYtjQnG+TyDcf9JHscdzRYr9m/d0f++j9H/xwpzE2xVyGWsgOGEwWo0go/dLx1eV0S2Wmb7vWXVxN4V/01TXVvmn2Gr3SwFve51A/m1lx2Y+kEe09DqoKNWUC0O/cu298YqeZdlBztGAgG4Ug49ZzKMV0TbkafbQEBTYf9CkIyrEMJjt2Brv3fOgLv7r/gQcv9ZN+VNe8ZOk82cCQox/oLLRUuM+8K4/Fj1TmvV3Gp9CXyjDlnr6uR8K3RRhyLq4MqzEj0dXKnlsO7ty/X2YrLD1m0CH/hNcnaruK79xvdF03Cmw+6IMaM51zQHYYjO2YOPquT/zWV8Zuu20GwW8bRfajlI0WYknaoNOLxST5kK0P1toYq0Zw0YjKVx7zn3AvIbzKK9xlP3DKJ/4D9wyQwYv0wdUKyeipSfliyJBFMnQMMJZHh+6+p75rp1jDQE40TNMz3DMaTN7Vf1i32h5FVKLA5oM+mWcHHdCvSQOsJGyN3f7ww5/44m91WhNdlthWKtN0HMMKy8zjpF9nPvAC5/aTedd5FvR5b4ljKZ8F0cuDwPww47jhEuUeFGvFjBAvVmQMrlpvJI16c+/uyj6kfsQmWXAGbJN9Lo1/BHpRY4PcpoQ+VpxsRSBitdGs7D/w0JOfePTzv3qpErYbtS4GH7qNOsVM+x2wGr1kV7H1jRq3slk9NoBFGH6EQV/y+zVdVTGm5S+sIbQa+rLEBhP6OhZ2IMGgieWm1RzrJMFtd9+z7447tf1Jo4Gp0yW/jD2M7ZpbGOfIZ70osCmhz9Z9gMlX84EbNuyrHrjlo7/xxbs++MGz/Uq73pxB6YjqbLUgrYLJyK6DONBtxlvWtzXEQ0pwj7TllzGJ939XfS1XBjHgnHm4EehBNNKcFb9p0u7H0zRHNE1p9XJS+eBnf3nvkSMoP5a4RQPmB2W9tzb2bnRZTwpsSuiHtVBqA3k3QVkdawStVnjroS//+//rC//2353vV9tRs1upMfIVa+NTtO78p7VSKB/Yz92gaHAnIpmF7JfLb+ME5xnniuXuPTaidR5DwM/9aF9C7fnAlAuUMfZY64XVy71kKqzvPfrAXR94LGjtiMZ2kDoL2JmmXNQtdzb5SD3iwnN0s44UGIrpa2stD9K83mBluowifKt9o5q1PvvJHjj43n/xGwcOHPrHP/nTiyde77A0NqiOs80sctZA5XPKQKBQxSAYwlkI0zt7r65m5qc8FX4r3PsyLJgjw64Jfr5BdWc3NxZSMluux0tNu6jOMONo9+7JSvi//O//R+XgIbbiAfQ19j+hfyuuhAO1uBHVCPkvFYhc5BEqUyO3ThTYjNBnagILt4GZAILEZc4yl2h8PGi3gcltT37i1w8c+uk3//EX//SD/uVLs71YmyOoX+ziHRyhgEM/7b4pMpaBld/DHEAZ5wrM8veo5Qqp4CSRRSEVXxuCir/+//bOrTmO47rjs7fZXVwIgjdZFElJNCORtkiJRdmRHCdRKXaclMtVesnFsfPq8os/kl15ib+Ab1VOHpKUUypZiuKSSyq7FJEUZcniBRIJggD2nt//nJ7ZWewCXIIAd0BtE5zt6enLme7/OX36dE83RkyWKzR6vdV2szM7Vzp46Hs/+MHCmdPR/HyhzC5VGPlbzU47rrKrg5b5k4/lSXdkmSZU2c30sjM1sBehj12n2GgwoK3J7K2dk7ESArKoAHTY3bLZXjx95msnjp88e/bd/3nz6sV3r198L2ZTS22OICsj9kXvBMxIRD0Kallngl/gJ9A3/9vSr95HlGSc59jBlFnUpj5NRHi5tNpulRYXHj977vm/+ebBL56NZmrMysF58AxxYnZi4waso51Z0XC1+iYmB3bhI0VVl/OVyJaRN0N+8Drb+6tBia9hHo7Wz2b4WY5D9iT0kax1LVGmtVi5o1dgOwNZ0IEfO0ux5Q1L4SvFky//1ckvv3DlnXd+97+/vvnRh8vXrjVXVlqra+vLy1GnJQXDBLWOCRxwgnJGfNszk8Qh1oAfACHSBRKZlUxWgxUsOxDHgBXNChU/qsaVhX3znzvyxS8//6WXtfgiqs35ucqCIEZa9qBlHkI52wpsLcmDBBFGbpYrtA6gMwkPRPV7HbErWSbOO7hBeJKhkhOLPoZsWfOq0821JRHjIMxnLXZh5CMybSVhZlplNlBNhDtjaKmSiLTi0CE1f+H2AYXb2kKbXLfnubrsRegPIiCtTqqf9lBT8cl3lUmmLrtnzsyfOHDgxHPPRI217sqdlaWl29c/aaystNfX+DwWXRwEsNLYoUBOaumNLlFkFD7sVyjYsUdan2w9hgSq8qWHKcer2r05fvTUyYVjj0Xzs2bKrPcY+7KzMuI8lBjA6pRwY/k4rhxYhIU4KtIcxCdeft2fDQmx9GwwWLj3BITTI7EPECSb0+ScOVKNqg3Pc+PV37qfhJdKapLMNsbOx/1ehD41Z+gPrZdUJCb8Vpu9/tTOSDX2DWeXBmaO2NV+30LUWyge6Ow7enwfQGxj+DEQs9mZXNI2ajDzZ3t/6SOgwGIO+/WMDEC6JeTimdEFkRubMUAqeZbZZxzCEO+VKGbRdUkmf7GL+gVloN6KMUw4qRyOQNsh0LhS7KBIQfE374hLP06InonjDC28G1ORI2ypO2XdKVRRzHpMt8kQ5tl4Wn9fI5EkiHlG4kBZfOIR7EpIeitaufF7o5uK8HfMpMiFd49CP6k7qjjTVBIwNAOjYHa65LgUjk6JomanE9fqNCzAKqELKQn9grePt0qaBYijpQCls4SXYtAPIcN+i2M4lg+sgHhTdkSZjpGgNE7XoVytLgoUJsPXBCMQpUONSNGHiaSmcRQACngkJEuYk6erAMeL92OSEkyDZG2BYteyQiwf3tbqwN6aC4EgWsKeYBUQuKKfvXS5tJ4pRUk2cYFUES8nklQbeXR7GfqZ+veaxlbizS/cW/MwecqfZD9zATQwk2GYW1BrTTQ5MD0bb3c1P/cDrZVtuc38adMCGxocDpGaztxUMaZUgz07bwJD7R8Be0CeSGacEJQoodRCTKPWW1hGyldcmrKcexScdfauIJswy0RsJz/aOmn96iEKNrR7TKsHm2hmygEnJY2Xp3x1R16Z+rgMn3clki3kBBlicc9NGfqN943cu0VMBdmLWtlp5Jx49jL0R1WhbOQl4R4Zz/PQaNQ/8g/N3j4FRA1iMMctLeNjNUZ4nlloO2sqA6eEJ24LPxGEU1iGrl7Ao1zKU8cCK643G1DCRoMc3yX5B4J0EgzEYf0RU1ju2nPTcFbiR4RZNLKxTMlPsRLn6HfYjeNP0unX4otO+MSK5v1hxXarqO7OcxPOBVmcFcwtKfnvVHBL2YMzzv0ilMidebix3PoR8uPbk9D3xujXclKdap6SLP2Oe8l+bzYdGKFNGMQVyCoDlrp5/Zcz6cudOERNZaEOes/7bn6ZVpF11uwMmmEGqGD5aIcDhDwHrlqOJiWIlZxszJNgSbGBGkWiG2igAgHIUMIgVBAjIhnrRRRzXL9KJQnOsWh+qLR8VC2OURDPIqe1BpPJVIfp+la+Lp4cUrTwidzCvWWa5mvaUhAQFimJlXwtJ07Opes3TC7JG00UrQLu/ZqNgdJAOHYTr24itNiqxO2GzAWwoqajD7nYDYEoSi60gwYHh0ACYN3EYQKSFAjCu1+9tU1JEII9Q/KHNrLW0JFewMQsjAVDonUZmxHF0Mx8tE2v8ZT42ukfO7+W3cE9Ot5UVlLFtHd1NnC/Ez7s94IJJ0J69ZrifRNQKoAi+O5nrTHb7TKtYDPKys46MXtzootfvAzPYvTV+08xl1M1OlaOQvck9IERVejXbF2aXTwgROEFzDw2T5REReqrscGDro57tbMp+EKXVstrogthq8WTGigqv7v4Aw2S0mIVzDKhB+AebmQIyRPpQBrtgm/OLOLMUA27tfm+2FUrUWFaBCRAX1uHR5mZbn+ydOva9ebqHfoIiAJ/xNn6ymN/V753QYuDY7Tnj/mVUPwuMrjyohCAzleGNddWb166VGqxrI4wpp5ZFl7G4OMqOyl4HzogfX4gZsLhISz4gp6k+tYrMC2tL29YNqtziG3yhOj5c3sS+sPV6NJtOHxDiDW8whwf3nqk9cN0kVuAVjDbkOwebwGXZ2EcqoGvclWmAgn3LNhBJxPQJfRBoa2oAHQrK4LX9RufvH9l6YPLf3zv0gfv/n7t9rImABRxBPSdtJQlnLFDoLQm4wSoSUXxoJ/31R+gX7sT820NRlfr9VhMWmTFK71N4qTY6B2EYgn4UXVEIbwUG8ulwwZF1puaBplklZPfvQ992sAk0SbNoXqWHE+ccGmQVLg1DL/AEQGNccMhas1MPAk5jQ0I3dqf0QccYyOAISKFG0rS17ks04w1LFFPgEM0r69zpnvnD3+4+Oprr//bL69efq/Kqbpa8oyCYjxjY3B/E0tjoZ6pc1XiV4Y44gfDPIWSwgckwa/nxqLqojjurtedjbHtMyJiapzOTlukYBeGeawSLD8lUD66SVz2hshsMLG6tiYrEZPCpRjchxFQEj8/v3sf+tRlgv7NqjXI+ERqWnOGuDxyngGRQqWNTy3M0TXW1VgpxYAw7tyY4YgB0iAglYP6nkYLSzsFDrC+cuWnP/rhldfemG2uH+hyEIuWJtViTrhT5tJ5lLfolTXJKHY/V8S7xcnKdzPHW7jjlVfE2Z64Fs3uSVauAPoeZ+nBlURH5ypX4yYbXIS0yjlM6lG8PhC1dRYKlYMq/VGGRaxqJZVMCETFklu2lSYeM1fXPQn9pEmsJql0IOatGJpK4d7MSV0LwbJf4Kx5ggB2sDsMrPWAk+Z2kmRj/kp4O9j5CXhXHoYHeVJipPCjf9tn9Wy/455Oo8HecetXLv3ih//y4Zuv11dvL6B4YBItF4V9RupGR8gowF5U0pn5nd7DcZcURjliDd2mhdttekmCJfV7fMlM/C6fkCGnMXOpo9EBe5RiL2QGWRGQvl+ST1Kfuqd2Z+fnnjj5pAot8n1ms1KJ0680kxR5+d2T0L/PyhP+rRnJB4RYkwlCni2ICZw0VjGOh+GoCbKMKxRJPYr9eHkUrSFrp9NqVwqF1h8/fvUnP7/0+q9n11YPVoo1jDxo96Cmw6f22p9Tqpg7/dqd0J34M1pF8h56t7s6sQcqHRZhNHKtw2OAraVNhnuUffU2wNh/xCOe4+Y5k7Zer4scBL+5e5cknm7Xrw8J9E04gSQ1jdf1qNZBoKtCuaZPSaLFi6QREEPL3kutW38S0hlCvAgLcUrcnKRyXZ8QmGx+Df0blZr4jeaHv/ntO//xn3PN5j4W9tuRpmAIetAuMIYy4UWXtYEqpzgNdM1Mt1Z02gekEUZ6PJXM+T7sBrFldXv0SBToFjN7C+vYlIWn6BMjSeEdr1Uj5h3+6kxToNRhxk0+zB9Z+mQDHxLob41afxqAmNT31kmSWPfxK8MoPOb/0nxAuuFGbAa76ezextVrF9/8TeHmco3TqnXKIoBnU04lL3MIBce4k0QzEZ6Jw05so3C5LByD3yI783iyEXE8O66UheqFR7KfW6Y+sLpmbAPk1rf1pMkSj2rSSGEZBLPW1Tm+tySEE8PQ6LSp6IaaT9JN+PdhgP5dazYbIZX3aWASkgZsu0mEnpCbfpKMh/Ozr8TajY7WFa023vyv/37/7bdmep0a24dKMZL2BdJNFgvcUAaAkPwGIwc0sYBU3w/oAC6SdyActhgMz9DizCDjpg85jEVEM6+hsjXBHBZ68Mh7Src1MYbVjAEmoFZLvRPxGftCXqFSqNaL++f5Cgd6SyxTZcyska6PVjKF58Ab3j8HlDx8JGxWt5jRtTEWs1qoOuzZ8PHF925du1rqtMCtlCKJe11hEP5sIkmVQ5ItruB+5NMN4WSywWmieJSmZ5I+xFXxgw7ycC4t2F+IspuExNV9i4cwD8FM+raYOWl4T11bHt1mzZNHWvcgTVTv8B/GxEQKttp8Q7Ny40bUaOgTKSlDsuQ7FoV+WUoEoGHncYbD7zMETuAPGjaMFkRJgmGb6uqyIrxi81+UCImoX/Hc3PFTT6GmsVKc9OK6UUx1nxTuVPIp9HeqJsfPB/sJSKHmQUa3eWNp7dbNKks7k9kiGRdNV0KmumHHjOQh/1QtSz3jF7xTMUWYjcLJULKflRF8g18oxPv3nzp3jmGJhgkGemL60sCdKnoH83kYdP0drI4HkxU7bzJK5fN5xpXNO7d7nCfHOn6OCfPiZcyRkq2hgzmhfDfFJ2I+KWrT3w2dgCAN70IXKZi64tP7cmlh/+Li409ofpq1Ujrhm0/PZNXaNNOJPphK/QlUv3QVpD5Gk06L1QM91k6i26AbGQKzujHSFJeF5i7pOePXgkAvjceUIuug2AqmEUnbmT96NFpYQJ/TqjVDPMP11Cw6fhEPJuYU+g+mngdKwfQtKQ4+Ot3by7du3rjOPjwYTLCoo+Hg4IGskrPbcIfjjOkGiNxwAz3+B22MvgE0o9smq5Ei9rVmp5fSgaPHzjx3nr0ntMMKnZqtYmBJENMDd818Q1kP5nYK/QdTzwOlxJyLgTwH/YXCrU+WGo01rWHme3lzIAX043X56iaagfSTv2GttfoiVrdpP3emwKr1+ceOPXH2nLYsKZfYHg8afa5g8sRuQsEU+ptUzK4GIzPRjlmdUIzm9y9wSAAY8j0asgIev5RpxgG77ChgzDIgSVR1u+UYrabYKfSarPaMK/Vjj5154UU2k9NWK4xSNEctQy0mIK0D2mX6t5f9FPrbq7f7S4Vaw8Lg5joK8+zC/vl9++kDmPskU3AiuNuglmveYKOOCEO9DJea+tUS52rtdhR94cU/O37hefzMPzsbmXWUKbZgpLq/+tqV1FPo70q1bp2pxCD/zRLCNkFNrWbAbM7aAa3FJC3o12jAvvfKKv1bZ7urT6Xe2B8MybJkLa8oFOoz+1a70SOnTh9/7tlocTGqMZnFrifa9oJVQfYm+lBtVwnbduZT6G+76rafUPhmSwg0fr4Kqc0Ua/UieoKdhkSmjv7t577bKXvFNut7iqVWVFrpRsu90jf+4dtHzj3LsfXaYAuWZiLOei3ecbdpuZ/8p9C/n9rbZlpsg0GlKRaq2MIffaxX4dMQfYmCvMcqzpetZVuv5uJ/m8XcezKocsK2SAqRzRYf1xTXC/GNdu+V733/4FOno0qlWJ+FdBwRsAYh6vUHI+RT07dp9i1ec/poN2rAZCESkRVhrGiYnS3PzTeBCTsTyrgvdZ8rEHSl3293g47hPClri+IczdrTohrfKZU4vunMn7/0xIUvFTgBsj7D5/cm7yGeL2wgX57hIvITkmvi8lNNO0sJI0EJVyAe1xDxj596+sCjj6JCgBY0+9S4SRycrQHb2fJH50a5qQXeUZ6N5yKc48bYOPrTTmu5XD76/IWv/v3f1U79iU5x1QZHLB0F8pLz9Fr0XerC6MnEA3l004UMD75VmLnqsmGHtt4Ba9Xahb/4au+jK6/+3+9RdFCWtT+hxruwB7Q9ONnk8t66HAltytZ/IwBIS/WyhTp3omi1Xj/67PmX//GfFk5/gVObNI2lhXb6lyRXZsa5W/Qiyn2C7sHV7ARfMm9FsxMW+34aKDjurlw5fPjx8+fnjh9f58gtvtkyVaeFwCxrjxwdtSvX9clUUuGG/R7i13HeV1I8iRdyS6bSDPcsQNCXi/QEMCn76bSKpbWotFqu3CpVjzx34S+//Z2Dz5zj4McoNrVe2g3rlPlRrj4VAZ3abyXzyUtSYC5+p9CfQDOw7BHzuO30wXr8cjQze/jU08++/LW1uL5aLLfLFZbEsPy9yUZUdAH6LpdhAVvBhuVigGvY7yF+Ne7Y6qLxhDn3sCRBZ/ryYS4bYtn6HCn0BTZla6HhsE3uatRbjopLPDpw+PRLL339O989Au5nZrpsmK7vUfRhF/MSZrmSehMMPNYFUM4EqniMIqcKzxiVtNNRwDLzQcDNtkEvFKu1yokT5//6b5c++viDN964+enSYjmu1uIGR4NJMZJhPNXCx6FFqE5F+uYJXAknps54lLhGDlKe7PfcguNiLfajThuVSnumXj10+KmvfOWlV16JDh6JZti3nWgOdHnK8HBwXrYhXnZOG8Ikz/Lza+Ot/JDz2aBEY1eQxcZ+fD0IxrqdMqJ9daV36fK///hfL732WnFludBcrRYKbMLTaqyjEwlAtmRynKtNqNr4UlYXxpnBj0PQ9e8AAASJSURBVGBP/R7u2KXWIYe4IkoKCjuDkkeppd0GS41SvBJFn79w4Vv//N2Zp5/W/EO5XmAhg/oiei/tDg33cMu9ladW1B35qQeA8nT9tR7lxE2hP4GGsBOmOF/ONYECZ0jHWsDfi5Zv9m7c+N2vfvXqL35288r7c+zG02igemDxh0rANCYDGPS1uYi2xpcsD34bNgyEqzvRx2CiRL92whIdDerWeqHXLlXnjzzyp1//xjMvvBgfOhwtLEbVMh8ZlOMaktwVedLiAfts3a7dag3rRq1ohmDzT6FPNUydNGPbvUznONg5bQZr6SitVtRqwgCtqx9ffuu3l99+6+Lb7yx/+mnMAgE5Z5W716BJXJP0Ul0SqY+VRkkHwi3PXrPdYg8SU8O03PLwkUeePH366JOfP3TseK8+M3vkczqRiSkINtOESTjqVAuOwoojOJIk0n1YqonFytV8vdEU+qqTqRuoAX2Aq20/kOJIzP532xwCwBe69snTmvb+Zhkz6j4iH5bIWjnHsZSb6uEKSP9KJiPDXShrBoEIth6B+TXGr0hxVlvoVDJm3PTZlf5s2Ar0E9OTXo3XgQFS3CtI0Id0sats/Plz6dAkf6Q9vBQBH14O2QyKwDVatbQdtGY7h4Ij3tnPu8xZi2CRYae2xkFY30t1IMHvzdkKajgKMoC+JLeALiur74ZrGaIaQTH8aR/minpR7dtpGT/cW5mTji31cdI0fObKZxzJO6PE2wIv98MM0pgNT94iMlTa6XKmp5DAg13r2czvdel43SzOhnBQS57iQnvAAJxydb4LAQEcKDUQJhIsIPQ6tqQ6kKOoSi6GCGzA6NdLInAq9b1hPvNXU4OpBeQrYAFqMqoAKzBjXAEWZW8RJ9AfmMQFTyBp3KvVMKAM0KMQC/HbYb/2mwKf2mShoyGv0AvjiQw0GYCLcq81FpaPAB3AbZlmLiTL3GnSOkV/Jjwv3qnUn0BLSLAyK2VAQYtIKBjQUtQnuHMUJpG28Sv+GpUM5hKDSc+haP4Yd7vo1lI0d7Af3AgfsCyHEA93qY8/xToQx8nmM+hGljsYZWJ3G2mdGCGfpYJdxvLGhiGw5cjrV0EW98IU+DQJbldbLSPtCHhuerW81LhgN/UbvrkLISbXscrYhLHb4O2RpL1pOx5T+E6X4FtefgmsK/rEKCkb4HdqM3Hz6J0OcyfQKhK2OOFLvyDRkJYCyMcAeojUBFIOX4srUUsKv5qH4NEMwJe/UldkdKckMztquRwSvh+ur4Nlh5FuZRCW6iNp7gqXqMNpBEIkLdZxio1lnej0VSwmj41M3XivpXKzXOHR8nCdKjwTaIUwzEW4JjgBb27uNNXfwazJJnzQJ/Es59LavGNcPI2XsLVf6NckrmLZLFhU5hC61LGtiPkhxw2xxnj4NepNoS/26OPeaSZAAMMilGaWH89U6k+gLRwuJvYdUwqQGVHHJBoAg/LNUweNDQu2Rekw6D0bD3c/6BTLMaMAmG1Ol3AFouMj8QP/CebwoolwMVTKt/gJdB4TM0BzuDO+9S7CS8rT9f8BGQClomJ5mSsAAAAASUVORK5CYII=;" vertex="1" parent="1">
          <mxGeometry x="333.18" y="170" width="38.05" height="40" as="geometry" />
        </mxCell>
        <mxCell id="_jiDTeAEU6iun5wavJAG-20" value="" style="endArrow=classic;html=1;rounded=0;entryX=0;entryY=0.5;entryDx=0;entryDy=0;" edge="1" parent="1" target="_jiDTeAEU6iun5wavJAG-18">
          <mxGeometry width="50" height="50" relative="1" as="geometry">
            <mxPoint x="210" y="244" as="sourcePoint" />
            <mxPoint x="193" y="240" as="targetPoint" />
            <Array as="points">
              <mxPoint x="290" y="244" />
              <mxPoint x="290" y="190" />
            </Array>
          </mxGeometry>
        </mxCell>
        <mxCell id="_jiDTeAEU6iun5wavJAG-21" value="" style="shape=image;verticalLabelPosition=bottom;labelBackgroundColor=default;verticalAlign=top;aspect=fixed;imageAspect=0;image=data:image/png,iVBORw0KGgoAAAANSUhEUgAAAPEAAADZCAIAAAB+VkEFAAAMPWlDQ1BJQ0MgUHJvZmlsZQAASImVVwdYU8kWnluSkEBoAQSkhN4EESkBpITQQu9NVEISIJQYA0HFji4quHaxgA1dFVGw0iwoYmdR7H2xoKCsiwW78iYFdN1Xvne+b+7988+Z/5w5d27mDgBqJzgiUS6qDkCesEAcE+RHT0pOoZN6AAJQQAFqwIDDzRcxo6LCALSh+9/t3Q3oDe2qvVTrn/3/1TR4/HwuAEgUxOm8fG4exIcAwCu5InEBAEQpbza1QCTFsAEtMUwQ4kVSnCnHlVKcLsf7ZD5xMSyI2wBQUuFwxJkAqF6GPL2Qmwk1VPshdhTyBEIA1OgQe+flTeZBnAaxNfQRQSzVZ6T/oJP5N830YU0OJ3MYy+ciMyV/Qb4olzP9/yzH/7a8XMlQDEvYVLLEwTHSOcO63cqZHCrFKhD3CdMjIiHWhPiDgCfzhxilZEmC4+X+qAE3nwVrBnQgduRx/EMhNoA4UJgbEabg0zMEgWyI4QpBpwkK2HEQ60K8iJ8fEKvw2SKeHKOIhdZniFlMBX+OI5bFlcZ6IMmJZyr0X2fx2Qp9TLUoKy4RYgrE5oWChAiIVSF2yM+JDVX4jCvKYkUM+YglMdL8zSGO4QuD/OT6WGGGODBG4V+alz80X2xLloAdocAHCrLiguX1wdq4HFn+cC7YZb6QGT+kw89PChuaC4/vHyCfO9bDF8bHKnQ+iAr8YuRjcYooN0rhj5vyc4OkvCnEzvmFsYqxeEIBXJByfTxDVBAVJ88TL8rmhETJ88GXgzDAAv6ADiSwpYPJIBsIOvoa+uAveU8g4AAxyAR8YK9ghkYkynqE8BoLisCfEPFB/vA4P1kvHxRC/uswK7/agwxZb6FsRA54CnEeCAW58LdENko4HC0BPIGM4B/RObBxYb65sEn7/z0/xH5nmJAJUzCSoYh0tSFPYgDRnxhMDCTa4Pq4N+6Jh8GrL2xOOAN3H5rHd3/CU0In4RHhOqGLcHuSoFj8U5bhoAvqBypqkf5jLXBLqOmC++FeUB0q4zq4PrDHnWEcJu4DI7tAlqXIW1oV+k/af5vBD09D4Ud2JKPkEWRfsvXPI1VtVV2GVaS1/rE+8lzTh+vNGu75OT7rh+rz4D30Z09sEXYQO4udxM5jR7EGQMdasEasHTsmxcOr64lsdQ1Fi5HlkwN1BP+IN/RkpZXMd6xx7HX8Iu8r4E+T/kcD1mTRdLEgM6uAzoQ7Ap/OFnIdRtGdHJ2cAZDuL/K/rzfRsn0D0Wn/zs3/AwCvlsHBwSPfuZAWAPa7wde/6TtnzYBbhzIA55q4EnGhnMOlF4Js19ICesAImAFrOB8n4Ao8gS8IACEgEsSBZDARZp8F17kYTAUzwTxQAsrAcrAGbACbwTawC+wFB0ADOApOgjPgIrgMroO7cPV0gxegH7wDnxEEISFUhIboIcaIBWKHOCEMxBsJQMKQGCQZSUMyESEiQWYi85EyZCWyAdmKVCP7kSbkJHIe6URuIw+RXuQ18gnFUBVUCzVELdHRKANloqFoHDoBzUSnoEXoAnQpug6tQveg9ehJ9CJ6He1CX6ADGMCUMR3MBLPHGBgLi8RSsAxMjM3GSrFyrAqrxZrhc76KdWF92EeciNNwOm4PV3AwHo9z8Sn4bHwJvgHfhdfjbfhV/CHej38jUAkGBDuCB4FNSCJkEqYSSgjlhB2Ew4TT8F3qJrwjEok6RCuiG3wXk4nZxBnEJcSNxDriCWIn8TFxgEQi6ZHsSF6kSBKHVEAqIa0n7SG1kK6QukkflJSVjJWclAKVUpSESsVK5Uq7lY4rXVF6pvSZrE62IHuQI8k88nTyMvJ2cjP5Ermb/JmiQbGieFHiKNmUeZR1lFrKaco9yhtlZWVTZXflaGWB8lzldcr7lM8pP1T+qKKpYqvCUklVkagsVdmpckLltsobKpVqSfWlplALqEup1dRT1AfUD6o0VQdVtipPdY5qhWq96hXVl2pkNQs1ptpEtSK1crWDapfU+tTJ6pbqLHWO+mz1CvUm9ZvqAxo0jTEakRp5Gks0dmuc1+jRJGlaagZo8jQXaG7TPKX5mIbRzGgsGpc2n7addprWrUXUstJia2VrlWnt1erQ6tfW1HbWTtCepl2hfUy7SwfTsdRh6+TqLNM5oHND59MIwxHMEfwRi0fUjrgy4r3uSF1fXb5uqW6d7nXdT3p0vQC9HL0Veg169/VxfVv9aP2p+pv0T+v3jdQa6TmSO7J05IGRdwxQA1uDGIMZBtsM2g0GDI0MgwxFhusNTxn2GekY+RplG602Om7Ua0wz9jYWGK82bjF+TtemM+m59HX0Nnq/iYFJsInEZKtJh8lnUyvTeNNi0zrT+2YUM4ZZhtlqs1azfnNj83DzmeY15ncsyBYMiyyLtRZnLd5bWlkmWi60bLDssdK1YlsVWdVY3bOmWvtYT7Gusr5mQ7Rh2OTYbLS5bIvauthm2VbYXrJD7VztBHYb7TpHEUa5jxKOqhp1017FnmlfaF9j/9BBxyHModihweHlaPPRKaNXjD47+puji2Ou43bHu2M0x4SMKR7TPOa1k60T16nC6dpY6tjAsXPGNo595WznzHfe5HzLheYS7rLQpdXlq6ubq9i11rXXzdwtza3S7SZDixHFWMI4505w93Of437U/aOHq0eBxwGPvzztPXM8d3v2jLMaxx+3fdxjL1MvjtdWry5vunea9xbvLh8TH45Plc8jXzNfnu8O32dMG2Y2cw/zpZ+jn9jvsN97lgdrFuuEP+Yf5F/q3xGgGRAfsCHgQaBpYGZgTWB/kEvQjKATwYTg0OAVwTfZhmwuu5rdH+IWMiukLVQlNDZ0Q+ijMNswcVhzOBoeEr4q/F6ERYQwoiESRLIjV0Xej7KKmhJ1JJoYHRVdEf00ZkzMzJizsbTYSbG7Y9/F+cUti7sbbx0viW9NUEtITahOeJ/on7gysStpdNKspIvJ+smC5MYUUkpCyo6UgfEB49eM7051SS1JvTHBasK0Cecn6k/MnXhsktokzqSDaYS0xLTdaV84kZwqzkA6O70yvZ/L4q7lvuD58lbzevle/JX8ZxleGSszejK9Mldl9mb5ZJVn9QlYgg2CV9nB2Zuz3+dE5uzMGcxNzK3LU8pLy2sSagpzhG2TjSZPm9wpshOViLqmeExZM6VfHCrekY/kT8hvLNCCH/LtEmvJL5KHhd6FFYUfpiZMPThNY5pwWvt02+mLpz8rCiz6bQY+gzujdabJzHkzH85izto6G5mdPrt1jtmcBXO65wbN3TWPMi9n3u/FjsUri9/OT5zfvMBwwdwFj38J+qWmRLVEXHJzoefCzYvwRYJFHYvHLl6/+Fspr/RCmWNZedmXJdwlF34d8+u6XweXZiztWOa6bNNy4nLh8hsrfFbsWqmxsmjl41Xhq+pX01eXrn67ZtKa8+XO5ZvXUtZK1natC1vXuN58/fL1XzZkbbhe4VdRV2lQubjy/UbexiubfDfVbjbcXLb50xbBlltbg7bWV1lWlW8jbivc9nR7wvazvzF+q96hv6Nsx9edwp1du2J2tVW7VVfvNti9rAatkdT07kndc3mv/97GWvvarXU6dWX7wD7Jvuf70/bfOBB6oPUg42DtIYtDlYdph0vrkfrp9f0NWQ1djcmNnU0hTa3Nns2Hjzgc2XnU5GjFMe1jy45Tji84PthS1DJwQnSi72Tmycetk1rvnko6da0tuq3jdOjpc2cCz5w6yzzbcs7r3NHzHuebLjAuNFx0vVjf7tJ++HeX3w93uHbUX3K71HjZ/XJz57jO41d8rpy86n/1zDX2tYvXI6533oi/cetm6s2uW7xbPbdzb7+6U3jn89259wj3Su+r3y9/YPCg6g+bP+q6XLuOPfR/2P4o9tHdx9zHL57kP/nSveAp9Wn5M+Nn1T1OPUd7A3svPx//vPuF6MXnvpI/Nf6sfGn98tBfvn+19yf1d78Svxp8veSN3pudb53ftg5EDTx4l/fu8/vSD3ofdn1kfDz7KfHTs89Tv5C+rPtq87X5W+i3e4N5g4Mijpgj+xTAYEMzMgB4vRMAajIANHg+o4yXn/9khsjPrDIE/hOWnxFl5gpALfx+j+6DXzc3Adi3HR6/oL5aKgBRVADi3AE6duxwGzqryc6VUiPCc8CWqK/peeng35j8zPlD3j/fgVTVGfx8/xf3g3xEE3j1RwAAADhlWElmTU0AKgAAAAgAAYdpAAQAAAABAAAAGgAAAAAAAqACAAQAAAABAAAA8aADAAQAAAABAAAA2QAAAAC9V47HAABAAElEQVR4AezdB4BlRZU//u6e7p6cgCErAwygiAQBAREkiBGzrunnb0V2V/25urqKijm7riv+DSsi5oSsuq6oa0BAUECCAUwgyIDkNDB5pif9P1Xnverbr8O8jvN6nKK5U69u3VOnzvnWqVPh1m3ftGlT27awTQJbkQQ6tqK6bKvKNgkkCWzD9DYcbG0S2IbprU2j2+qzDdPbMLC1SWAbprc2jW6rT+ffiAg2tjVO77TnhPb29r8RCfztVHObnf7b0fXfSk3/Vux0f31uygZ6K7PSZbXhb7n/2Wan+6N9sqYUQE/WCowR35PVTtNfMUXiPT09U6dOFdmwsW3lypVLlixZunSpn8uXLyeo2bNnz5w5c968eTvssD3/2cppeNEbedkdHO1NG8XM1Xf0tvCOtta14OpVtC9e5JBq095R5zvVSJ3Wrl3bNbU7RXsz5l+E0JAkS6ZcaBbK6YHJE9qrAmpNtouI+7MHi+QuA+zecMMNvxf+8KcHHnjgwQcfhHJ3169f76kpU6aA9YwZM+bOnfvQhz700EMPffjDHw7fSYPtciX1y1OlP1kwHdWvcR4ttYLySId1yF6zumfDhg2b2jYQ15SOLiZg1szpRfsi5FCE4GcAejLCehJgugq1Eo95DJD9y1/+cuGFF/7qV7+666671qxZQ1vTpk3r7OykP9cwveJ0A+V+rl69uqura/r06QceeOBJJ510+KMPRTOQ4VpMdStjughBpIBSXDXhUu0Ckffcc991111344033nb77XfffbeOy61lyx8kFtXXce24444777zzIx/5yH333XfB9jsEWSIlBKIQgn5E4u6kuE4OTBezUWTKwt58y83f+ta3fv7zn4MpHFMYMwPTtEK1NEE31OwRyakL7uqKdD/hOzWAKVP23W/RM5/5zMcd+zgeSC9xlqy91w8p6a0ZCVgX5OmmrrrqqgsuuOj2O+647957tVdC6O7uVtkkik4ZUwoJCCLwrfvaf//9Dz/0sCOPPFI8qpnyheFvzWoPztXkwHTwD3Th+65ateorX/nKBRdcsHzlSk5FKLWmiY11f7Je534J6UZvI9m4HrUjjjji5S9/+a677lojUvO36yRa5t9etussRUOMOt//wJLvfOc7l19++a233trdNa2jq7OrY8qGtk0Mc4goXzdWiUCtli9lxYoV63t6OGZHHXXUc5/73Hlz5xE16+BZRem1xLWKSYHySYNpylu3fh0R60w/9KEPcTmM+Th9SeL1sR3ddBj09Q0DYrpkad+U/EuWnn36P//n/5x88smUR3OdHZNAf6WRq8L/5HDPPffMmjWLlNbxnCtBjeTJiIyxY+Vedr3UmhhZbl3Z9vPn67ue8YxnSAlY67UmBZqjVpMD0+E9t7e1/+j8n5x11lksK0BTAOWFd0FhAh0Y74X0/YxIR1ZuILskFpXCtLgBE5pGls973vNe8YpXdE7pTJMjWdklZ+tEQhqFn78sXvyJT3ziz3/+MweMj2Fc7NZ6mXIVSrY6KBOmi4h685gxyabBdc2q1Vy1Aw444NWvfvWee+xBMihLJ//0bKHYqpHJhOlzzj33i1/8osFNQDkMal1VNQG3t9emLwp8A9O6YDlLotwRh2mWSZzaJN53332PfexjX//618+eOSsoN9BvBT1WMf2zSy759Kc/rTXqZzTvkElp2+qFYRUsbBs21yrentwJ6SqYMnS0cy3cksjDFlm9ctWcOXNOPeWUE088cd26dUYjMM0haf3Rc+tiuqa5TSS+iSP3X//1rc997nOkDNBr1vUUqInQZflZlDfcCC1CPzQsW7bs4IMPfstb38ynZJPoOEZXQXD0BQ2XscgfQCxoBjIYPPfcc7/2tXMIZEqXS2dgtIF+qlc2wCKCu6og4hrBUymyqdd+BwVPybZi2bKXvexlui9CLrAG7la21lPe9a53NUihRX4SP5lu3ADQHRdeeJHu1XCQRUk6wGJ9bSGpo+5mjIxzFDyYrqnxpJnsxYsXL1ly/9FHH13rbSsajMwjK2g0T0W5CZI54PNrX//6l770pblz56UmF7a2frf6rwdlICKgjB4JWKUAqEQhKNfFmR6NFJlFNBazKCKPOuRRGpIHw1qHZKoFtU685TBdpEx/RNne1mFQ+IEP/Vv31KnWw9atX79uw3o3wvaMoRwVZVyodLrklf7xj3+QctBBB23ctNH4qBSUONoiIYmjNt0IT9///vc/c/bZc+bN7QTNvA4aEAzW1IKHgNH4S64yZIMyg52WD9P80UadW4pYeowq1cDt2bQTRlpuQKLWqkz/a+rm+/jZnWzMlhJCc5JvnCVo7qlxzBUSLgbJAOWjH/0oUSrSoNDdZCrGQaZJlZmsfkB8u+2207P/5re/GY+yRiY+XMWDV1515cc/+clZc9IkJskwnwDtlp+CCJ6rbJuxts4qp2xsAYNtnkeK+buY6Iinqg+WFInyGEN/5jOfueKKK1j3AT0c2VontOJ+D14jU0QBUAZYFr0X7LxTwJrgOI6uVaGPRpp0X0iFXx49wLoNG4Dl7LPP/vCHPzxrxswoouTsUyIUQVK18+5ze2x+MMYIgZetLADNdupMyKSdnc0lBIijOpq9NOZAjXbYYYcjDj9077333nmnXTVUI2xQvvfe+w0b/vSnPwiWG7u7O7umJVeEbD0iIqDgingIRHFgvccee+yy8y4U1MojxV6NZsm0xCVGQhYD//rXv77hdW8g6HUb04xb1d8IoY8tuzFDkhTZ3r52/VoTvUvuu+9Vr3rVM5/+DAWFkRugxI1J/eON6Sh9/cYN73//+y+9/HLQ7OicwkJ3tNXmefAsYF6ASxu5Fi1a9OQnP9nS4ILt5xPduh6riRZfErNpArN9k0nn++67/4orrvrBD7534+IbeRee1R4C1imfasU/+ao41N7ylrfk9GhKldstE63y3BJMESs+XKnh29/+ti6SqsSrXV7kGVt2C03FocwsxeL59773PTxIoWlmcmwLbZ5a4PWyyy4zYmOkcYuf6uPBP7YxyQqc+tJTzvjwfzzzaSfvuP0OxgnMaldnsuj+T39TGIhU0TlzZ5188pM+/vGPn3rqqQiuWrEiOXZ11w7NCObw/CF76aWX/vKXv6yW24LxlsN0CNTV5AMVMh5hNgiUfEOCRehjKNABaZqptc78k5/8REFcSWHAEgtjA94dq0Ry+OY3v+mKDdxWQxTBlnOdTVS/+93vfuELX5A33+ahYr4dvVzy6FJI7pLAKnPIkXr+8573oQ9+8CEPeYip7jJiiSJk03P602CEr33ta9zxTLJFL62CaRL2F7IjKv70L37xi2Qgp3TEEiD5SqeNkmfMJaqg8pd40JWbzJo69YKLLtTpJyAMGPKcwoB3NpsYtR4sm5r2yqS9/ZKfX/rn62+cMX1W2jHKKTDVliYt8Ig1QJ+yasWyRXst/MiHP/TI/R/OGDPMYZWr9CFbvcx/+CPQrimd06Z2yblubc8+ey/60Af/zR49jnhC8LSprhusD7R1bGo3hTeF99LVOfWmv9x85RVX4yBNQGWNVOm3QrxVMF2VBTdj5aqV9uLE2l711gTHqZ/RMpl47bXXigsTzECap0tNPaH7Rz/6EURGrxXmFjOpkedJD+1/9913f8c73mFQuD6jbVisMupq59m3ve1tsZcrnL1c6VRrrV1cIgb+93//V4odBEqfeJlstl6tgmliK3ixn8wWJZ3+gH19+HabrdgoM4S2XMEIrE1jjZLggI9HrZUilAwNP1lhSvKywx//+EfICx+sICkyu5KVnSq2RKOD4UKtyQikegpkd9pxJ3TS+0IVGxzvbrorj6Vc27LNcsrAVPfy3WRJ45+tVTDdR6ltm7ywogcMF3D8hTBwCYUlirz++uuN+kvKwA+MUWoxjUEv4HvNNdf4aXQIfNVysERKZGWP6GGHHWZ2D+iZ1GqeZuLqiJRrz7qeQw8+5AlPeALX3M/qs5EHsoVf//rXbqUGFmsz1XxbOt4qmA7N8fH8UQk7HSOhLSUflimMU2jOeyImdMeLmVTjOgrZvTSA6zV/SSCb2n77298qPaZiREoGVnzt6tW77LTTqaecIt0YLt0dPs6CIC10d3V7/NnPfvZOC3bkZEcDSzxkDmUTAe7fXnvt6p61+IZvJbZUaBVMV4WyfMVyL2JRT9Fc9e4Wid9///0333zzBBVdcVLDV77jjjtM1WvkQgFfMENKUHXMMccsWLBASiBvBHyWB6NtoWZ/4mB4hWmN3AyJghps+QiKHvNHWhHT3py79957WwrT+nd98ZhLPwiCUd1K55jZihzAF6ZNPtx1z92xjGruOcaIpbXHbPSxxx4b6K8T7KUXKc1cC6wV4QUZmDZGLwWJRAZX0lj24IO3LF6ce5TeLqWZUiYgTytimnkQijQnQAqDFVF44EwzS0Xrg+Uf23SlJ0xv3Gh0yGNWergWIFU4gT/THWYqJJbSR+x7oKDQ5De3bbIM6Q3cUlCJhExwZRAvv0gpt0UivYLYsgyRVAgLG/S0xSUVsyuhSCMhiFm9do1hPqtZ/sZDYtmdrhH2xpT54ykdU2IhEzMkUwr1U2C/d9llF8v4bhUBljzDiCSnPa0PGEVowKjNnD59j4c8ZNXyFbYMRFmolciGdevvv/c+fratIqMqdxgsNpu1VTBd5ZcKYZr4WkRYYReNz9I7XRMYSEDRJiIIhCddFUjBFhHBtLEa4ypxTLhTVpJ/WzvK/QkqUUFmFcdx0Ny/1OGkTKiShsPYFs5bBdB4sxIOaeAx3IZ6SvvS5cts/LfFwkvg6fWzjKfgrTT47bffvsHZAMfh8oxCeUpEQMFLn0Gntrsr/0j38tTHqhUrJRQ2ImcrXFsR0/Z4JO/QZt80abplpFRVFaPlpwFTvLg+TgzVSqyg8acX/PTLX/6y4bJtJwrFhqGbqwBVwUZEwicpUxBVgDbPbTQMgBYhf1cFVeVQSEnkn0RxRj58s3KrFSKtxQ2JJPR024LQZUSvN9WpbkExQQx+IIb+LNFZ4Kwpvm5IE8OZvwoUR8Kv1sIxhSHvpPDazbF86tOfvvLKK5U7I59tsH7jWsys58yHFa07ZhINH2VL4uq7RDIsPnjG8id/OkMZprnndpCrPrKAKyXqqL6R6M0Zj4ym0GFx2HzmVsF0oIewsG7EM3/uvHvuu7f5aoxTzuAnrOD8+fPHyU6DUVqQyyuC7J8tU8zz3ffeq79SL6UnrNenNQhKYjAmAm2mil1jSmTEckAwKKOgrATizk6UA7KhndJu/cRV7MbB8CiLHjHPgz3YKpguSsKo3ZLmp269/TZbC3rMNGyJEIuIqRum7ClTuqdNswxR7HSVo6LpauJw42EI77n7Hmh2/J81cAfHqHkAOmM6aaqKvCgCb/ctWQJk4TMMt9ySPxGoB6SipnfdcUfVr4geqZ6rzUyfeGlsJX2LR1pu3iPAvdeivUXCQG5ZGVF2zJeZBBjBfrdmmEcfMn72s5/967/+q/M65s6fD0lwDOgex4C7gbkAUIgoKDOW9hHceeedG/KrQM0UN3QexHVH2rKVLzPQUW6UKI4r8RTa23bbbTekeIlDE5z4uy2EaSITktra272iTFhe3xpQIkQ6YPoYJqatyWk/XPpbv3b94Y86vLtrql1omDM1mznNqs2X0HRD6cnv7JtUJrZFbMiOqwhX2EkPXnzkGU+bNsPssM7JX+yT7mzvnNLWO0/Xi6pcdFdH19IlSy+79JfOnElTF+Wv4p/05WKoX0n06fyDJHlviD2wdKnCOfGEYW6vhHA8dn/oQzYYRiqyYuNLni0YaSFMV6UA086RHQy7EyxEc7EaGLe2u7sL4Do6Gh224Gcwbqv1SgO8PBoLi+sWW/j2t7/djmQeVzUnanxZlIFYegZwQg88VauPDnfW+xPr1vXZSyR/NVuV8tDx1Gg3pvOcvN2DAh4aSCkRD9svWLDzrrumW8OfNxyagdHfbRVMVxVApmDkMCQGrKGG1WwNt8b2J20VgqbSvDT1D//wDxdd9DPrel5NZZzSm+I5yBZcNfDGrvWatkyM+pN/ns13gPv88893jtnixYvTANTsSleXKbT4cw5N24aN7Rs3EYVxGP8EvOC7oRTpnG+H5V100UUVlmsslSoMKwK1F190EZre5E3H4dTnWJTuVvzcd9Gi2TNmRnsL4lWJDau4Mc/cKpiuVsxqMEvwlCc9ibPYoMKqEKuPjF+cqjQtujRP/O///u+nn/6WX//6NxIDmsoNHRfFVzlpUHN5RJ41a9d87OMfQxBedQKuDZkR5FULJh+YcDuKyAQbDf4rIy3d9Rvf+IbNg9XSRxy3KVIbVhZp40q7KloQ0bSU6JAq1cFe8eNLnhGXO1YPthamQ69h3vbaa69DDzlk3Zq1ne2mlWqHwRH0WNV8aDpFQyLW8Px1T582fdbM31x7zTvf8+4Pf+Sjf73tjvCY01EIPAQG2OuMeTdIoVyIhMVmm/Xpdk+Yp+Nv/OAHP7BQpxPgWyTUZHOogtGEVNlqvInq448//iMf+QhzboIc9OGsl2wuyU+YtsXKYZA8Gz6SK0mGMAszQ0fCWMTVQZu33XGH/gHleEEzqPmJveWrVu6y+26+soCg9AnTyND8V++21tlioS2KB2vvTO2wYIcLL7goya7vUTVEGTmrNRnbeCmioSBz57To5SV9ve0f++//cABKTraXUOthMBeTYdMFXffn6701eNutt5qpVEqyhVVjvyG9nq1Q40Vdv9NFTjnlpXBvgcPkhtciJQbylJYgVXdwPIKrFStWHnHEo90KxyjyNFShzmaff5FK1Do6Pv2Zsy782c/0DLSgIDCOfIigKb585YqnPvWpR+ZSgvJg9e1TwAT+aC1Ml4qTpgmBnXfa+e6773FW0PSZ6UQLITI0o6RCamSRUkSJBJ2eHi+ZbpwxY+batWsuv/SyP/zhj17g23WXnR2rFzkxGboPbvs+3n7+T89/z7vfbQgGpjK4m7LVHVZFTEnn2nUwuj6z8ta3vtWBfRCTnNi2tp132cXhEIx3oSln2k1XD2h6583WooMOOrjTZEkGPfpC4a08W3+o9i93QvjcFz7/3//93135ZRl9Dsasa8rBxccArwPQ586Z86r/9/9mz54lXenSB6PZUMSE/Ww5TFOAyhOfzR6Qvc+ifS+++GK2gR8ZtyZMNAGForCIdHdPhSQ+QGdn16yZM7z8cvEll6xd23PgQY9MCKPi+C9rujwbPH/9nK9/8pOfNEiQM6ygdKVwWkvOtavT+XennHLKa1/7L3PnzoGr2G/Xs279vHlzH1y69De/+Q2voAghWc4cglvEbbb+05/+tM8+izg2gVT30Y9Qy93vHz60cwkvuPCCdCBOlr9Wmmgm0Ob/M6uOd2Kkjzvu2CAQrRflfvS2ZEKr7OdMVoE9yNIjSnHiFMj057/4+fve9z59bjaFSTUQ77Sx0GLK1HTwbBAf8Ak4AxczCe5Ocdj6hg3glfr9+lMpUtl/4qecqUtZ27P3oj1PPfXUffbbz4eSbHqWriC3XHnG6vPxT3z8pz/9KWpuOfPF91aCf3nQcdVoLXPsvMuOr3nNax71qEcp3flJMqe7ztnwc0qnt9qc3W+0iqaG4W7bQBOLKE/r7nzKU57ibLG0ay91HSmzxZRYIFRcPC5iZGnl8n++c55z9Ey/uDpTJVHOVdiwLn3byYAGkTWrVnn5wDw6z6T4PJGzpa6tYqcTijOCe6WTMQ1nzh0kVt3uvLnz3TWESoP9fkOl3gcHjwWM+t8PdMaIHlxYo8MPO5Qva/LYi4DSYR2q4CB3tn0ISHSk+b333G0hcPWaNY9Iq0XdvIuUOQNaI/nIR8/48Y9/DNCqgw6CddtXs6Ay8zeOOeaYt77tLYv2XgRq8oT1A2js6baUquJ2DVxwwQUi+EStPacXhuRUqJ/retZ6LfeSSy655ZZbNCECtHsknciRbEWa5Dad4t1vHy5zUr3pbStKCEpPFOrkxKd2m5jfwPvB0to1a173utd5/8X9sN/1jK3171B2ayI5HcJOmy2i8jPPPPPb3/oOqxM2pmdDWswbLodF5QM+GEiyAd8RWx98/3s5ymbceD7f/e53TdbqlAVnEVWeDXuWFzvbEwp9OsPXRBlaindEBiQtW7H8Pe95j/ObHQfjQd4wC6eFrK98Qwg0BZ8FetnLXuabnLJl0PeWkxhzNnb+EJYqfOELXzDXxqaCb8O3iMoz7LTGL2ifHuGHEJ1RqXYF4nxuTUhAWQdIvO1T0jsHfroiEg0jUduYtpLKYAbmBS94AadofU/+DsbwhV94G+9I69rpJNpkDfK/7e0Or7jv3vsN/AGL5UgnGY514Izq/W1jMDh7yO67KQW2oNMbrKAA1vplNrhSbPCQ7VoyDpvYQl25KRG988P2e5ivYL3r3e/m3Qb+AjF80ISY+nxCUPuXf/mX5zzn2fDkzHgp2Uj3VpDnANClXANH5xcvXrxY2zBpgloAsQpHS4Hyu4WTeLNL1fCGJVA2qYIZt+BVw0sUOtL4z0/ppSARr44hq6060RSTUmikoclV87dCvBXttG9QpA6yYglYccELgf/1X//lDEJKIruE7PoeGnfNpCbdVJ6qyhcoIpQMiWLOLyXiLLQPJbKyCxbssDH3wGGHKZsbesedd6SPMv70Ivhm29JUcS4xrfal/rp3yRpj7PHjHvc4/bsNRoAiBLelRN8mFQcvnyR84xvfuN9++9gazUOWiM88NEOzxnQ8VapDNsuWL3MIGFjPnD2XJQYy9DkktcfTHF8vNEsiPoVCJ8jG3eKX+8kqq50IgugQy/4HHPDOd75zThZ7PN7K/nSLYjoJrmKJ6ZaC7TzTSV566WWf+tSnHC0OWHQZKmFd0qajDIiis2okMC1D6DWuoTyGig1zy8cRLYBPzV+cL5gGoFR0vfe/9BeXf/WrX4VUJhmmEx0lczc31fbQKVTmoIk92TgAUuRxK2yhDoEPo1Dr/6effvr8+fOw765196gCTAer1SqUOMA5Web+Jff7TuQ1v/uDNuaWIrSckie++4g7KUEzbpUUEelCpFQxLWc0EjyvXL50v/32e+vb3851sU5emtk2TBdRDxqp+tPsdMqXMR1Cj7sxBUxNf/3rbUY2cYYd0BSiMntpr/ysRmA6tFhTYV3ToKAjNpz/+7//+5ii2pC+itSrvEIEHNG3JYNnee7Xz3UuNZXDLiQlyvnb9JE5eJaecLwxLa3bvyZeGICYZUtXMOSv/ud/njNn1pq16T0o2VOTRGlzQVPy4i1YP7j0wf888yyuTizflKohEN99LPwUktU8+CzpgengHMMstCsL/cSTTjQu1AgTzW2Y7pVXE7HBMB2Phu/hLHA/mTSYgzzne3NFeJbcSgACCyoZAtNBSh6ZAZTOBEM3Z8M9/elPD2NJ5dqMvzBIoUVXz9o8He+Nu6V1xed0re3Rt6LZaU9qIXIqAtZF0OcSiMugRBnS6HD9en75M57+rJe//J80W0+YwwHotGieapj8jmIOg+e4BuAiHnkQ75jSec43fFHua4gDYuI+hyqmcRXpKKRmVg9+1qN95gTRMYh09+/+7u9e8uIXltmS6rpSK3+Pfaj+urfCrReDcnpdtXqVeSjTq8ZhfNPwRgJDOmj6CxwkzOWgHrxPVzr2iZMTTzzR+A+s4UxmId3KCO71OjNGC1aqkvB2mUblCF2J06bOcDVtp8GET1LPGX5tIClZawO1l770pX//kpfUM/T5d7A+PdDXh6v8HPRj+Pd/+L2PrWhmaqqNwXr4WNHG+jLfi2kE8CMPKaWeKf80EtAU+RuYtKkjsItCXyJ9eG61H5MV0zRgoo1KwiI6UY7ZtopuOpmNYQgphoITwrJ3QSXms4SddtrJdJtFDQrLmqripFc7VWyFPeuvVKv3ptiuuPIK/v2999xvQkZOLFkPisy5RQUaa5iWbjrMUkh6fXigUC23en8wTOs9ohPQLDkhph0tbcJ0vJnL4qaxbEZtnf/cbmsrRwnNmUnf0WvjaRCa+e/nPOc5j3/849Okis/qdaYOp/ZsfyaqLLZMfLJiOnwVYiR3wIo5bBZr6bI0Y2WlDaw5vu4CmVGUqRKAZpJhGgjiQXdNaHi2UJCOCOMX2KLvlDIQ/tyCaf0ybCrxrM98Np3CET17fR3Og8kbqgdQk2JQqEVxR+rJtRJTQcn7GDgMBidyiE4mJrCNDXzwRddx4w03adudDk/QsLNPohXh2eSKAmLEzE+Tn+uj5Xd1TzFFeNxxxx166KEap6dw6zpYGxuYy9ZInayYDh2HDMPTDR8ULCKx+o53cS3chWBQhq1AtswB4rj6GXZrMEzH3SgivHxrKzDx6bPOPu+888JUp8NlMoBytt45NYjHCQr//M//fNKJJ5ayglpcB8PQEJj2YDRdlGMNXMqf/nS9Xuu66/+4ePFiTc4WOwv9iQFWm9eeyfFSzGaYgN9nn30O8L2Mhz08PJm4IkJWsT4fvE2W62TFNPkWeEXENamBJaqHSAEvuhxsOsHdevZh/6u8aEhnnXXWt7753yYfop2kF/jKHFl9nliKu67wxx/4h5e97FnPfJbWmHir8DAYpgdjLurIpy4haho02VoCue2228wbPnD/EouaFhE1vHlz5ht7POQhu7kKnq1S8LO08OHyU9jYgpFJjOkBpVZw5m5Yr8g2HrpZu66HN29Sz2b8WTPnwI+ygImdFupI7W1jUgKCsq1cvvyFL3zhKS89pdrJSB8unwXTBYVVTJOAoBsJIUTmOmOJy2DYNcbc0UQjc1yHy0/12S0V75XyluJgDMtNSqrYvKqGQjcyFI2OvlyIsGfwgx/8YFpYWZvGaoHavvOJvZiO0oMBW5C4+7bOWbascjJcDAUui5WFbCZbohAFuYI1oLsqSHK51ZEm1lNI6RUmQm6Rbbj8VMhssehWhekG3eSfNWWNRjcFBA1auv6GP7/hDW9gqmXoaE8TLCIJQNYD603LGJF3IT1CeBrQb6Qmj30UT3va08Da3XhkuHx6MFUz+x4ALZ6j6bxdBGsWOmSQc7rf2/DzUnyU2x/TUdnh8tMgoi3yM+aYtkjR41IojVb/qCT+RlNYaD0o6KPT0LCt7YGlD9pJbMzHBCoirY17ea9jk4mQtHjoEJCeNcccfdT287Zf9sAyB3T4cxZHh7m+TR09q20r3GR5fPasuT/+0fn/8eEz0kTLpnaJKKMf52ZEWXEdjH+8CVHHqHjk1NKKy1GTiAWe9JdPIKT2rHnPRv4BhSbvYOW2cvrWhunxlnXYQhMC9r6aUjDAYimjWy9FM8aGYscff7yNbD4pa6OftRjoCYdb/hhKJjDmlUUnIvg6spdl0vJ49gKkhwEuNLdFmpfANkw3L6uUE5pdzznnHPuqt9tuuzS/y+3orixMMOEPPFB2Zu6++65e0vEOfEyWe5bpM9MB9ymepxRNmPzwhz80ecJKl+bhlgzbwggksA3TwxaaI3RtzbOOA3bmxdJ0WXIZatMIIo94xCP42RZB0jrIpjZTZu9///vtYuXjuhtgDZvtZ3jhloTA+swzPx1Yl74tjFgCrfJOwIgrMAEPAmyaSAbG9vY77rzzAx/4ADfasjNcJkSm3abJ/+C/8jGsVr73ve+13V6a/HmeIR2UaBeeBXz7Uqw5e7BgN1NNC0DyuNvTs/aAAw5QKenVqoXPU03ZFh9MAtvs9GCS6U3n44ZZBVkvftvpzzzbGlF1eUHcA5BqZ6bDZYoZjjzwaeOgvf9PfOITLVmDby/1bKpR1jxYay8ImvBm4KsZtsWHJYFtmN68uNhIdtTujq+d83VvFnoRy+a1AuiIuNoD5JWCgw862HSBJeWwxLVVQpMj7Wkoedppr7e11QsNUWqDMZaobdga/sMf/VDmWp6JnHzQJSU3auAw5M1BHiGXHAa+PT6p2zA9sFwpwo24cjxg2ifHv/3tb3OjzWnAa+9MWSZgCysbbLLZPhMJMbMRj0cBGoannG3klDA5eS+FvnQOCXwbcSIr/p//+Z/xQe+UZwiUBelWvVarP5E8jhzTA7baUg07e9LrKvkvOZ3Cho09a9am7Q/1v1oH7Wfq3c3DJgxVw0QKoqGssKDWMrBl8x3fwBHRkNrR2T2la2q78z/apngzwF/MNztc+B//8R8DuGVGGZEyKcw7ttDi5D0k//V1/3LYoYc8sOS+7qnOUFy3ftP6ng09zjCd0j1lrWPKOrtNpXzs//vEbbfeYXmygbHx/YnLPm58n9IGupl0GSpzzAkdF/V5UvVL8NOtIBfyKVLqU0YlW0N68z9HjukBy1CHSBcB2UCzeNQnnM7yYBgzP50/k6+1/RIlQ5FCSZnISJQOptqaibabbrqJG11lIOyrOpqMe+1rXztr5ixGWmLkGYx5GfjTzoA0arRjLix0kVs8Zccct9tY047ZxEAdDdXSWy1eqhCMFd+p8FlgECnqVW5VIw10qreajDcrr2hiA3NRL4roE0OVrJHiahHYBC1rp/OVHUyEBTvtOHfevFkza6+IUjZBoJCI9A01yrkR97/bN+/Y/GJFhGiT3ABvTcfkXZzDFHs1lYQZDsNpp5123PHHasPxmlOVgyGW4kjjbe94Owd9zrx56CguE0zr6unw6bY2sLab+X3vfW+9mSSeJqb61SoMNx4VyXVp1GOQCtlGRchns/mHy0AvxaGfrAB16Iy1uxiF42uuueZ3v/udo4DE491scwNFMTNmzjTSX7T33vvuu++ee+7h1EOwdrc6LVAyN1Xq2GVSX+YZ7Ewqm8rAP96owZ56V7N3isKndPuQ/vVfX+ulV8kNTrY8g2GaP42gT3o60uCOu+5STZkT5fa0H3XT+vT2AGuN/ote+EKvemFHytjVbxwplboMVgZMl1tbEtOFiYaICoSsKcmbUu6uXLXSqsQll1wC0EyXKQLdK/0JKaeNDfXgVnp1L47sbt/o9CMnhwsL91gIT8CU/NdYb8sOwGD4qNMby39ZaKGjc8rZZ599zrnnpuNdcjcC02lyOp+Ip3ZeOD/jIx+ZMWNaVU9VPoLnIqXqrVTBrk5v6ToihxOiskk++fy76AfiKbbACs6TnnhSPDsgqSrZiYyHlEpL9lMVBJilQZyEg9EQzzpPXnjCxCAeyGhq0aydbqYMW84dc/j973+fYeY666w9RfHpVA72Jxk5IVlifSs0R3BLhEJ14j7xoAE4g/5FL3oRuIT+CqzrT9QeHO9/aOia313L6zCThweSUiJMp2GA8W5+39HdQw4+0B1bOPvzk2ra97ylah5twxgUNTMq73rXu8yckBjXLOSToEFieUZP6e9/33v0Zh4pAKqSmvg4xkIvUXRoSlxDNafp7WOvPGuohTEbY8yB+naZNSnvy0W6F9GrmFbfkn80kTHAdAia0/mpT5/pFVcDKYBmvdUTZ3SftZMufjLraXdY7rtlqG2STJk30KjZD0Jhv4nAty/smg9THeKr1n80dR762YJNU3hvfvObvYzdlQ8wwENGWOpnvObnlcfnPe95r3zlK/JKogmO8lwf8kPwrPapwWvPnZ1XXnWl3U7walJFShBzl9Akpldfd9vljDPOiEF2SLJPMRP+Q21j64vlIRHBie5OXLGvy5qUCXh6xHbhK1VtypR4JXTPPfd0WI+hwswZzqrNBjusdXbrAhsJJCMNo8W0yliM+PxnP/fDH/9INcwAMLdJE93dsC6iJmFsgkMHs4mEUQPohOqMdahW7fhMG/QQx+qVK72R/4pXvIJ9kiJ4agLUGdhkea3neSE87ffPFeE9q6CJafw7nHevvfb6j//4DzvpaucODAfTap2EUDdLvh1ncHne986zO2/OvO3cjTFiyC2yrVyxzKy2Dyi2iKn2jo9Dc6CZx++jYUa6DloJjTNqZIV5Cg2lJ4nlHsbV7H4ketn5kEMOefYzn6VDjpSwX+WREUdGjmn8YeK22+/82Cc/8dtf/XrW3DlFSZmb7Ggkw5z0F1eRap6SmNN7V4PliWypoW9cn99IfTxMh1Fn+cjLz1zKWF4CzTEfd+cdd/NifbuEejCDVSUqN86l1pKZ1UcdfEgpPhguPzcbUZZmE1acUUCfMDUhx/Tb7hdlKaXQgQ9duRnDp52clnVK9z1ya1ZIDxmpjhP4wUDMMGMAP9BsEcrWK14TKelmXavfHS4y0d5TPCNBad35S2LAbQg+c9b0ww8/3OE4TigOt1uGURqvEe5hCkDf/NdbTn/b2/gb2++wA61QealGUlkOUqrYldbws54t2++azU6a8iA1O1bTkTRzZs+xqKGXkkiy6TIOgUwTalOZHV/84pd0ptNmpBOjISxKdHVPR/SsZz3r5KeeXGVhBCyligSJRDYd1KQ7VqjRCMTgpEofD0YajnU96qij5s+bH+rvpVDNOqbxmhYzTcWFlrEHyra+XH311cTFUY5pAFWA3lJ+kQljlGCab6CQsuXZLc2AS8K7o2Iz8TZv6a9SLllH0SePENPKtcvs7e94+/1LHpg1Z/YaW3DS+0u99QlMqxXuE1qz5+x2GmE5ccI55MxeveGmWvQbS4VSHfxoSuvKK64w87DvfvulRDRTratlITAmIfUA4OVYo7M++1lr2YiyPapQqJuz22XXXd942mnSq/Ut+is5h47gPiqAuGfDNxVxko7DdxgwIK5SSHk2pC/eOn7yuOOOI0N3cVsOP6hmHsN41Dw3HmJPZy2sWLnC0v3Xv/ENB8ibjZUhHRNvFZET1lePVZlEZV3DQLiF+RzStzBFnADPgdl3v3132G77dT21pasqheYrNUJMGyFZCbPxcu68+etys1OkCmOuzkcvDqI+wdPaHt6p0VcK8F0Y7Y/poKPHSvrbtMl3AmbNnu0IpXhkfDCd/AHlmr+74ca/pDFrdgkqlXI02QrfD9h3n33oUbOs8F+tZUnefERxgRXKhuy5c+bu/pDd2S22MOAeVzygRf0wzWFl0jDAqo2w1M3zVcvRq8VsRxbfvNhUD/NMF4nz3NpDU+ICY1VoR3r8DD7jGjTdFXyvTNU8qFK+KeNNix2238F5I1JqD/YxlIX2UJFhYxoWgfeMj370d7//Pc/Pt3MUzi8EMloJVgzP7QNWLKaJfuWKFaYyKImt3XmnnbabPz/gsmzpUp9TMB5OXbtPS2aUiPeVI5KbWPXuqd2asrOCFixY0ICnoeo3nHvcRIz85pprvvq1r/myVvCv9BD69O6py5cuO/oxR53y9y9llLzuF5WNEjw4nKL65M1WMJltXQR8GzwZjJpHMs5OEnSGbx3fOCE6cuCBEH7icFz6q1726EKhAt5uuPEGU+mmNZx0wypjLULIITlQFUAn3ioyqUqnmk66kRMRC3Cul11+GfP/sIc9LNUt92Bh76oUevkbKNbo7A6UJ6WpFcjG9ctf/Yr9kLyoBGLrXsquwxBPAlaYMMjjetLQkY9+NLviIDayiEGxUYXpHsEqo0Mcb7311s4p6QMlCCqrepZA9XxOzckEpzdbudfN13CwGvVPN/+A59Pe9CafBHBuejUDxnpWr5na3f1v//5Bh0eqrzqqqTwRca3mH3HcmEw1ieItb3kL7M6aM8cBrAoKyQRZGRye5NWEaVOnjU2pg7Mb/LhvWsNLaFRmIkhlHewUinYr5MCylZSgV5XJINNCJu56v2HicX2y2tHCP/3TPxmx6LhKxYeYFW1gv1k7Xdj1qbJP/ucnVUzBCeJ9uz8cSGdmVq9eZWu8Q5311I89+mhrhPyk6flYWxww5PPmzttp5524j04yN2d3151333777arkFrqFS75HiltrbGufPWvWrX+91bSnsVSpask54kipGht5wQUX/OB//ze/OdtrZuhGcSuXr3juc5977OOOSaLPQ7r05fEYN/S1Sc1zEqagikspyqK//R/xCB890sVF6VV8QLyDHg0zDnzkgdVnmy+3+ZzwpThTLlwOVz0t5YIdvzGzxAYlGeS4Sx92qj/73KgWXzeHqdbZaHpKhG+938P2YxCjiyjd0aB0KjR7PcJK4gBRxUSqV/HMwihJVWOkUnIHOFzV2c53H9P2LT19pZGN/LK5cqWBPoV8bl0I6PDDDnfyizk7pdi4UwimR/IP3Zp/WX2HOPqAlZmBap6xipPmT37yE1fcVWmqkUGbfsZ0R21gnhY+s+PYV4vVp0YWD0ERy64772JuHieh4yo1edgUs35/uekv1fTxiKsmHiz3mLnj7WAs9E4myeWsBRa6GbDVsw/0r0oJAAA8IVuF5g68d5J7oOcGSCtsDXBPv1P+fCfK2t+ll/3y2t/9Ycb0WbF72DbfjDrAS38b1/c41ML1Ff/0D1YHeBqo8yeYXoJAiiOO3Qi4F8we1KZa2zc+9eQnf+jfP7jrbjuvXbuaG2JzmhMxTJRwb9JpnO2mRTf2rNMY2r76tXNSn6hV5KMwsnwH4L/5JHSoyMK+78DyjoiVjhLDOVg1XLV8hf3+c+bMprr4/CGopbUu/+XQfFnVnKg1YCG9IOM1GZMtbW22vjANK1evJjX7QMgh9m07BsTnFVeuWP3lL301hCBzjdcq9ZHGQ54IWlhBw0vyv/Kh0enTV3m7J7yO1JITjuMvg5uq4y9KTXF0SuBPDvhHs9U/WwNsH3dV5TvvvtuXz9k+4xxEk6CQa6Kmym4q6Gr4Od/5znc0JqBEPCm1HnJZyXRpx6eeeuqzn/Xs+p1m/4VslLmqrLseh11EU4rnwwTYHwL/fjL8vuV60003BekqG80WVskHvvHL5zT/53/+R/NDMAqKSrmrXzISP+GEE1J7msCgT/D5NkMIc7fVYpOB2LiRybBXjH+iWfGaqhnGJI4mOZg8JhbtvC/NOnzpZtQWui/l2q+ooMX2iy66KKxeA+QGfCoSm8W0BmI5wERSTFkEkgqeRBRJ989+9rN10ByMeqWHKLrPLe3DZg8IM/Q0PDJppXmkntdorK4vdl1BNMqZMdulxJQhG8o+tDb3w4NC5NIOI2JW+JZbb52WzzZoqB2f5xnPeMa8ubPX9azZHO2xuU8aSSB5DuTFL3yhAQqGC1fk4CeuuNRcQd/gUip7NjZlKzprU3fh7+tf/7qC9LP+6vT7YSaQ3Qfcqd+u5x/Jv3igZWBTwSUPLFG7UFlIZmiK/fgbPLsWo3oKEyJX2FFxKeBlou1lL3uZnwUogxPrvVNsTHJDsuD22Wtvw14QLwVFbrUSYJ01NVviJQM/tZ9eWsOPqULUQiMRUYv0uzJIRdLG7uOOOw4zRDz8Ekb+hOYKvtyP448/3g6TmDpQZewRQojLypfvb8jZwPPIS83bzuJxAzUhjLRym6M5DEQNTTC0b9L6Bz/4gfo2gGGIZ5vlYNWq1c7ojiUfjhFPIK5MJRPNkDj4/uUvf/kQJcWtaP0N11oTSR6Z5pJ+ea/JNgDzweBLW7AeVYorTVv04ftKF99soQ0ZEAk60s1d0JYj/s3fMXtS0ng0T5LHNlH9Pk96+vTUbzTQGdefuCKI9JpmW9spp5xiRxt/TFy6ANDaH3RrZs5yv/mWm3XQ0seEpZA2Wt/7wfdDUIyklyNyybXLKM3wZvlUbqqOHQHTp19yySUmf5mbJivYLCCMQE3lhLsZkg22lARVvA4Dmj0X7ikxOQMZl5vlu5ohRJUfT32uFmLORHGxSuxuQWF5Kt6srtazGi/Zho7wdvBvdBiIKZkVp2pw7FAlVZNe2lXJM66RUCreCHOXnXd5wfOfb/FVBVNKvZ/EQDhp9hJFdzcCCfSvhSKMj2+/43ZWLNgYE7L9C9psinL1+VZ5TNWTfxn8DP1gs5j20ooXLqp6DcnGuJC1SEOo9H2FZMxioDp0wQPfpZn60NBHT+CpYLpBrMzXTTffzOUyVVxIVZVdEoeOOOrOlt/Uw1Y+0uoRpKhW6br+qVPNQgzQqIamPCZ3sZG6rfQ90qfYF4CfekKyyf6o2f5e0+rGi8H26Mu19qRv/Nkll9x7//2lCZF/XxU0i5xR8qNQoLr88subr12znMWrK0xXYbHUkJQta8EfeOkTw2CUbE1GQlXBNzph6R/96EeHFpM4c8caV9kUpPn6evYo/WkEf3z+T3w+rWEMQKnW8x1JykhHEWPosA5XJoDb07PeWIWUNGNXIWTlFhGJ86qbJNtMNmLRDXLG2A7xqHsU2ufxMoQvA/nRDQ37EK//0BfxM2O7Yj1tqH+HwnR4Eaokcvc9d/I8rWT6YGvMRtev6YuDlgNNPBU0M+cNHnP5OQQvSWRJU8n3ACOcHXLQQfPmzEpnOa+3arN+g8G9XSEW3dvSJ6E0XwsBZREEn8IQ9MstGopeTP4777rn8iuu6uqyNcx9Zdb+wkg//aknz5k5I+aMpRQKExzRgLu6Ox9xwP5POOnEtT2rfSNrU4fp3iQNZ+eYyqV1vc3lV/wyjHeZWR8WnyE+z1KE8fddd9wRRjr9Tm/emSFKf+lXalHkVf9LgDalnK/DKnKIzPk9Fyxxq7HBub3tjtsb6hWV7U9j83pSAV8i9JIZ0lXQ5IqlhVwI9iH4Auj+ZQw3BeaCuClY+1rgL4SLTqRHRKfBRCm3ylUzZXkQz3KS0UWXXOwtV4vhgfLyOMrevzjmmGPW58MbSvqWinh1z5+X2ebPnZfeTa6LCD9J8dlsf+UrX0lzXsklGUlAJJ7VTzKKRuGz4/NFm7cUyR5kiI+k3AGfCZ0WdMK0Rjtgzv6J5an+t5K9jFRTeJxpwPKz9NFRqp+CrR0DPD/SJAURK/rmqsEa2hQRaotCETY7Ib1hIb3JAlm9yImarwna+J8WzLJhSOn2lmyyzrLyqKOO2GHBdvk7Frn7aJL6+GSzj9efrQE+Iw3TNJEgmNEWklGs1QNTBLXObhRs+GapqXqzDLYFp0469V0pmOwqb0ZHyjhe8xurhb6aql35GRGcDaiYoTDtSbAmI0arP6rS3by1QyTZ0YHpR+nDuwYpquJdsKBsktIbSCjRUAZj7jbcauYnzj3IZbTdDMQVVJARjxv1Hv+4xzVDasLyxBEipoNYEO1ZFQSlF855IKZy1+ZdviPjqkjeu0sojEy2Iyu64amEqPqYwS2evRfRm8TYwJgOeemj1SqstZSoYYxRUuutmwqYIM0Gnob7k3JqnUJufMgrMaZZolw1DBXGNRJxyKJHWTIIzZTL5Ui7VzZtsrCcKrhpE/49q+VEMEI44vDDbeElxKhpM2THN8+mTT6TjEk74yzWpurHXxZUFE3xTrC2rb5J3fdnOHStFCsdzjbxF3mysW6QbTjT/WlESvUujA0Ms8EeTumV2qkslrj4jo4Z6pH6vYELQ0Iw/NJcUExDFMcb5CDds3EViQx6wzrBsfmXHUoc5JO7FAG7pVCJ4sCHHVocbnmeChmZbrdvBB0/o2pKibtK50lDRsx4SBxuKeOUPzixrLjzzjtzMUMpygqZYFuKDzMH26PhAcEtXmsMBA9RO9WhqWYqNTCm40kDDlRAyiKWvrgASxlpjJsDTHAAfCm1mPPajWH+A6fFDiSbnX/w49PMhjMSco9R6oa2FOm87WGWk9RvHsMa4dW//lWsIqEQsI4K6ogWLlxoGlFylFgtd7jFjW3+4MQrEQaLEIx4pITu8e8nv9MgYfTlVmtN3UXjdcpDW9/q3arNrj/dxL8YCB6iu1bHUNBmHx0K07r1MMMMtkV/ileGlNR86qZLMTB90003pW66PgDfbKlDZ2BmojJ6QLAOHqSUQj1ufk9fbLlBPDJX7w5N3108Ww8XQdyVP+1xcaRgBaB5I5p0cWyC4LCKiEfG6eqoKgsCfCT0C1d0HybGgRtjW25IeGxpNk8t9AJ+Y4BpttK8MqsmsufCvW3bndLRlbbw5kOX41N/SuIAeEc/XuaD7JE5c0Uxqho+j4ithitWrXE0kTep6gNwTSr/tbXNmzMn7DT/2F8zco+crrffeYcXdvTUEMxmax5pqwkfZP2GaV3dJx53PDmapax1PnCT/1LltlBQu1JBovbW1pOf/GQ6nmZzbN2+ADTu9Kjegf3ttdfYWh3MllqLDMZ+yN+VUU3X+vb8armDPTse6fmdwLR13p9DuGHP230+gN1MXYay01VevXylnhEiPaSgzoTI90h7A1IHRcCDCq5KsH88CEpXg+hYrYiiLz1+ulX0Sp02FnvH2KxtSu/1XPoT7pMip1pYlzIGgGn3SrnipuENDffZZ+8+z7TeD0J+zGMes8cee5gN0PiiCmHGiEiKt4Fw3aRhkzME60o+gheZyZzhb4Wqa6sqCGY2KTTDT7OYdmSMETfSQtBN1c9jNSNIUCDEZKod1VNZP2+Gg/55ULbL7IqrrlqcT29RIhTKlgtPpctA4k73SksMmZ/mG1K0AbulTb5aLqqWHnbu2GOPHXAoorZbzErXuYzKBtR41Y9//OPjTugiLI64inCpbUM1iz8sA5MAnU2SlzNSxzWsh+tMjsm/UaMgpYlyDu1TaJJys5hGkV1EVAFBWqmBNuXxAdhUc72wNXpMpzqsX2cDA1IaTBQUhdYQnHHsTVtajBR3SyRyNlzLXdRMvi5evLiMEEpOxWm3hx12WL2K5U6rRELTaq1J68141YbvfkZ6qSMB2iJrv7salWbfTB3CNKDj5UuS93QzT41HHjwIhbKBu2XdAW1NyVMizWJ65szpzqIkqYJpRRZRqry4D0QoW4c+AlkUajSEufO+/33uQRqomUiO7tB8Rd5FjQEjPG3M2+YNnWNVCqWGEQlWUfLzzzfeuCR32dUmId362X77P3ynnRYQZtmgksxVC1joanWMcAwADAN23GHBSSedxIkK+atj1Cg6a161FOKKukeNqnSq8RBdyEc6r2b+3Lm2WUYe1n54Br9KetRxO/WnzZyRj9xvilazmEZMTxenioSMgnyBkUSHdYA1uUgs6U1xkTNRTFrQ6ei48uqrv/zlL7Oj1YJkYZtoiML0DLxJkx5SQn/NlyLnz3/+89B0tJ/yrBlfG1yb3npentsyEVVgSmOXOQ7IgbhCYoSvwzGpx8WKOhawDsZr7cHseIgv2GEBWLMdg+WfyHRs8O+5Q00W2iymma6FCx/q6JnB6kmOtmd897vf/fo5XyffBrhslhsaksdu5uv/fL0vXCXDU3/fpHh1aBL36p61zlBln+gp3swNfWy2CBn0reak+R7makwLOKa/+tTc+fP0RWnuuhRZvd2S8Z0W7Hj0UY8x41mMiN5TT2e0YKjx4/PP5yxGxZtn3wO86kMcolIfb0zoTo86o0WtbA3gzZ07Z4x9D5j2ZwNNTOWW8pK83MjjNldHQNgdduaZZ8JfkXKdyaH+lRmsvc7gBVsaYqTBmhkuz5QS+T9O1tp9t93dwlQ0hpJtiIgicOVkHBuvg1oDk/vsvWjhHmO5wXAIZoZ7qyrMapyUeNWEIJIqmOlG7XhuRjjqO9yyIr9XEEawTDuysoZ+Su0OO+RRXMDkBTYRmrbTtk23bzr0sEOOPOrRDy5dYj7XXmpbLdKhE1O6Yh6xs9sWci+QzfzBD3/81re94883/AXY40QOr9XFCSEi8WcfSZzXERE747769a857Id3CGqcEP4fixmenGv67Isi1/ZsN3fe85/7vOLjFgVzu2P1ccBay0bT1lC8DxIeS+zxiKdIzRY/qxjEYVZXaQMS2YKJpUnjoRrXJRrUOqqBrWGSa7fSHkPHqkxbuWzlb67+jV4nOp5smEiiN6BW+6HiSX7JbyR8b2u//73vNfkdGSbSn8ZAquMm77lu6HZk/bq1e++5x2OPeYwJK5iujnNkGzA0i+lYUVPnl7zkJXY8WsGCvCTHesAKt0QifGjftlK86U1v+tSnPm2GQe+HG326vIkt77DmYuXs6pry4INLvXrk21af//zn4Uyok6z1AFFJiWYomXA7eGIGJrJVFVwe7B+RDbfmCnw8RRFoYlU2VxZOxND2UQcdH1IB8AAAMJZJREFUTJ7VzqE/nVZLwS1peyU5+k/slYatau5qw2mUkiapVK22bSaEVq4hGZnJxwv5r3nNa770pS9RcUgmsk1YxaO44r6ycU886QmGxVRmDqcZNvo4lJt9QF9vVvj5z3++E+2NQgIWBXN+gmkETj1ufK/opz/9KWfIQoZxq8NoKEB+t7gQekbQN79hU8e0mdPslfYeXDLNeRYFM0XowZgDCB234NA6J6FultWGDNSD2s233MKZNrTCAw264lZOrXHhwoUmsMSnefswmYqWM9UNNYqfUZcjjjjC1KcTm8oqkq06qmbgoQ3feuvtixbt5fsqcTceJA2VNGdqCkU6I+3N+XPPPdeWAXiynVVLKHIQCV0MyMN4JCp9alc3E2a31gknnIClsiy62eKaxXTZ/KApO2bJwjLjCrjr8idoFRPgUHPIJoI169KeDfMkbIAlbqdHY8tP4pMTpvX19AFYUmySbpuSgJWEW59t7c86zPn4AzqMfYTUV+ahev/MDSmY8aCjEy0PTXcSeN1Ow64JQec7eqUysZHDBOuvgdVh/SRe9TJ3a1Hsql/9KqEwS4e11oxVbcnSB6686qo999yTtKuUAZpO6ULktttv0yRMB7HNhKD6FISs/OGNpOPy5cshhJMKGs+gFAE8fAjKHLyisIqZZspsFtO58snfUlWNW/fk/dabbrpp+rSZZCdRJb2IUasqxKTSc2cxpWPmnNmRbhSzbGU6qJOsmRA5puWFmySeTWlHq2zuVvlO09P1FD0sryOTSi0HS3I2CesgwhSJBDOUlOOpWSgaJgwSouz+bFRZaqk4yZOD4bR9V+ZAGYWe9en8qrxZJXlWHDbuxwte8PyQotFLCu3pZWy1vv3OO50laXWGidHx6iqle0yWZJs8E0jauMkbGBIprggw0RnTEDqKKzQ9uGyp4a9jb8PRVxT71Qysh9GJ0zSiAiFamD399NMZTu90RYNORQ7Sdks6domY+0E0Qn+BRM6SX4aoYeQ0UfjGN77RUgKZB6DTIllz9UQHWd5O4TYou5oq4mEbZkXzqJben8NWSyEHxsyuL+o3zmFfvXtGwsGnuqivlnzNNddKkdOVudGcnXPwuS98gRIdhyeRsyFnjIjIRJDocSGhPAcNRrqUuBuJY3tFXFvSJnHC62A6C323SnzoSNPnT9fhlaqb+yZfyjnyqCNvuOHG8FAbikkjlZjmFan8Jb7S5xHzeyap5dXvplFtCikhh5BdtV1SiWk4gxheeHdXp6XEzs4ujleBqUd0kg2clJ/2P5zzjW8k+nnTT5RlDQcOFi5caJAQI9fE7OBECrXWiSQ7vXEDwN12663XxQhYow8h5rWY1StXWUA54IBHOIHQdtRb/noLv9nqGOtgpXD6jBnkRoYkqVLogFXULovCVxzSwi165O8qZ/Pw2qyUQsuRTUX8BOjUvUybao5h4UP3AHD6SjDIiq3iYTDiw8A0EoViOsmqbZNvNh5++KPhjP2rzlfICdPw2gCO8rNEUs7c7huQWKpaSkylt7eHy2tf9WWX/sJBM2YAIbuYJdJvoOOpEgxGL7jwQjrTogoDME1Vhp6PfezR8WxyHSsZyuMtHcnDGGi79Be/sNCqDwybFjVyhdcTjj/hhhtv/PJXvnT2Zz/rRUyZCdMSQHpBIj+enI1slXkzpbJrexyPv9rpaqeeeqp9UeKIs9zRT5ZsI44URaBQ2MDJv7zm1UcecaSUBPQK9SoeKsl9os1iGq38l2BdibRNmz7t6Mc+xqe3fvPb33hdrHtat3a9tmeN1wm8z8ZLJrWMNB5Lam/9O5ColXtm2nw5TwUcPZ3rYjEyzd+kDEixEO1pZcFPYp0+Y+Zdd99zxS+vvOzSyx944MEFC3acO6e2zsRl9EQqqA7wZHfaN/3yiiuuvOLq2bPmaG2mE5lrpZjvWrlyxbOe8fT99tknBJMkqIbl4T7i2mI/oC2VrWK91UoJ9fTkjGnbxnnL88G+5Bk5iYupM8t0zbXXOqTUxA/xzJgxUxdHvOkzD1kODrgmFtuyLTcoyq01a9byzPfee+Fpb3j9U5/y5J133PER+z/8qiuvWHL/fTNnTCfkKLqmvsxYYqhvkCcy9E1Wj1QRd9O2Ff12+nDsemiBlw3r1/3r61574vEn1LWXdFH+GugM+LNZTA/4sETTIKS5aJ99zPwzn1atfJsivX6S54MT04bbmTtxoa9G6irJo1p0VJUNWLlipUgyNl4szfvyQpdyFzY0ZRkYXd0iV4QueUGc9R133MmBOQUAoZ48U9LOHb/rrrvZJ0TQD2tNhHoYBwxvt3360mbQV+4QPkzhYcIiWW65tDqmpQQsajxkCes2uc7mK4E7N+wEBRlicpdqUodm92l+tpFCHjySquCWNmA4fsopp7zilS+3ZCsFHZtATBraRuL0j5mz0lddJA7migT9PkzWeO39x93kVeSOkRbM1RoSvPWtb7WZJzjvzTqc2GgxnRp5Wp/r8DWtE084wUfWnHUC3D5EIlEvSEap6qqYm3bilXzyX6pO/W+9z4yvXmNW1cfUHPbMH/jr4psB2uOpOkCW6p5Vl6uHXrQBiZDNflOn8Ttwr1ix0hB+zpy5MnqCe2ZuYM2anv/+7++UFxATyUD2xg2mimB69qzZmXC65JJ6yyrpEx8pyEgsqUwdyuJxq8ZSZpYwyeT8n/5U27ZKHhWQbVpexiJJd6mLZUx0mGumJEkoRWQTANSgn0/y4he/+NWvedUjDziA5bTcpjgSlsE3Nxy2xgP5zW+v8dO3yBjW5GfWGSsiStwOEFiNVFq5C9OsmMdNI9pA5gOF++6zr+cSTkYakmhG+mx6Tp+RBNXW7vQJEhEnO56rD6PYpmdwbdoc5lhrV2Wpu6dCJUyseErKVtnSjAZKZPPmzV29es0Vl13+1a9+1Rs0nmVgWGViTUXm4BGhxKNcpKSQuPxWeZDiKOcRffuSJQ/6XgzByZC6jjz8d121Kn0+9d8+8IGw38GMdMp2bf0QVc5CTTi45OeX/McZZ6gL6BbmOaSyCSE0EToiTHIoMpQZmunI5rDnPOc5RikmZuUJsRRS8MfczJg+46KLLv7iF79oesCaAzr6tZJnyEj0hLUxqJwOjrNigIgvIlhNM04zU0yb+pYh6Qx1c7SYrtImrN6f7e3ca4tYTpzQW5nMZiNl8BUS6IyQrekcix2C08msdTHK+n/IJfb0T1vb/3zvPG+M3nX7HYRL4oFdmsjGP23qDVWVopPTkEc89KE52Spo4lmPObWzy9dX3UKhZPbzgQfvp8L/94pX0lZy5OsLDU2qqLe+4xMDIAwHz9i2mzz9iI4kl0jiDqnxCQfTQUTtSGWdeFox6erdYlBYQ2FKfjYwjRIJuMvTmD5jqvbvO2l77bVXzNzHU+aGhchW6KTIpvbly5Z/73vfY7x0y75oWBNdtuiJx/zmWERQSE+krjW9BaweCDI9FLT9DvO9WGQS2rxwUEjER2dTxhLTwU1czfwDLssRNoIQVYAlWLO6Rz3TrfZ2b8foJWOd28Ym4rVcne+k0wXzk+kz8wYr5//oxz5wzY1jgONx+/fJqLOs8uRS0bQBKRQQV9o15GdIZk5LXw6vSi34XLY82e9nPO3pCT31I1rcah07rZpCDRxRzbwgwkzcevttfK0bc9Am+QzJZIZl6Rhg+t/TJEYXIkShn6QU7oTj65/29Kce8IjkaRjJQ19IL+UE+6yKXHLqCkKhZrl1Bg6i1PU5GNbpP7TjE900i7IH7azEUsyGxVSgdIcPgvKGDevoHYiNwZ74pJMsgiLe0CeMRv7jhWlcqphAGdgNEIdcGq78sZwhTYKmz4Z01TodqvGXDlPNRPRQdriz2Ww/mvPnbU95pOYaCohIWlCod7IedEvRUpJF9zvrO/IHG44J9VWk/R+WPvksW3rExE1qX1s4YCZYck0Mc6DbNjEKhit25DLJAvtKdMAFOlFNLVP+jI8+K+GlMuQA94Bl4VAnZvXR6OVhD9sPVj1FlLxnNlZZ5ZESqeIsc5c2RdEFga1YuYofwuc0Xahb9uZvWJOiGuyxR0q0G9nOH67z3nvvPWNGWhvibMgmRLuVou7J6R9pGDNM4wNb/dkovWe5FTldWQFtvZoeKSHOkBpZ02fkIWhyt3uEzf71r34rHn52oSDC90C5lj+fToYBxom1pngcQm01vzZDr5xvHqT909NnppdrCLeqv2r+iY/b4GX6/0/XXwc0LLKfufF3MnWcMZXJTTUN77RwzItgUi0HVod51jVrnAJwyCGH2A3/0Ic+hNJkdgQzNA8I5aiyJlUlSMb+POuaTlFO73P4kuImcwarVq3mjbBB0Q+4xWbjyljcBiGuc1F6UDAS08yiB4iyXEcj/14EFHJbJNKvSVBWb0tNMu8bnChywQUX2ETGbtGuEEqNXDCJYAQpCabtneGCVxXjljykL0LWM6ZO232Ph+oT9xQeuocZSd6RFzGJPhNJ1wh9dZ8aSYdNWJlaXJWCsngUJw55bJWUCLGHIXYRSSkaXbVyjSkt/TjP2CHCNl25QiEngeJVE8FAbdBPm70rISqeepvKxIicGrYG4Lr7rjs/+YlPOuKoI1Uttdx6ANkSgufyc7ORqF1ki9FqxKORBDqRT60g7xbMVspcamKyit1godfIbbbgQTK0Cqb7shemtFfi/THNSNvkcOddd1500UV8knBIWOLU4uu9mDyheMTTuwv1bqREpMsDKCK64+hSWBc/jSm5p0yLq/ErwyabFeZZs2cAhwYQ3b2c0Y3QhLKqlN2qhrjrypraD6RcBemj0+nld92lZRpDc5EfWLJUIgQjFc0g2POgAM3So15+oh8NNQpKPVIMR7LxDmZkEwn48jde+8+vctgNeQqxGBzPbgbTg8Mt6CMigmGrkimeW1r0G0E5TfcmJhJioz1Hnq0f04OJrj+mIclyT9JxW5pgMW94/vnnm6KGD4kAxy2hY4IOcfs8qkiEUHbEI4N4RNwKx9SBTDREK9LRQVOcUkAccZ2pq9GVUuB72vS8XbZGvk16PWqAu8aDPB9EQAqODaokakLLc0Qp4ppijGW7vRJu0SjPSLil3AQUG5VqG2QSYT8L26UgEcwLkRIZSjaPSMfAE0443j4wcbeqNnUzmA6iTV+r+qpRzowFc9W7Wz+mk6yT5esTGqQf96KzhgM/AwSsF5vnUHFuiZVF0Alvu4bRynxtUTy4iIe+Iw5/zDCy3WnROAWoQlkprhHHT1hKifKLJ9Cb4xk8KAIp9zPJ9A6sJiFRQA2gXQO+Pi4SOVOts4nVAGTrnJpm91GI64BFYQMzgjzaXjUPPpXi1kN22fnjH/+4spRSxdZ4YLr0YIntzM3fGKb7Y7mqk8HjgcWiaQhlv7mhLLfR5E033aQrB+vuaTMgg5kszolH4qnAmXjMdkdRAzrfDVxARk5hArWN0FpDlsafUSKeU9lZw+nf5GnWoKwRlWfwI6ef7qpCxAFXq4NO1cG5q5Ro22pngcmr78cdd9w3v/lNp73JKUOZ30RqWueUj33sY7KJjwzTVXQWVhsiJU+pV0OGcf3Z2yOPspjRcs8IkUSzy1G9zNKZH2HbROiJ7hftvcifsy8sQ5o0MAN44003h2ksCI6nAAJcxMGCD+2uivgpFJri1dqVPGER81gW8mIMkJ/c3CUVoaa1clLuUlYpXWLKlYHrLj7d0oq41yoown5LwTbnZ+HChT4TZY7MLvDtt5/vQaPn+HAWJh0kXji6/4ElJk/MqZUFpnJrPCKlXv2JY36Iu/3zN58yNpiuaqJPN9M8I8NH84C06Tt15W1J2RS/Zw5pQvf6G6ZOTwvsnsItrFR5JlxY2dCTNr+Lh7ir7qbUgsDU+PIsuMx58B53yv0B+eqbGL1y37T4xTaXEJyEecYw5lXKrIi4OlqFdRLVPosWWbkweO3urqmS6y5uXIsOCp4KOx31db3l1r8e9ZjHZBOSGiKTkNmpFFw4IKtKPDyHuA6t5VqeyrP9o3jrnzgmKWOD6TFhZcREAoLxuPmjiOh2ocEtFi7WJqRDQ0BEPJ5ivC1kRAOYM3OWxAT33MCqZINm9Roqqbsf1TtNxREv+QK7DcVJFHDLo8Ceu4YHXv2w1L/vvvs6K1CcuY1VWMT89fQkpzkogzvQq7vqMMmlODTtd5edh+1rlniIkcmY4KuhCqWCExwZG0yTVC/flWhv4njG+pSeTEsNLjE/2t3VrZsGcUaV4SqMsMpg8aY3nwbx3G4uyl8WLzYzIICCAB8BWbMc1ZaQjL094mvXerGZFuseSCGcrGPvj9x4/JQzqEW7imYTo/7kHuTOAc4cX4Cy/ErX3vgVe+25B/f3wIMPyn7F9ioSs3u5iILV9KtrKm1ucuWAzZ0322zM8mX5Ayh5TS56AA/wxxRELCGouDbwnImnS5+alNRBbgxGpPrcBMTHBtMTwGiTRRRAl/zWNcIMU2cRugiYAsfChQuBjDOaUNvRwYYZX8Z2WdOCd9x2G4g7YwDEZQA+uBT3iEjPmvQ5soiX4kQCoyVFWRE0LUTEXVPQ9vKuZY1EIjNsOnz3XXfVhCxqxqS4/cTbzZuvCI6QJ0TSczlUq1PKKhFLKlrCgw/cqG2UdRmP+Ml7MXsYnJf8W1Nka8N09KQ0VFxW+ovhVFGbvWnOARD0zhJh1BVceJa77rSzPw0jHl+1epU5QVOEkG1BhJdiZcRPcynIsnYCs4qCIoI+3ACdaxq6ZrLQk6YnOjp8QpOVBVnvMoCvaezt589nieEPdq0ba2NzZ89J/UBy39OWcUyCO2pSNBU7MPlTscAqPUoc8Go9xTrR9dfdUO6mmRwHe3d1qYJGq1wtKhEfikx5ejJFtjZMFztdcMlIC3RSA0fdGQARphHUwgVnzhNo8hemIZXuIQnIBIArLaQs9Mgfnm6soYTDEJqPRhJxAFUEapCNlJ+ukO2nDGF0g4HgHI6xwYS72s8VRBLn9W3fHuz1xOP2QFd88rZTA0v9Ty9sPY5hmLaFqHfYOxCFyZu2tWGaJoqpFocMgGZTwYiC+9i2KU6U65aZwmFIqL0A4t3p9AZxagOhV7qvR9u6ptQkxmROmTZ9xrTp8+bMjdbSQD8Sg0igELnI4xo+f+w+i2Ki2SQ2+DMWkvqu4tRYyVyVeGKv8qO0Z8mI2JWu7hZfrEFGRVy1LoncKvGw0OHTlwxbQWQrxHRRrQhIJbNX8UFDZ9IFi3MgkRCWoJ1Cf40mFFaBk3OkR+oheQnZFkYp1VvijLSMSIgEeqoZ6jT6/JsyZE5EBmVpIFb7UGlrswdLn5C4qlTLT30FV6oh89b0cyvEdKgHEIENkJglzkC7j2jVgSgRVmCdyiMzTSfI1YGakFTPXAAdjw+Is5Q/tsulqZWa/av17JV+v8ZYvZReGNXLKt1BDYR9gTtg0b1E+sW4TJxmnsaU7uTDhFU21IVpvkdy1kuF+z07qRNiJDOpqzAw82GtYQ12hQJoucWTV2rGtyudfVieD6PoWs0cd/unSI/8xaZGisTBQilo0EjFoPbPg2wklkj/PCVFxdlpA4boPUp6inR0GOb6tzTXPncn/4+t0E5TVQAalGHX9ujU4fZCNykTRs3XmoKgweQY5BnchG+38jXmBJLi60gKXVd/BtAjfy09o64OvfREaQwyVPMEtQGv+An+q3eb8Xob8vD12WkmWfVt9SzUsGHqw3E/5tcD1pis8VYyTeZIb1Uncy368A4QCdalQ+9zM/0Y4lbJGzoeWtND3y2kRJrPGR5C9dkRxxVqxjAButIso+5maaw0FcrVDCVx8ka2QkxTRoJ1RZEjUE/C1mYp5LHl0MSxMUpOhqY/2N3ULXWkT3fqrERrzn3ulPjTnGxT7IM9O9nTt05Mj14rW4evyaVu8KfDzfAeTdjpZrqs0Qtzgils5Zgu0KwaS4o0E+JqsnYwcSczPdi9kp4zVSmXOynCVFad+D73xv2HJSEVTHtKcyguDYNthkewruTOoMyPO4PjWMDWjGkDRJKjPLZqXA1SCyIDS0KarKyMDgPERMEhsQ4VsPJTGEeITTjprRnTyRi31abtxlGw/exxLWEQU98v+7iwBtAWD21o4T1nePdeGGmS4VJHwW6MCwdbjujWielwOezjIVj9b/WlVylbmVnqDx7NJiRgYbwBsuoO02GnQw5bnzQm6/x07NBoUFhot/jQd99zt43RXnLhe1TPDNAd237pE9bn/eD7v//TH+3qdGbNwoULF2y3nU7YXiZk17etjybBMa2eR1gQ0Ft0PzPXL6EP6oa+W51jVlYpRQ1gESEmVsRPBtjPlavWLF68mNE15RyHKEg0764ZO2z3nvvvs6clFZ9OoIqlQ4DXrDtWr1pLhphJf1uXqZ6smKYXmgDfOOIthkThQDsT0Yn2F154odO37BWWaCzY0ZlVm/RZC7FE7GgYv6HHUTWHHHjQk570pIftt48tEl4Gd+aVW4Gk+kO1fycGBNVSsBFoDn5sQvIGsdfj71/yoIOl3Yo5uxj5qW+0h+7p00ImqSnWGlN6aQ0RWwaq9BsqOKl/TmJMk3va7e7jMmvXhNdIoz7H6Ox0SKUw6tT52qxsPDSgj+Wp2EINENbbfvzjH2sJvknsCLlHH3EYxTOH5WWwUPOWwkE6E7kznfWhuf7oRz+65ppr0kYOIe1j7WKV1T0YxmfgHqtOyiwM+wxwVIH195zpvC1boyh9PK6TG9MhkWSGOzqc8PnV+nnV5mUTjvNeJWtmVDiY7KCZ1uX0otSUqcmUOULACSE+Qe2LvXsu3DNWJQd7fJzSi6dR6OPQ0SXOxnXiFPjyLowTmGeYZnfVUS2iLn6KqLK7lsTZY/IpdERkSHCvf02remvriE9iTCe/2YcF8itVzpZmZU1dpdmrPH/HBlOe4HSWpMgh1YVIyRP7fphDjvhLX/rSJzzhCeCe6SSzDVtDUhqbm1FKOa/eEWqf/exnnaLGObbcHXC02zDxXH9JpxQchjntmbYlMB8MErdiKZFPbXe474TywpctXRG7q52v22/7YKE3+SJD7Yto5do4co7yQM0X4j7ykY8wrrG+AHaRjnl3owpSaHjo6iTUZpczHnfOpxT7jB0S8qpXvUoLMcxK14kKWI8T832x08lJXCNuUqla2eTvHfcqR3iWR0oZE5dHJEYdXbUZpt0gUtV8JkF/tg3TVTFOdDxwGu9QeR/WF0AcnxibdZK5zRY3eKK8whwfsui7JFYj5W7t/er85Qdn1xllHnXUUW95y1umdaejfifGTpcdsOece+7nPvc5HUUyqPUZj8JqmrZITTiBeLMhnlI7+QkKTcvjXJRXvvKVT3jCSWVHiN6vKXKbLW/LZZh8drrg9E/X/ekDH/iACaxZc+YYMNETOxqeRsiTFkVClzDdpJBp3SMb8qc3eKbAxFo7rfmd73ynF7eaBFCTZQ2WLTB95lln+cisQ8j5xKm51gd/IlE1ESPhEo/0Bg79rGaIFpsfzOZ840aie/WrX/3Uk58sMUJ1PrGeNpn+He13tyagrlQSekpz0rk8FuvOu+9+93vec/+SJT7DGkN+Jidlg910qHHvX7tTbPL26CZZjR15LDLA+HCY802ndHbd+Jeb7rjzrmOPOcakYbqVWSqMNUl56Gz12jlGLH2A4qyzzv7eed/zNSBDgfQ1x9oX3FODS6V749C0TBoO8qodZzPV4al5EsSnJ/Ql3gbHJhc6mWV/SW6eyRbYw+kvpaSd475JeeXVV3VP7X7Ywx9ubt7DbvlLw5XJGfp4Y61ZhWJpDOeTIvKrK2eccYZVBsN/NqywXTVIJXHEkWhIHoe2BTvtePHFF3/mc5+ncm6PWwxnyTDiIvozDLGK+OY3v/Xtb39b7WQII10tK57iPDjgRkv2k63VsPkS3G4hndG/2sdVap81619KMCw9gokRY9DLLrsMNbckjrhGrfDgxA16RlPb0KhXqcON9j1Wx5Z6iYO++RvRUyf6Y+cKoqlQ2nVVroLMAZv5PvjAA5xP5zQP0yOjqVE8W0Vqoeab01/48pfmbb+dFGcZbLCqtGG9772WDPFU1H3psmXAjTdbpb2ASBqY9tLhAw8stYa6asVKVUhHedRD+B5lBJmLSAieNmP6J/7zkwsXLtxt193GTor1Uif238mB6ZBJWqae0vnba35rmpaeQrXJqGR1+zmGBiaIxzWOUtA/sIU+PZ+Oops9Z2zVVAzjkiUPfOpTn1KuTilNP+dFUPFoXVFocg/yJztM9Tz+iCN8VNI6Ebc7JJB8JqLY2G6t0eeCfvGLX1x99dUFxJGnyrwUPxWk3zvzzDPf9a53OYskS7W3FVXzt358EvjTRYg8RAcjffRjH7v7nnuSQTI+Kp5iPRMPsR4d1b/Vya3o371rro/2tW3lHvqoR1WpVwFXTW8yXvoZyP3SF75k0Xv7BTswwwoSasTzdwL8xIxbUG7i/DWvec1TnvxkH+aY4Tsv6b0WXKegXJe5s2fvscdDjznmsUceecSyZQ9e/6fr4/sTKHDEI1vKmY8R1BkwEzfecIMp8IMeeWAyE7mdlWxN1qUVso0NAsa1JpQqRBE+3fLHP/4xOlOJReIlw1hx0kBQQZGio/eRDT4rI1rKKmyUlOYjqRa5owFos+zWvVnc6uZmpBhmRbhy4r3yzcd4xzveYbLC6WGNfObjyCT6GpBguMnEO8n3jW847fQ3vxmFOGYtqAWTwbzmyv/mw+gDLfFM3gFiElfz0t9SOQldoCZrEEZOEQ9m4EDELYljzl4ha9YgFuGkMHJmD7/7vfN8Sn1MSkzVyefAm+tQu3K0H0Si727KkIOi3TWr+OEPf9hZvVF67/yOvIRh4dABUXka3e9OX+Z1NuC6dFbq8cc/7oyPfOQhu+9uBIlmaZNxwmr4OVE7jbYUPSZ1nGAikwDTJJJ02t7m4Pubbr65tnmyLqd0J2u9njBm//YnG1AwY33BBRfcc+89Y1ZSXsy/7vrrDHztVAEvrgV4Ka4UwcSa3HDy9Nve9jaGHOKllLvVSMZ/OiZPiHSkHHvg1157LfT47rvttn5t7QDBUkTkV66OyD6wpcuWlserxCdFfGC5tA7rIVmAFmx4oAMTDhbGcw+DeZ2yTwRTb7r6C432vw63RmGb41p9lj/rwH4HnNrnxA92SoaBYzXDsOIopL/8LYtLf/7zFcuWpcGcrYD1TVdRfbXmjTj+9M1vfnP4XQnx+bwHt0qoFu2zAv7SPHT9L8z9brvt8vrXv66zi6A0G9PYzjZNfyE9/07tnHrXnfdc/LOfm52vOXyZLpFW6bdyvNUxHdaI/izm/e4PfwhAb0H5AhM7KtjkRK9+CqNUsDryBwwV+s8PxlBYs5HnH//xH3faaadSdx4LNI+gaJMkL37xi7kxpTUWOiJhDjCDMl+80C95SkrLRlod0wQHQPRnjyXFU62wBeUbkOJ++BYja82k4meU3bQW67tBd5nMye+kFNSqZtSUS+AD3ccec6yCImXEeMok223M2muvvTjZypKCbClUxOYZk4A33bSYpEdc0BZ8cBJgmpQpFYY4lIbnxbpsKalhBgh899sHwDW2EfNTYGTse+3vf4+s2kmsojbstFb93Oc+V339LLUuj5eUZiLmAVFDx3sPhfNqoUrHCfNhEiZDvddUN0O/FfJMAkwTk6UWW/Bogj7YxZGpc0zEzT3lbAAfcPgwSji1WBou8YBRVISD7jWzRMTcR52UW8rqWb/OCylelzzowIO0H6FkiBLD7jZ/NQQkRt3LkUceueeee4IvOqUVBXFXjZbAt9np4aq1qfxJsyaeNqynWmDys6nHxjMTqAm4iuO5REbAVcAorowiqz+lK63AF8bjFmxpxkcffTRAl1sRiQwNiU3+RM2KDMc63uAq7URFBJQ1WhvT2ekmCbZUtmEbmInnnsSJnvPKwJD4xDMwYIk4sfgMHKMcI7L0tmirHQuqoGoF057PjZukM6jBw2hw3FALrcXbAOhLF6/eVQpR33nnndVzIqsZWjw+CTBNzUYznOkG0W9ByQYEaqc4j8hOF+a1Ci1WHcEIfIvJlIG/C17Go95p780/ulatIAE1V1/38qqbiK6gSp+cNdSwI5G53J0Ukd4xR2uyS6mCiSdzeQSdXL0YRbWKve51RkcsQL6HRhtHRJsnRod7Y2o8VXbd+hmz58ycZjuHhFRn0kj2e9SBMK3dmO1O6/CsddoDkiXbwdPLLlB7h/XHahsbdZkTRGAS2GmSoAA2jDq3rKkOT7pohmUFNT8xVhKbjPS3fzDbELzLYAwHdupuj5G7UVxDtmH9DFajdMIUgdoA7ghqMayiJyzzJMA0iVOqDfKE3lJyjyWS/uhsRnnVitABIqludViXSCEV+cNUl8QRRILboBaYRoTJGAGpln1kEmCa7OzxAOvWEWJgwuQAlkaG6Ya6VF+jLLdQ1p4N1HgmJXGUkSq3OgE/1WUwO13NPMpyJ/LxyYHp2bNm2+1AtVt86gMCQDkNqjo6fK48VDUy3Zen5sybN33mTAtLlIF+CTIoy4yhT+gqSKGj9z3AFx0WWrBmZCAYP6UHP3EFd70Qh3sisThWZU0OTKvtrrvuStAUUKAwViJonk4aptnymqcjYMJH7XNCMnXNEyk5y1OaK+yqXdjLkoFLIA87fcstt0Cz9syrHiWs8a8sBQmLFy8mTz8lCqXcGLrYIWg7dUmcRJFJgGlyt3psfwIFUzwwFTRMvKAVTf1gbVOEvfkikFcFxHBZglGvYNmclM5Vqi8iVokgbr9Uel89b8Sr3hpBPPhHyp+thZjvzz+Bs99OtNGKRlDEFn+k1TENwSTr2Fxbh83UUkDYlS0lOJgQNC0oNL/b3ZWOS5UyYn5YeivVeiHNQ2XRKS0kIqaQf//733tZUE7G1XXEZQVxkNVCrrn2GhunDFT8JNUqzXDwFi5cCPfV9MkSb3VMB1yIltbLVjLqr8o38hQoVG+NJt6A1KBvphwC4ODQQw4B6BEjLHZOYy+bzE3eRYckkJWSjiMxOZ2hK4UnYJXRK1VyKte1tus6770uFWyofjVPNZ4MdN5V8sMf/lBhnJtaQ0qvMtqTnf5sRp89c87DH/aIvsuLpahWj0wOTFPY1O6p8cIS09KwzzjU2QDBUQoetVB2oRP0IcxQdVp3twPH3Bq9JdMqENl30SLH4WmrAeUoVL3w4KoV/exnP7v5lrSLa7BWVK1+CKRwXo3w4mwIs+fu8ssv94ic1QcjJ8fD8HfRokUDuUJVYi0ab3VMExu5x2LHscceayRuo0/Y6f7KGEMZD6hs9KFK6XYzOxHBiG0whA2LEzu0YGj//fdvmLNTQU4OUpqxt3odnBc/G4n33Wk0GOfR/PD/4NIHHbfA5HPfyz6P3rVJS+UbNhx62GFz58wenZvTyOaE/Z4EmA7sQg8X9tGPfnTPmtqMHuU1iKl/SkOG0f9kOIUTTjgBKYyNSYkIGjAcc8wxDewhDnmugGhIaqTogO2SZ7AuIsRVXbUJJqP5iQO042x0OMot1ErE47pBzIxijFCIbZlIq2M69BGy4Wh6QUN84/rGaa/IEOocQ0HqH5JnkN+yxgkLrV8++OCD9RhjWCLXomddz2Mf8xgeiN0XEKwvYpKVa0Bs9m5NfuvRzNo555zzla98BUfg2NtFNLyNks22ZwPWMieTnDffiX/iE59w+LxFWSl070+79Oen3oD7vmLlykc+8pH77bdvrmCj1ciJrX5pdUxTTRGh0fpeCxd6QSP2QFZvlTxjHlEKTNA35IkD04te8EKlVBvbaAqFM0hCXDj55JNhOpntrq6onWtEJGKDz81Un/WZs2I06dkB2KhLLB4EfZTlJLS3vf1tzg8JQEtsqIWigxo23IpGNZqqbalnWx3TVbmb86KbF7zgBc5qiU45pBbKGw8JJlOXzZ7iwMjewKc86ckHHnjgmJQVAApzqwoOAj7+ccchbmpFWVKEKMjPSIEziPzmN7/5+te/3iddNHKdSOKxOgeib8lvu3lHJvxvcrviyisc2uSQsfiOggxVASpFWdotWPM6DjvsUUrWQSE7JjWdYCIDNfQJZqGJ4kK4qcPNkwBX//rX733v+2OiOpCBBq2UeBMkh5GFSUMZ1Hx17t/+7QM2ylnHNnsAjgBVkDcMihmFDfmdLKNG1/7uD29605t4tEAsg3JrR91trG1x5pm4pXW5xQV6/OMfb7QK6Dzy0qMVJDpR6brrrjNtZ3mFAw21ZOhxTpQ4WPfy0JEcnnmz5/jowrz5c3Dilqr1jh17s7Z6bLxwMB71huwIiJ/33e/7hotpECmBKtqS7pCPiAQDIwM6mjE/TKPiwBUIe9/73rf33nuLS49Cx7ya6ujU1s9+9rMGhWleIkOQuXVYR5SY+MlWXMQ8SUfbRnMmFqT23HNPj1jQls189uKbbrn9rju9bO+tMC1Es4yW2X+uUH4Eyc3rNm9505sNf333Q+ao2mTE9CRb/KQAB2cR9zOf+QyvTn3nO9/hYlI8BReVV3EmvfqzyXgi1Z72DHV1O6t8HQBDzxvf+EaADmWHI5syCcU8Nkl9yGwYftGLXmSFz0hu7vz58krJhdaKwVupFLB2drTV3mDPNU3NLbvCbQ6s2eSs9WmAHvJxDRGV8v3UWmKo8ODyZc95znNOOulEe/UKoGsVLA9MkkivgFqf4bDTgenkRG7a+LH/7xPnnXdeMml5EzCN+iLgGFUktRPdPCjwOvivHE3K5psm+hlADRAZk3LVi0vDDXjDG95w3Z//HLsRcaIt96evvoaO0vHpWuCe0ts6nP/oJMhID1Z7M+SWnhaPtIr8zZqjjz1ao3VKr+P2NvB3iis/tk22fx3GIWUyndVLEWQdxiPWw4444kiYM1oCNneSLvsZ5gyIYdtSX6ij7zWrVzNjp59+ekweI6WIpIXcLRTFj6FeYsjIWT/iiCN+/4c/+HgpNnJB2QuK0uvl4Ye/zfeN70nrUuSUpIdZt55/vk77CMnUn0j/yhPTfNDMyb777rudK3n6W0+f7k2iGB5UpDUZTfVkstNVxcSokf4o6IKfXmTalTVl1UA8eQu5y67mHyzu8cgcpMRjELZ2/VpeqYM12Ms999hjwMfHw9es1ss7vB/84AcNiH0DYENP6n+0KHyKqGacR5pGm/VAl/Wo1Nz28m/z+r3p+f1ZIkJKY+BDG2iedtpp06bnzViZQKzaxiPjUcfCzDhFJh+mA3yhe0Lx056cG2+86eyzz/bVCIbH9j3pOlbzVvxF6hcCu/2FGBAJ6ysO0B4xlTt91nSHlv/f//t/EYyevf+z46HvUi/FsZErVq741Kc/feGFF3ZPSbtccMgtwaTqpO9SpzAwpjekxl6DchXTKEjX+djoJ2Ji1Od6RdKHnPwXDcZ8Tv3Z8ahjZnscL5MK07GxIS+b+cp9lkqyRmkw19m1atUaB5/65Iod9DpcWHQNyA4hv5IHlCnSHJnMVgr//qUvOeARB6QdHcXfqFAJZIyHvquYVq8E37b2Cy684LNnf57Z1lw1P000eMnTfE4lNTtTY04VosqgG5yna2XCUQatYnXPWvscHSr5mKOO3LBug4OZeklUqik6HnXsW8LY/2p1TAd6avWuY1pi/YvweWyUFJImchmXpUuXQbbPR9hzTHm6V+YtzPCAwkNJNgGAjDVtRrNOaVcJuwXl/FpPpXnoXEQDhfHQdxXTCl3bs5ZNVe49d9+nI7Llg4sVx/Wm2rLS6aRd/9RBXWeRgOrRtHm1xJ27YI39pJNO+rsXvmC7uXPY5fy3KYa+JVuJjEcdC/FxirQ6podbbUdTA6KdbtYanHxujOVUO5s0uCIwihp8h4MRcT/pmN9sW5zddgsXLpTOeLeaLjGPq+v+fL1FREevm7+DdRVxFGp0NSpiJQjQWfEwBK4pMa8p8qbkNZ1/1BFHarQWYq0ymuKQQVDlrSlshZimYxaOktggCjauB+vbb7+dB2nYBxzUTMHemDL28p7BjjvuyEJDgwfljx6fvltKzdpkMtjc6I0bnPp18cUX+2qCYxpXrl6tRtjWI1WxKX/wr16gbGb9sY99rDcPdlqwo+onb62+paSlqjkmzGxtmCaUZJnytx/E+dkppTacShKj/mKZoCFBOcMXVkTi+4uaRG9vnR7a8oFPIqTeo73dJJ1P665etdKmah0RZEN5OnRv+XIzmnjlivneofVFXyeyQdcqo5Wp6VPTEFN9o9GWKkVi+bkVRLY2TNOQ4PWkpFpfNFy/zk82yc+Y40v2KadLgfi0DSg7JP9/O1fXwzAIAh/2///zjl01ZJGuWrMBoy81+DEOToSuKYWQsC70FqfBaaEzv4jwkDIR7MTmhBD6S1YsO/n4G1/KCxEfFwajl4hIaGxmnFStP9s9G6eX/QOvgyXL0785Eary56Tx9vJ00+NVNZuIoiBtaObuxek5e/kZzVCN2K0zq64epMMrN5sJuTg9dL1TIYnK02TLwbJlEW/G0rWyN90W9elHM+brdl9uKOy91iw94FdtsFmnRwTyEc6JtinDdsXpE49XV0gLJIzTIf1wUWkkH0aifHGBfxiW9oFOTufpzCMnwg2oKk5vMGIt4coCxWlX7phQptIQy1jFacsyJY9qgcqno3rOSq31M+yo2O7p/QRB5P8ZLGy5OQAAAABJRU5ErkJggg==;" vertex="1" parent="1">
          <mxGeometry x="333.18" y="280" width="44.42" height="40" as="geometry" />
        </mxCell>
        <mxCell id="_jiDTeAEU6iun5wavJAG-23" value="" style="endArrow=classic;html=1;rounded=0;entryX=0;entryY=0.5;entryDx=0;entryDy=0;" edge="1" parent="1" target="_jiDTeAEU6iun5wavJAG-21">
          <mxGeometry width="50" height="50" relative="1" as="geometry">
            <mxPoint x="290" y="240" as="sourcePoint" />
            <mxPoint x="440" y="390" as="targetPoint" />
            <Array as="points">
              <mxPoint x="290" y="280" />
              <mxPoint x="290" y="300" />
            </Array>
          </mxGeometry>
        </mxCell>
        <mxCell id="_jiDTeAEU6iun5wavJAG-24" value="LLM Classifier" style="text;html=1;align=center;verticalAlign=middle;resizable=0;points=[];autosize=1;strokeColor=none;fillColor=none;" vertex="1" parent="1">
          <mxGeometry x="303.18" y="312" width="100" height="30" as="geometry" />
        </mxCell>
        <mxCell id="_jiDTeAEU6iun5wavJAG-25" value="Rule Matcher" style="text;html=1;align=center;verticalAlign=middle;resizable=0;points=[];autosize=1;strokeColor=none;fillColor=none;" vertex="1" parent="1">
          <mxGeometry x="307.39" y="202" width="90" height="30" as="geometry" />
        </mxCell>
        <mxCell id="_jiDTeAEU6iun5wavJAG-27" value="" style="shape=image;verticalLabelPosition=bottom;labelBackgroundColor=default;verticalAlign=top;aspect=fixed;imageAspect=0;image=https://www.logosc.cn/uploads/icon/2019/04/28//f4d1fd51-0ae8-4159-934c-7830f535f931.png;shadow=0;imageBackground=default;" vertex="1" parent="1">
          <mxGeometry x="450" y="226.37" width="39.25" height="34.63" as="geometry" />
        </mxCell>
        <mxCell id="_jiDTeAEU6iun5wavJAG-28" value="" style="endArrow=classic;html=1;rounded=0;" edge="1" parent="1">
          <mxGeometry width="50" height="50" relative="1" as="geometry">
            <mxPoint x="370" y="190" as="sourcePoint" />
            <mxPoint x="440" y="244" as="targetPoint" />
            <Array as="points">
              <mxPoint x="410" y="190" />
              <mxPoint x="410" y="244" />
            </Array>
          </mxGeometry>
        </mxCell>
        <mxCell id="_jiDTeAEU6iun5wavJAG-29" value="" style="shape=image;verticalLabelPosition=bottom;labelBackgroundColor=default;verticalAlign=top;aspect=fixed;imageAspect=0;image=https://www.logosc.cn/uploads/icon/2019/04/28//f4d1fd51-0ae8-4159-934c-7830f535f931.png;shadow=0;imageBackground=default;" vertex="1" parent="1">
          <mxGeometry x="233" y="218" width="27.92" height="24.63" as="geometry" />
        </mxCell>
        <mxCell id="_jiDTeAEU6iun5wavJAG-30" value="Planer" style="text;html=1;align=center;verticalAlign=middle;resizable=0;points=[];autosize=1;strokeColor=none;fillColor=none;" vertex="1" parent="1">
          <mxGeometry x="439.63" y="261" width="60" height="30" as="geometry" />
        </mxCell>
        <mxCell id="_jiDTeAEU6iun5wavJAG-31" value="" style="endArrow=classic;html=1;rounded=0;" edge="1" parent="1">
          <mxGeometry width="50" height="50" relative="1" as="geometry">
            <mxPoint x="370" y="300" as="sourcePoint" />
            <mxPoint x="440" y="244" as="targetPoint" />
            <Array as="points">
              <mxPoint x="410" y="300" />
              <mxPoint x="410" y="244" />
            </Array>
          </mxGeometry>
        </mxCell>
        <mxCell id="_jiDTeAEU6iun5wavJAG-33" value="" style="shape=image;verticalLabelPosition=bottom;labelBackgroundColor=default;verticalAlign=top;aspect=fixed;imageAspect=0;image=https://cdn.icon-icons.com/icons2/37/PNG/512/scheme_4267.png;" vertex="1" parent="1">
          <mxGeometry x="553" y="230" width="40" height="40" as="geometry" />
        </mxCell>
        <mxCell id="_jiDTeAEU6iun5wavJAG-34" value="" style="endArrow=classic;html=1;rounded=0;" edge="1" parent="1">
          <mxGeometry width="50" height="50" relative="1" as="geometry">
            <mxPoint x="500" y="250" as="sourcePoint" />
            <mxPoint x="540" y="250" as="targetPoint" />
          </mxGeometry>
        </mxCell>
        <mxCell id="_jiDTeAEU6iun5wavJAG-35" value="Production Plan" style="text;html=1;align=center;verticalAlign=middle;resizable=0;points=[];autosize=1;strokeColor=none;fillColor=none;" vertex="1" parent="1">
          <mxGeometry x="521" y="268" width="110" height="30" as="geometry" />
        </mxCell>
        <mxCell id="_jiDTeAEU6iun5wavJAG-39" value="" style="shape=image;verticalLabelPosition=bottom;labelBackgroundColor=default;verticalAlign=top;aspect=fixed;imageAspect=0;image=https://st3.depositphotos.com/1985863/13551/v/380/depositphotos_135515004-stock-illustration-custom-code-implementation-icon.jpg;" vertex="1" parent="1">
          <mxGeometry x="670" y="226" width="60" height="60" as="geometry" />
        </mxCell>
        <mxCell id="_jiDTeAEU6iun5wavJAG-40" value="" style="endArrow=classic;html=1;rounded=0;" edge="1" parent="1">
          <mxGeometry width="50" height="50" relative="1" as="geometry">
            <mxPoint x="620" y="258" as="sourcePoint" />
            <mxPoint x="660" y="258" as="targetPoint" />
          </mxGeometry>
        </mxCell>
        <mxCell id="_jiDTeAEU6iun5wavJAG-41" value="" style="endArrow=classic;html=1;rounded=0;" edge="1" parent="1">
          <mxGeometry width="50" height="50" relative="1" as="geometry">
            <mxPoint x="700" y="300" as="sourcePoint" />
            <mxPoint x="470" y="289" as="targetPoint" />
            <Array as="points">
              <mxPoint x="700" y="320" />
              <mxPoint x="470" y="320" />
            </Array>
          </mxGeometry>
        </mxCell>
        <mxCell id="_jiDTeAEU6iun5wavJAG-42" value="Production Execution" style="text;whiteSpace=wrap;" vertex="1" parent="1">
          <mxGeometry x="642" y="272" width="120" height="25" as="geometry" />
        </mxCell>
      </root>
    </mxGraphModel>
  </diagram>
</mxfile>
